<svg xmlns="http://www.w3.org/2000/svg" width="60" height="58" fill="none" viewBox="0 0 60 58">
  <g clip-path="url(#clip0)">
    <path fill="#7F5B2D" d="M30.265 0c3.703 0 8.254-.106 12.91.106 2.116.106 4.233.211 6.349.635 2.01.423 3.492 1.375 3.915 3.492.212 1.058.741 1.693 1.8 1.905 1.269.211 2.116 1.164 2.539 2.328a19.161 19.161 0 011.27 5.926c.529 5.502.635 11.11.846 16.613.106 4.339-.211 8.677-.423 13.016-.106 2.117-.212 4.339-.53 6.455-.105.635-.317 1.27-.528 1.905-.635 1.799-2.01 2.963-3.81 3.704-1.481.529-3.069.74-4.656.74-4.127.212-8.36.635-12.487.635-2.328 0-4.656.212-6.878.318-4.656.106-9.312 0-13.862-.953-1.376-.317-2.857-.423-4.233-.635-.318 0-.53-.105-.847-.211-2.222-.53-3.915-1.8-4.656-4.021-.211-.741-.635-1.164-1.375-1.376-1.27-.53-2.223-1.482-2.858-2.751-.74-1.482-1.164-3.07-1.375-4.762-.318-2.54-.741-5.185-.953-7.725-.211-2.01-.211-4.021-.211-5.926 0-4.021-.212-8.042 0-12.17.106-2.75.317-5.608.846-8.36.106-1.269.53-2.433 1.058-3.491.53-1.164 1.482-2.117 2.54-2.857C6.773 1.27 8.995.847 11.43.53 17.46-.107 23.386.105 30.265 0z"/>
    <path fill="#F8E8CE" d="M29.63 1.27c4.656 0 8.889-.106 13.227.106 2.117.105 4.233.211 6.244.635.317.105.74.211 1.058.317 1.058.212 1.693.847 2.01 1.799.53 1.481.953 2.963 1.059 4.444.74 6.773.846 13.651.952 20.53 0 2.857-.212 5.608-.317 8.465-.106 2.222-.212 4.339-.424 6.561-.105.952-.211 1.799-.529 2.751-.529 1.588-1.587 2.646-3.174 3.175-1.8.635-3.598.635-5.503.847-2.434.211-4.868.317-7.302.423-1.375.106-2.857.106-4.232.106-1.588 0-3.07.105-4.656.211-5.291.318-10.582.212-15.768-.74-1.481-.318-2.963-.318-4.444-.636-.635-.105-1.164-.317-1.693-.529-1.058-.423-1.905-1.27-2.434-2.328a12.243 12.243 0 01-1.27-4.656c-.317-2.751-.74-5.396-.952-8.148-.106-1.693-.106-3.28-.212-4.973-.106-3.704-.212-7.408-.106-11.006.106-3.068.318-6.243.847-9.312 0-.211.106-.529.106-.74.74-3.81 3.28-5.715 6.878-6.456 2.434-.529 4.973-.529 7.513-.74 4.445-.212 8.995 0 13.122-.106z"/>
    <path fill="#7F5B2D" d="M38.201 25.608c.635.424 1.058.847 1.587 1.27 1.059.847 2.117 1.588 3.175 2.434 1.27 1.058 2.222 2.222 2.646 3.81.317 1.058.211 2.116-.318 3.069a13.047 13.047 0 01-5.608 5.608c-1.482.74-2.963.74-4.445.106-1.693-.741-3.174-2.01-4.656-3.175-1.164-.952-2.116-2.116-3.069-3.174-.211-.212-.423-.53-.635-.741-.317.106-.423.211-.529.317-1.693 2.01-3.492 3.81-5.29 5.609a17.273 17.273 0 01-2.117 1.799c-1.164.74-2.328.846-3.598.423a5.157 5.157 0 01-1.164-.423c-1.799-1.059-3.28-2.434-4.339-4.233-1.058-1.693-1.058-3.386.106-5.08 1.588-2.433 3.492-4.55 5.82-6.349.318-.211.635-.529.953-.74v-.106c0-.212-.318-.318-.423-.53-1.694-1.48-3.387-3.068-5.08-4.655-.635-.741-1.27-1.588-1.481-2.752-.106-.635 0-1.27.211-1.799.318-.635.741-1.27 1.27-1.904 1.058-1.27 2.328-2.329 3.598-3.387.847-.74 1.799-1.164 2.857-1.587 1.058-.317 2.01-.212 2.963.423a23.339 23.339 0 014.868 4.233c.74.847 1.375 1.587 2.116 2.434.318-.106.424-.317.53-.423 1.587-1.8 3.28-3.387 4.973-4.974.529-.529 1.164-1.058 1.799-1.481 1.481-1.059 2.963-1.059 4.55 0 1.376.952 2.751 2.01 3.915 3.28.635.635 1.164 1.27 1.694 2.01 1.058 1.588 1.058 2.752-.106 4.34-.953 1.375-2.222 2.433-3.492 3.597-.953.953-2.01 1.8-3.28 2.752z"/>
    <path fill="#E8C99C" d="M34.074 48.677c-1.27-.106-2.645 0-4.02-.106-1.06 0-2.117.106-3.175.106-.953 0-1.165-.211-1.27-1.164v-.211c0-1.694 0-1.588 1.587-1.694h3.81c1.058 0 2.01-.211 3.068-.211 1.693-.106 3.28-.53 4.974-.635.952 0 1.799-.318 2.645-.53.847-.21 1.693-.528 2.434-.74.74-.212 1.27-.74 1.693-1.481.741-1.27.953-2.646 1.164-3.916.212-1.164.53-2.328.635-3.492.106-.74.212-1.481.212-2.222.106-2.434.211-4.762.211-7.196v-.211c0-.847 0-.847.847-.847h1.693c.318 0 .53.106.53.53v.74c-.107 2.116 0 4.233.21 6.243.213 2.222-.105 4.445-.105 6.667 0 1.587-.317 3.174-.846 4.762-.212.74-.53 1.375-.847 2.01-.318.635-.847 1.059-1.587 1.27-1.482.635-3.07 1.058-4.656 1.376-.635.106-1.27.106-2.011.106-1.058.105-2.116.317-3.175.423-1.058.53-2.433.423-4.02.423z"/>
    <path fill="#fff" d="M14.286 6.138c0 .529 0 1.058-.106 1.587-.106.423-.317.529-.74.635-.636 0-1.165.106-1.8.211a6.756 6.756 0 00-3.174 1.8 4.71 4.71 0 00-1.27 2.222c-.106.317-.212.634-.212.952-.106.423-.211.635-.74.635-.53 0-1.059.106-1.588.212-.317.105-.529 0-.529-.318 0-.635-.106-1.27 0-1.905s.106-1.27.106-1.799c.106-2.01 1.058-3.386 2.751-4.444.53-.318 1.058-.53 1.588-.74a6.726 6.726 0 011.904-.636c.847-.106 1.588-.423 2.434-.529.212 0 .424-.106.635 0 .318.106.53.106.635.635 0 .423.106.952.106 1.482z"/>
    <path fill="#FFFEFD" d="M16.19 4.127c.212.317.424.635.741.952.741.741.53 1.588.318 2.54-.106.423-.318.635-.74.53-.424 0-.636-.318-.636-.636 0-.529-.106-1.058 0-1.587.106-.635.212-1.164.318-1.799z"/>
    <path fill="#E9CB9F" d="M22.645 46.984v-.317c0-.318.212-.424.424-.212.317.212.74.212.74.635 0 .423-.211.74-.529 1.058-.105.106-.317.106-.423-.106-.212-.317-.317-.635-.212-1.058z"/>
    <path fill="#FEFDFB" d="M4.868 16.825h-.212c-.211-.105-.529-.105-.635-.423-.106-.317.212-.423.424-.529.105 0 .211-.106.317-.106.212-.106.53-.211.74 0 .212.212 0 .53-.105.847 0 .211-.318.211-.53.211z"/>
    <path fill="#E9CB9F" d="M50.688 21.376c-.318.952-.635 1.164-1.164 1.058-.212 0-.318-.106-.423-.318 0-.211.105-.317.211-.423.106-.106.318-.106.424-.106.317-.105.634-.105.952-.211z"/>
    <path fill="#EACDA2" d="M48.889 19.47c.846-.528 1.164-.634 1.905-.21-.53.422-1.164.422-1.905.21z"/>
  </g>
  <defs>
    <clipPath id="clip0">
      <path fill="#fff" d="M0 0h60v57.778H0z"/>
    </clipPath>
  </defs>
</svg>
