<svg width="60" height="58" viewBox="0 0 60 58" fill="none" xmlns="http://www.w3.org/2000/svg">
<g clip-path="url(#clip0)">
<path d="M30.2172 -1.87024e-05C33.9866 0.046517 38.6091 -0.09309 43.2162 0.0930526C45.3258 0.170612 47.4199 0.341243 49.4985 0.744552C51.5771 1.14786 53.0662 2.23369 53.5781 4.34331C53.8108 5.32056 54.2606 5.83245 55.2689 6.06513C56.5409 6.37537 57.3785 7.30608 57.8594 8.53152C58.5729 10.3154 58.9452 12.1768 59.1314 14.0848C59.5967 18.909 59.7363 23.7487 59.907 28.6039C60.0311 32.4198 60.0621 36.2202 59.7984 40.0207C59.5812 43.1541 59.5347 46.303 59.1779 49.4364C59.0693 50.3205 58.9297 51.2047 58.635 52.0579C57.9525 54.0899 56.5719 55.4084 54.5554 56.091C53.1748 56.5563 51.7477 56.7114 50.3051 56.8045C47.1717 57.0062 44.0383 57.2233 40.8894 57.3629C39.2451 57.4405 37.6009 57.425 35.9566 57.4405C34.1417 57.456 32.3268 57.6732 30.5119 57.7663C27.968 57.8904 25.4395 57.8128 22.8956 57.6577C19.6071 57.456 16.3961 56.7114 13.1231 56.3392C12.3785 56.2616 11.6495 56.0755 10.9359 55.8428C9.05897 55.2533 7.67842 54.1054 7.02692 52.2285C6.71668 51.3598 6.26683 50.7859 5.36714 50.4446C4.17273 49.9948 3.33509 49.0641 2.76115 47.9162C1.9235 46.2409 1.48917 44.4571 1.25649 42.6111C0.899719 39.7259 0.418851 36.8407 0.263732 33.9245C0.124125 31.0703 0.124125 28.2161 0.0465652 25.3619C-0.0154824 22.6163 -0.0309943 19.8707 0.124125 17.1406C0.279244 14.3795 0.449874 11.6184 0.946255 8.88829C1.16342 7.66285 1.59775 6.49946 2.14067 5.38261C2.73012 4.18819 3.59879 3.24197 4.73116 2.55944C6.84077 1.28747 9.15205 0.806599 11.5564 0.542897C17.4819 -0.124114 23.423 0.046517 30.2172 -1.87024e-05Z" fill="#71431A"/>
<path d="M29.8914 1.25644C33.8779 1.25644 37.3681 1.22541 40.8583 1.27195C43.2471 1.30297 45.6515 1.41156 48.0248 1.75282C48.7694 1.8614 49.4984 2.00101 50.212 2.23369C51.1737 2.54392 51.8407 3.13338 52.213 4.11063C52.8955 5.87898 53.2368 7.70938 53.4074 9.58632C53.7332 13.1541 53.9193 16.7218 54.0434 20.2895C54.121 22.7714 54.1675 25.2533 54.2451 27.7352C54.3381 31.0548 54.0899 34.3588 53.8883 37.6784C53.7952 39.1985 53.7176 40.7342 53.6246 42.2544C53.5625 43.2316 53.4695 44.2089 53.3143 45.1706C52.818 48.4591 51.1892 49.8862 47.9162 50.4136C47.032 50.5532 46.1478 50.6618 45.2482 50.6928C41.2461 50.879 37.2595 51.3443 33.2419 51.2978C30.9307 51.2668 28.6349 51.5305 26.3236 51.6236C21.6701 51.7942 17.032 51.6701 12.456 50.7549C10.9358 50.4602 9.36915 50.3981 7.83347 50.0724C7.15094 49.9172 6.49944 49.7156 5.86346 49.4209C4.91723 48.971 4.2192 48.273 3.75384 47.3268C2.97825 45.7601 2.55942 44.0848 2.35777 42.3474C2.001 39.4002 1.4891 36.4684 1.38052 33.4902C1.33398 32.1872 1.27194 30.8997 1.25643 29.5967C1.19438 25.9048 1.02375 22.213 1.17887 18.5212C1.30296 15.4653 1.52013 12.425 1.98548 9.40018C2.17163 8.15923 2.59045 6.99584 3.14888 5.87898C3.66077 4.83968 4.42085 4.03307 5.44464 3.47464C6.91827 2.65251 8.48497 2.10959 10.1758 1.90794C12.7197 1.61321 15.2792 1.42707 17.8542 1.31849C22.0113 1.16337 26.1995 1.36502 29.8914 1.25644Z" fill="#F9EAC6"/>
<path d="M42.0372 15.4964C42.2854 15.2482 42.3475 15 42.3164 14.7518C42.2699 14.2864 42.5026 14.0693 42.9214 13.9762C44.2709 13.666 45.5894 13.6039 46.5512 14.8293C47.2027 15.667 47.4664 16.6908 47.5284 17.7301C47.5905 18.9245 47.1561 19.9948 46.4736 20.9565C45.5119 22.3216 44.1313 23.1282 42.6267 23.7952C41.8666 24.121 41.153 24.5863 40.3309 24.788C40.1137 24.8345 40.0207 25.0207 39.9276 25.2068C39.2606 26.7425 38.2678 28.0455 37.0889 29.1934C36.1117 30.1551 34.9483 30.8376 33.6763 31.3495C33.4281 31.4426 33.2265 31.5201 33.1024 31.7994C32.4354 33.5212 31.7373 35.2275 31.0548 36.9338C31.0083 37.0424 30.9462 37.1354 31.0393 37.3371C31.5202 37.4922 32.0631 37.3836 32.5905 37.4147C32.8542 37.4302 33.1179 37.4147 33.3661 37.4302C34.0641 37.4612 34.2658 37.6629 34.3433 38.3609C34.3743 38.6711 34.1882 39.0744 34.4519 39.2606C34.7621 39.4777 35.181 39.3692 35.5377 39.2916C36.2047 39.152 36.8562 39.3692 37.5233 39.3381C37.849 39.3226 38.0507 39.5398 38.1903 39.819C38.3144 40.0517 38.3454 40.3154 38.3454 40.5791C38.3919 42.1148 38.1127 42.394 36.5925 42.4095C35.0414 42.4405 33.4902 42.5956 31.9235 42.5801C30.3413 42.5646 28.759 42.6887 27.1768 42.5491C26.153 42.456 25.0982 42.5336 24.0745 42.5336C22.8955 42.5336 21.7166 42.5181 20.5377 42.5181C20.212 42.5181 19.9173 42.4715 19.607 42.3474C19.1882 42.1768 18.94 41.9131 18.94 41.4478C18.94 41.2461 18.909 41.0444 18.909 40.8428C18.8935 39.6329 19.1107 39.4467 20.3361 39.3226C21.0341 39.2451 21.7166 39.3381 22.3992 39.3536C22.7249 39.3692 22.9111 39.3226 22.9266 38.9038C22.9731 37.4457 23.0041 37.4457 24.4778 37.4302C24.9121 37.4302 25.3464 37.4302 25.7808 37.4147C26.2927 37.3836 26.3547 37.3216 26.1686 36.8562C25.7963 35.8635 25.393 34.8707 24.9897 33.8779C24.7415 33.304 24.5088 32.7146 24.3226 32.0475C25.7963 31.97 27.2234 32.1406 28.6194 31.9545C28.1851 31.6908 27.6887 31.5977 26.9442 31.5822C26.1686 31.5667 25.393 31.5512 24.6019 31.5201C23.2989 31.4736 22.2441 30.7756 21.2358 30.062C19.5295 28.8521 18.2885 27.2389 17.4043 25.3619C17.2182 24.9896 16.97 24.8035 16.5977 24.6639C15.031 24.0744 13.4643 23.4229 12.1613 22.3836C9.9121 20.5843 8.9969 18.1644 10.3775 15.3257C10.8118 14.426 11.5719 13.7745 12.7042 13.8211C12.9679 13.8366 13.2316 13.8211 13.4798 13.8366C14.5657 13.8986 14.6898 14.0227 14.938 15.093C14.9845 15.3102 14.938 15.5739 15.2482 15.7135C15.3102 15.4188 15.2637 15.1551 15.2327 14.8914C15.1396 14.0537 15.1241 13.2316 15.1241 12.394C15.1241 11.9441 15.3102 11.789 15.6825 11.6649C16.0703 11.5253 16.4736 11.5098 16.8769 11.4943C19.6536 11.4322 22.4147 11.4633 25.1913 11.4943C27.1303 11.5098 29.0538 11.5098 30.9928 11.4478C32.6991 11.4012 34.3899 11.2616 36.0807 11.1685C37.6163 11.0755 39.1365 11.1685 40.6722 11.1996C41.6339 11.2151 42.2699 12.0062 42.1613 12.9834C42.1148 13.4488 42.0527 13.8986 42.0217 14.364C42.0217 14.6897 42.0372 15.062 42.0372 15.4964Z" fill="#71431A"/>
<path d="M32.2803 48.7074C30.4654 48.7074 28.6505 48.7074 26.8201 48.7074C26.0135 48.7074 25.8894 48.5988 25.7498 47.7922C25.6567 47.2337 25.7808 46.7063 25.8894 46.1634C25.9824 45.7446 26.3237 45.7601 26.6495 45.7601C28.0921 45.7446 29.5347 45.7136 30.9773 45.7446C32.1872 45.7756 33.3816 45.636 34.576 45.4499C36.1117 45.2172 37.6474 45.0621 39.1986 44.8914C40.1758 44.7828 41.1221 44.5347 42.0683 44.2865C42.8439 44.0848 43.5884 43.7901 44.364 43.5729C45.0311 43.3868 45.4964 42.9214 45.8687 42.3475C46.5357 41.3392 46.7839 40.1913 47.0166 39.0279C47.2182 38.0197 47.4664 37.0114 47.6371 35.9876C47.8232 34.8552 47.9628 33.7073 48.0714 32.575C48.3041 30.1086 48.2575 27.6267 48.2575 25.1448C48.2575 25.0052 48.273 24.85 48.2575 24.7104C48.2575 24.3847 48.4282 24.2606 48.7384 24.2606C49.483 24.2761 50.243 24.2451 50.9876 24.2761C51.422 24.2916 51.515 24.4467 51.4685 24.8966C51.3134 26.2461 51.2823 27.5957 51.4995 28.9452C51.515 29.0072 51.515 29.0538 51.515 29.1158C51.453 30.8221 51.8563 32.5129 51.6857 34.2037C51.546 35.5843 51.6236 36.9648 51.515 38.3454C51.3289 40.5791 51.0342 42.8128 49.9949 44.8449C49.545 45.7291 48.878 46.334 47.9318 46.6753C46.5822 47.1717 45.2327 47.637 43.8056 47.8852C43.0921 48.0093 42.3785 47.9938 41.665 48.0869C40.7343 48.211 39.8035 48.4126 38.8573 48.5212C38.1438 48.5988 37.4302 48.6453 36.7012 48.6453C35.2275 48.7229 33.7539 48.7074 32.2803 48.7074Z" fill="#E9C787"/>
<path d="M14.2866 6.14269C14.2866 6.6856 14.2866 7.22852 14.147 7.77143C14.0539 8.14372 13.8833 8.29884 13.542 8.39191C13.2318 8.48498 12.9215 8.50049 12.5958 8.50049C11.4324 8.48498 10.3931 8.84176 9.47788 9.57081C9.18315 9.80349 8.82638 9.92759 8.53165 10.1758C7.63196 10.9203 7.25967 11.9286 7.01148 13.0145C6.73227 14.1934 6.73227 14.1934 5.50683 14.2244C5.30518 14.2244 5.10352 14.2399 4.90187 14.2709C4.06422 14.4105 4.04871 14.426 4.06422 13.6194C4.07974 12.1613 4.07974 10.6722 4.43651 9.24506C4.80879 7.75592 5.67746 6.53048 7.1666 5.8945C7.38377 5.80142 7.56991 5.67733 7.77157 5.56875C8.64023 5.04134 9.53992 4.62252 10.5637 4.48291C11.4634 4.35882 12.301 3.90897 13.2628 3.97102C14.0539 4.03307 14.0539 3.98653 14.2245 4.74662C14.2555 4.8552 14.2711 4.97929 14.2866 5.08788C14.2866 5.44465 14.2866 5.80142 14.2866 6.14269Z" fill="white"/>
<path d="M16.0547 4.25024C17.5748 5.42915 17.6059 6.20474 17.2646 7.67837C17.1715 8.05066 16.9389 8.20577 16.5666 8.15924C16.1788 8.12821 15.8996 7.91105 15.8685 7.52325C15.8375 6.94931 15.791 6.35986 15.8996 5.80143C15.9771 5.32056 16.0081 4.8397 16.0547 4.25024Z" fill="#FFFFFE"/>
<path d="M23.035 48.3196C22.5697 47.544 22.5387 47.3888 22.6938 46.3495C23.1281 46.4271 23.6555 46.5357 23.7486 46.939C23.8572 47.4819 23.5004 47.9473 23.035 48.3196Z" fill="#E9C787"/>
<path d="M21.5149 14.7518C22.1199 14.7518 22.7249 14.7363 23.3298 14.7518C23.9813 14.7673 23.9813 14.7673 23.9968 15.4498C23.9968 15.5119 23.9968 15.5584 23.9968 15.6205C23.7331 17.6215 23.7952 19.6225 23.9813 21.6391C24.0589 22.5233 24.2605 23.3919 24.4312 24.2606C24.5087 24.6484 24.4312 24.7725 24.0589 24.8345C23.6866 24.8966 23.3298 24.9586 22.9576 24.9741C22.5232 24.9896 22.1044 24.9741 21.6701 25.0672C20.9875 25.2378 20.8479 25.1293 20.5532 24.4622C19.8086 22.6784 19.3123 20.848 19.0951 18.909C18.9555 17.7611 18.9865 16.6132 18.9555 15.4653C18.94 14.7673 18.971 14.7673 19.7001 14.7518C20.305 14.7518 20.91 14.7673 21.5149 14.7518Z" fill="#9D714C"/>
<path d="M16.8149 24.152C16.4581 23.8573 16.3495 23.5315 16.303 23.1902C16.241 22.7094 15.9617 22.4457 15.5895 22.1975C14.395 21.4374 13.3092 20.5532 12.4095 19.4519C12.1613 19.1572 11.9907 18.8469 11.9907 18.4436C11.9597 17.0165 12.9524 16.334 14.2709 16.8924C14.4106 16.9545 14.5346 17.001 14.6587 17.0786C15.2327 17.4198 15.667 17.7921 15.7756 18.5677C16.0083 20.3516 16.334 22.1354 16.8925 23.8728C16.8925 23.9193 16.8614 23.9813 16.8149 24.152Z" fill="#F8EABA"/>
<path d="M40.5635 23.5315C40.4394 23.2523 40.5791 22.9886 40.6566 22.7559C41.0444 21.4839 41.3236 20.1809 41.4322 18.8624C41.5408 17.6835 42.2543 17.1561 43.2161 16.8149C43.9917 16.5356 44.5346 16.6908 44.9224 17.2182C45.3567 17.8076 45.4188 18.6918 45.0155 19.2502C44.364 20.1499 43.5263 20.848 42.6732 21.5305C42.4405 21.7011 42.1923 21.8562 41.9596 22.0269C41.4477 22.3836 40.8583 22.6629 40.7652 23.3919C40.7497 23.4384 40.6411 23.4695 40.5635 23.5315Z" fill="#F8EABA"/>
<path d="M21.7942 26.3857C22.7559 26.1841 23.6091 26.0134 24.5088 26.0134C24.8966 26.0134 25.5326 26.758 25.4705 27.1303C25.4395 27.3009 25.2999 27.363 25.1603 27.3785C24.5088 27.425 23.8728 27.5801 23.2213 27.7197C23.0507 27.7508 22.8645 27.7353 22.7404 27.5956C22.3836 27.2699 21.9803 26.9752 21.7942 26.3857Z" fill="#9D714C"/>
<path d="M26.8668 28.9297C25.8275 28.9452 24.8037 29.5502 23.9041 28.6349C24.0281 28.3557 24.2608 28.4488 24.4315 28.4488C24.9123 28.4178 25.4242 28.4953 25.8896 28.3868C26.417 28.2627 26.6186 28.4953 26.8668 28.9297Z" fill="#9D714C"/>
</g>
<defs>
<clipPath id="clip0">
<rect width="60" height="57.8283" fill="white"/>
</clipPath>
</defs>
</svg>
