<svg width="60" height="58" viewBox="0 0 60 58" fill="none" xmlns="http://www.w3.org/2000/svg">
<path d="M29.3411 0.0479385C33.9436 0.0958814 38.4982 -0.0479444 43.1007 0.0958843C45.2102 0.19177 47.3196 0.3356 49.3812 0.719144C51.4907 1.10269 53.0248 2.20537 53.5522 4.3628C53.7919 5.3696 54.2714 5.84903 55.2782 6.08875C56.5726 6.42435 57.3877 7.33526 57.8671 8.58178C58.5383 10.3077 58.9218 12.0816 59.1136 13.9514C59.4492 17.1156 59.641 20.2798 59.7369 23.4441C59.8807 27.9987 60.1204 32.5532 59.9286 37.1078C59.7369 41.4227 59.593 45.6896 59.1136 49.9565C59.0657 50.4359 58.9698 50.8674 58.8739 51.2989C58.1068 54.4631 56.0932 55.9014 52.881 56.4767C50.9154 56.8123 48.9018 56.8603 46.9361 56.9562C43.9157 57.1479 40.8953 57.4356 37.8749 57.3876C34.5668 57.3397 31.3067 57.8191 27.9987 57.7712C24.1632 57.7233 20.3278 57.4835 16.5403 56.7644C15.102 56.4767 13.6637 56.4288 12.2734 56.1411C11.746 56.0453 11.2186 55.9014 10.6913 55.7096C9.01327 55.1343 7.81469 54.0316 7.14349 52.4016C7.04761 52.2098 6.95172 51.9701 6.90378 51.7783C6.75995 51.1551 6.37641 50.8674 5.75315 50.6277C4.3628 50.1003 3.356 49.0935 2.6848 47.7032C1.91772 46.1211 1.53417 44.4431 1.29446 42.7171C0.958858 40.7035 0.719144 38.642 0.479429 36.6284C0.143829 33.9915 0.143829 31.3067 0.0958858 28.6699C0.0479429 26.0809 0 23.492 0 20.8552C0 17.0197 0.3356 13.1843 0.862972 9.3968C1.05474 7.91057 1.53417 6.52023 2.20537 5.22577C2.78069 4.12309 3.59572 3.26011 4.65046 2.58891C6.32846 1.58211 8.10235 0.958858 10.0201 0.719144C13.424 0.287657 16.8759 0.0479429 20.2798 0C23.3003 0 26.3207 0.0479385 29.3411 0.0479385Z" fill="#7F5B2D"/>
<path d="M29.6288 1.24652C33.7998 1.24652 37.2996 1.24652 40.7995 1.24652C43.2446 1.24652 45.6417 1.39035 48.0388 1.72595C48.8059 1.82184 49.573 1.96567 50.2922 2.25333C51.1551 2.58893 51.7784 3.1163 52.1619 4.07516C52.7373 5.60933 53.1208 7.1435 53.3126 8.77356C53.6482 12.0337 53.8399 15.3417 53.9838 18.6019C54.1276 23.0605 54.3673 27.4713 54.1755 31.93C53.9838 36.2448 53.8399 40.5118 53.3605 44.7787C53.2167 45.9773 52.929 47.1758 52.2099 48.1826C51.1551 49.573 49.6689 50.1004 48.0388 50.388C46.1211 50.7236 44.2034 50.7716 42.2857 50.8674C39.2653 51.0592 36.2449 51.3469 33.2245 51.2989C31.0191 51.251 28.8617 51.4907 26.6563 51.5866C21.7182 51.8263 16.828 51.6345 11.9858 50.6757C10.5954 50.388 9.15715 50.3401 7.81475 50.0524C7.14355 49.9086 6.47235 49.7168 5.84909 49.3812C4.93818 48.9018 4.26698 48.2785 3.78755 47.3197C2.92457 45.6417 2.54103 43.8678 2.34926 41.998C2.10954 39.8406 1.77394 37.7311 1.53423 35.5736C1.34246 33.7039 1.29451 31.8341 1.29451 29.9643C1.19863 25.6015 1.0548 21.1908 1.29451 16.78C1.43834 14.1432 1.58217 11.4584 2.10954 8.86945C2.20543 8.34208 2.3972 7.81471 2.54103 7.28733C3.49989 3.97927 6.08881 2.68481 9.15715 2.01361C11.6022 1.48624 14.0953 1.4383 16.5404 1.29447C21.0949 1.1027 25.6975 1.34241 29.6288 1.24652Z" fill="#F8E8CE"/>
<path d="M32.2176 48.71C30.3957 48.71 28.5739 48.71 26.7521 48.71C25.937 48.71 25.7932 48.6141 25.7932 47.7511C25.7932 47.3196 25.7932 46.8881 25.7932 46.4567C25.7932 46.0252 26.0329 45.8334 26.4165 45.7855C26.6082 45.7375 26.8 45.7855 27.0397 45.7855C28.3821 45.7855 29.6766 45.7855 31.019 45.7855C31.9299 45.7855 32.8408 45.7375 33.7517 45.6416C35.3818 45.4499 37.0119 45.2101 38.594 45.0663C40.0323 44.9225 41.4705 44.6348 42.8609 44.0116C43.1006 43.9157 43.2924 43.9157 43.5321 43.8677C44.8745 43.628 45.7375 42.8609 46.2648 41.6144C46.6963 40.7035 46.8881 39.6967 47.0799 38.7379C47.3675 37.2037 47.7031 35.7174 47.8949 34.1833C47.9908 33.3682 48.1346 32.5532 48.1346 31.6902C48.0387 29.4369 48.4223 27.1836 48.3264 24.9782C48.3264 24.355 48.3743 24.355 48.9496 24.355C49.525 24.355 50.1003 24.355 50.6756 24.355C51.2988 24.355 51.3947 24.4509 51.3947 25.1221C51.3947 26.033 51.4427 26.9918 51.3947 27.9028C51.2988 29.5328 51.5386 31.1149 51.6344 32.745C51.6824 33.9436 51.5386 35.1421 51.4427 36.3407C51.3947 37.1557 51.4427 38.0187 51.3947 38.8337C51.2509 40.9912 50.8194 43.1007 49.9085 45.0663C49.5729 45.8334 48.9496 46.3128 48.2305 46.6005C46.7443 47.2237 45.2101 47.7032 43.628 48.0388C42.9088 48.1826 42.1417 48.0867 41.4226 48.2306C40.4637 48.4223 39.5049 48.4703 38.546 48.662C38.2104 48.71 37.8748 48.7579 37.5392 48.7579C35.7653 48.71 33.9914 48.71 32.2176 48.71Z" fill="#E8C99C"/>
<path d="M16.876 10.5475C17.5472 10.6434 18.2664 10.5475 18.9376 10.4995C19.6088 10.4516 20.28 10.5954 20.9032 10.6913C21.2388 10.7393 21.5265 10.8831 21.7662 11.1228C22.1497 11.4584 22.2456 11.8419 22.0059 12.2734C21.6703 12.8967 21.3347 13.472 20.8073 13.9514C20.5676 14.1911 20.5676 14.3829 20.8073 14.5747C21.1429 14.8623 21.4306 15.1979 21.7183 15.4856C23.1565 16.7801 24.6428 18.0745 26.0331 19.4649C26.2249 19.6566 26.4646 19.8484 26.6084 20.0881C26.944 20.5676 26.992 20.9032 26.6084 21.3346C25.8413 22.2935 25.0743 23.3003 24.2113 24.1633C23.3963 24.9783 22.3895 25.0742 21.5265 24.3071C21.095 23.9715 20.7115 23.54 20.3279 23.1565C18.9855 21.8141 17.4993 20.6155 16.2528 19.1772C15.9172 18.7937 15.7254 18.8896 15.4377 19.1772C15.246 19.369 15.0542 19.6087 14.8145 19.7525C14.6227 19.8964 14.4309 20.0881 14.1912 20.184C13.1844 20.6634 12.3694 20.232 12.2735 19.1293C12.0817 17.1636 12.0338 15.1979 12.1776 13.2802C12.2256 12.9446 12.2256 12.657 12.2256 12.3214C12.2735 11.1228 12.9447 10.4037 14.1433 10.3557C15.1021 10.4037 16.0131 10.4516 16.876 10.5475Z" fill="#7F5B2D"/>
<path d="M16.6363 41.6145C15.9171 41.6145 15.0542 41.6145 14.1432 41.6145C12.9447 41.5665 12.3214 40.8953 12.2735 39.6967C12.2255 38.4502 12.1296 37.1558 12.1296 35.9093C12.1296 34.9504 12.2255 33.9436 12.2735 32.9847C12.3694 31.6903 13.3762 31.2108 14.4788 31.93C14.8624 32.1697 15.198 32.5053 15.5336 32.8409C15.8212 33.1286 16.013 33.1286 16.3007 32.8409C17.8348 31.1629 19.6087 29.7246 21.1908 28.0946C21.4306 27.8069 21.7182 27.5192 22.0538 27.3754C23.0127 26.9919 23.588 27.1357 24.3071 27.8548C25.1222 28.7178 25.8413 29.6767 26.6084 30.5876C27.0399 31.115 27.0399 31.4985 26.5605 32.0259C26.081 32.5532 25.5537 33.0806 25.0263 33.5601C23.8757 34.6148 22.6771 35.6695 21.5264 36.7722C21.3826 36.916 21.2388 37.0599 21.095 37.2037C20.5676 37.7311 20.5676 37.7311 21.095 38.3543C21.4306 38.7379 21.6703 39.2173 21.9579 39.6488C22.3415 40.32 22.1976 40.8474 21.4785 41.183C20.8073 41.5186 20.0402 41.5665 19.2731 41.6145C18.4581 41.6145 17.6431 41.4227 16.6363 41.6145Z" fill="#7F5B2D"/>
<path d="M40.368 33.0806C40.7516 32.8888 40.9913 32.5532 41.2789 32.3135C41.5186 32.1217 41.7584 31.882 42.046 31.7382C43.0528 31.1628 43.9158 31.5943 44.0596 32.745C44.2993 34.8065 44.2514 36.8201 44.1555 38.8817C44.1555 39.1693 44.1076 39.457 44.1076 39.7446C44.0117 40.7994 43.3405 41.4706 42.2857 41.5665C41.6625 41.6144 41.0872 41.6144 40.4639 41.5665C39.4092 41.4706 38.4024 41.4706 37.3476 41.5185C36.6764 41.5665 36.0052 41.4706 35.382 41.2788C34.2793 40.9432 33.9916 40.3199 34.6149 39.3611C34.8066 39.0734 34.9505 38.7858 35.1902 38.4981C35.3819 38.2584 35.6217 38.0187 35.8614 37.731C35.5737 37.2995 35.1902 36.9639 34.8066 36.6283C33.3683 35.2859 31.9301 33.9915 30.4918 32.6491C30.3479 32.5052 30.2041 32.3614 30.0603 32.2176C29.3411 31.4505 29.3411 31.1628 29.9644 30.3478C30.6835 29.4848 31.4027 28.526 32.2177 27.711C32.9848 26.9439 33.9437 26.8959 34.7587 27.5671C34.9984 27.7589 35.2381 27.9986 35.4299 28.2383C37.012 29.8684 38.8338 31.3546 40.368 33.0806Z" fill="#7F5B2D"/>
<path d="M44.1074 15.6294C44.1074 16.6842 44.1074 17.691 44.1074 18.7457C44.1074 18.9375 44.0595 19.1292 44.0595 19.369C43.8677 20.5675 43.0048 20.999 41.95 20.3278C41.5185 20.0881 41.1829 19.7046 40.8473 19.369C40.5597 19.0813 40.3679 19.0813 40.0802 19.4169C38.5461 21.1428 36.7242 22.5811 35.1421 24.2591C34.8065 24.5947 34.4709 24.8824 33.9915 24.9783C33.2244 25.17 32.6012 25.0262 32.0738 24.403C31.3067 23.4441 30.5396 22.5332 29.7725 21.6223C29.389 21.1428 29.389 20.8552 29.7725 20.3758C29.9643 20.136 30.204 19.8963 30.3958 19.6566C31.7861 18.3142 33.2244 17.0198 34.6627 15.7253C34.8545 15.5335 35.0942 15.3418 35.286 15.15C35.8613 14.5747 35.8613 14.5747 35.3339 13.8555C34.9983 13.472 34.7106 12.9926 34.4709 12.5611C34.1353 11.9378 34.2792 11.4584 34.9024 11.1228C35.4777 10.7872 36.1969 10.6433 36.8201 10.6913C38.642 10.7392 40.4638 10.5954 42.2856 10.6434C43.4362 10.6913 44.1074 11.3146 44.1554 12.4652C44.2033 13.5199 44.2513 14.5747 44.2992 15.6774C44.2033 15.6294 44.1554 15.6294 44.1074 15.6294Z" fill="#7F5B2D"/>
<path d="M14.1912 6.04082C14.1912 6.52025 14.1912 6.99968 14.1912 7.52706C14.1432 8.19826 13.9035 8.43797 13.2323 8.48591C12.8008 8.53386 12.3693 8.43797 11.9378 8.53385C9.97219 8.86945 7.14356 10.5475 6.90384 13.5199C6.8559 14.1432 6.80796 14.1911 6.1847 14.2391C5.65733 14.2391 5.08201 14.2391 4.55464 14.3829C4.12315 14.4788 3.97933 14.3349 3.97933 13.9035C3.93138 12.9446 4.26698 11.9857 4.1711 10.9789C4.12315 10.4995 4.21904 10.068 4.31493 9.63654C4.79436 7.95854 5.60938 6.5682 7.28739 5.84905C8.15036 5.51345 8.8695 4.84225 9.78042 4.69842C10.3557 4.60253 10.931 4.5546 11.4584 4.31488C12.0817 4.02722 12.7529 4.02722 13.4241 4.02722C14.1912 4.02722 14.1912 4.02722 14.2391 4.79431C14.2391 4.84225 14.2391 4.84225 14.2391 4.8902C14.1912 5.27374 14.1912 5.65728 14.1912 6.04082Z" fill="white"/>
<path d="M16.1567 4.17102C16.5882 4.69839 16.8759 5.03399 17.2115 5.41753C17.4512 5.70519 17.5471 6.08874 17.4512 6.47228C17.4033 6.80788 17.3074 7.14348 17.3074 7.47908C17.3074 7.81468 17.0677 8.05439 16.7321 8.10234C16.3485 8.15028 16.0608 8.00645 15.8691 7.62291C15.7732 7.38319 15.7732 7.19142 15.7732 6.95171C15.7732 6.08874 15.965 5.17782 16.1567 4.17102Z" fill="#FFFEFD"/>
<path d="M22.677 46.3608C22.8688 46.3608 22.9647 46.3608 23.0126 46.4088C23.3003 46.5526 23.7317 46.5526 23.7317 46.8882C23.7797 47.3197 23.54 47.7032 23.3003 48.0388C23.1085 48.2786 22.7249 48.1347 22.677 47.7512C22.677 47.3197 22.677 46.8403 22.677 46.3608Z" fill="#E9CB9E"/>
<path d="M4.74637 16.8279C4.69843 16.8279 4.65048 16.8279 4.5546 16.8279C4.31488 16.78 4.07517 16.732 4.02723 16.4923C3.93134 16.1567 4.219 16.0608 4.45871 15.917C4.5546 15.8691 4.60254 15.8211 4.69843 15.8211C4.93814 15.7252 5.2258 15.5335 5.41757 15.7252C5.65729 15.917 5.5614 16.2526 5.51346 16.5403C5.36963 16.8279 5.08197 16.8279 4.74637 16.8279Z" fill="#FEFCF9"/>
<path d="M50.7714 21.3826C50.5797 21.862 50.4838 22.2935 49.9564 22.4373C49.6687 22.5332 49.3811 22.5811 49.2373 22.2455C49.0934 21.9099 49.429 21.7661 49.6687 21.6223C50.0043 21.4305 50.34 21.5264 50.7714 21.3826Z" fill="#E9CCA0"/>
<path d="M50.7715 19.273C50.1483 19.7525 49.573 19.6086 48.9497 19.6086C49.4771 18.9854 50.0045 18.8895 50.7715 19.273Z" fill="#EACDA2"/>
</svg>
