<svg width="61" height="65" viewBox="0 0 61 65" fill="none" xmlns="http://www.w3.org/2000/svg">
<path d="M33.351 51.7161C32.5226 52.6452 31.6941 53.3677 30.7621 53.9871C30.2443 54.2968 29.8301 54.6064 29.2087 54.8129C27.5518 55.4323 25.7914 55.9484 24.0309 56.0516C23.5131 56.0516 22.9953 56.2581 22.4775 56.2581C20.3028 56.2581 18.1281 55.8452 15.9534 55.329C14.4 54.9161 12.9502 54.5032 11.5004 53.7806C10.2578 53.1613 9.11862 52.2323 7.97949 51.4064C7.25459 50.7871 6.52969 50.1677 5.80479 49.4452C4.25143 47.7935 2.90519 46.0387 1.86961 44.0774C0.83404 42.1161 0.316253 40.0516 0.00558119 37.9871C0.109138 37.2645 0.00558119 36.6452 0.00558119 35.9226C-0.0979761 32.2065 1.24827 29.1097 3.31942 26.1161C4.5621 24.3613 6.01191 22.8129 7.66882 21.3677C8.60084 20.5419 9.63641 19.7161 10.672 18.9935C12.3289 17.7548 13.9858 16.4129 15.3321 14.8645C16.3676 13.6258 17.4032 12.3871 18.4388 11.0452C19.5779 9.6 20.717 8.15484 21.8562 6.70968C22.9953 5.36774 24.238 4.12903 25.4807 2.99355C26.9305 1.65161 28.691 0.619355 30.7621 0.206452C32.1083 0 33.5582 0 35.008 0C35.6293 0 36.3542 0.206452 36.9755 0.309677C40.0823 0.825806 42.9819 1.85806 45.4672 3.71613C47.4348 5.05806 49.2989 6.50323 50.8522 8.36129C52.5091 10.3226 54.1661 12.4903 55.3052 14.7613C55.9265 16 56.3408 17.3419 56.6514 18.6839C56.8585 19.7161 57.1692 20.7484 57.2728 21.7806C57.3763 22.7097 57.4799 23.6387 57.1692 24.671C56.9621 25.4968 56.8585 26.2194 56.5479 27.0452C55.6159 29.4194 53.9589 31.1742 51.6807 32.4129C50.7487 32.929 49.9202 33.6516 48.9882 34.271C47.9526 34.9935 46.917 35.7161 45.985 36.5419C45.5708 36.9548 45.5708 37.0581 45.985 37.3677C46.8135 37.9871 47.6419 38.5032 48.4704 39.0194C51.4736 40.8774 54.4767 42.8387 57.2728 45.1097C57.7906 45.5226 58.4119 45.9355 58.8261 46.5548C60.1724 48.2064 60.3795 50.1677 60.0688 52.129C59.7582 54.2968 58.8261 56.1548 57.5834 57.9097C55.823 60.0774 53.7518 61.9355 51.2665 63.1742C50.1273 63.7935 48.7811 64.1032 47.4348 64.1032C45.3637 64.1032 43.3961 63.4839 41.8427 62.0387C40.0823 60.3871 38.5289 58.529 36.872 56.671C35.7329 55.0194 34.5937 53.3677 33.351 51.7161Z" fill="white"/>
<path d="M40.1855 37.1613C42.878 39.2258 45.4669 41.1871 48.3665 42.9419C50.7484 44.3871 53.0266 46.0387 55.3049 47.6903C56.7547 48.8258 57.0653 50.1677 56.7547 51.8193C56.3404 53.8839 55.2013 55.6387 53.648 57.0839C52.6124 58.1161 51.4733 59.0452 50.127 59.7677C47.8487 61.0064 45.7776 60.8 43.9136 58.9419C41.014 55.9484 38.2179 52.8516 36.0432 49.3419C35.2148 48.1032 34.4899 46.8645 33.5578 45.729C33.4543 45.6258 33.3507 45.4193 33.1436 45.3161C32.7294 45.8322 32.4187 46.3484 32.2116 46.9677C31.2796 49.0322 30.0369 50.8903 27.7586 51.8193C26.6195 52.2322 25.5839 52.5419 24.3412 52.6451C21.2345 53.0581 18.3349 52.4387 15.4353 51.5097C13.4677 50.8903 11.8108 49.8581 10.2574 48.5161C8.39341 46.8645 6.73649 45.1097 5.59736 42.9419C3.94045 39.9484 3.3191 36.7484 3.94045 33.4452C4.35468 31.2774 5.49381 29.3161 6.84005 27.5613C8.70408 25.1871 10.9823 23.2258 13.3642 21.471C16.3673 19.3032 18.7491 16.6193 21.0274 13.729C23.2021 10.9419 25.2733 8.15483 27.9657 5.78063C30.1404 3.81934 32.7294 3.30321 35.5254 3.71612C40.3926 4.23225 44.5349 6.81289 47.9523 10.4258C49.7128 12.2839 51.1626 14.3484 52.1982 16.7226C53.1302 18.6839 53.5444 20.6451 53.648 22.8129C53.7515 25.4968 52.7159 27.5613 50.4377 29.0064C48.1594 30.4516 45.9847 32.1032 43.81 33.7548C42.6709 34.7871 41.4282 35.9226 40.1855 37.1613Z" fill="#9C628D"/>
<path d="M12.8466 42.7355C12.5359 42.2193 12.1217 41.8064 11.7074 41.3935C9.63628 39.329 7.97936 37.0581 6.94379 34.271C6.52956 33.3419 6.32245 32.3097 6.11533 31.3806C6.01178 31.071 6.11533 30.7613 6.32245 30.4516C7.04735 29.2129 7.87581 28.0774 8.80782 27.0451C9.94695 25.8064 11.0861 24.5677 12.4323 23.6387C16.0568 20.9548 19.2671 17.7548 22.1667 14.3484C22.3738 14.1419 22.4774 13.9355 22.7881 13.8322C22.9952 14.1419 23.0987 14.5548 23.3058 14.9677C24.6521 18.1677 26.5161 20.9548 28.6908 23.7419C30.6584 26.2193 32.9367 28.1806 35.6292 29.8322C36.0434 30.0387 36.4576 30.4516 36.9754 30.2451C37.2861 30.1419 37.5968 30.3484 37.8039 30.5548C39.1501 31.4839 40.5999 32.2064 42.2568 32.5161C42.5675 32.5161 42.8782 32.6193 42.9817 32.929C42.4639 33.5484 41.8426 34.0645 41.2213 34.6839C40.807 34.3742 40.807 34.3742 41.0141 33.6516C40.5999 33.9613 40.2892 34.1677 39.9786 34.5806C40.1857 34.8903 40.807 34.3742 40.807 34.9935C40.4964 35.3032 40.2892 35.6129 39.9786 35.9226C39.4608 36.5419 38.943 37.0581 38.011 36.9548C37.3896 36.8516 36.8719 37.2645 36.3541 37.5742C34.6971 38.6064 33.4545 40.0516 32.626 41.9097C31.9011 42.7355 30.9691 43.2516 30.1406 43.9742C28.3802 45.3161 26.7232 46.8645 24.6521 47.5871C23.6165 48 22.5809 48.3097 21.4418 48.2064C19.992 47.7935 18.5422 47.2774 17.196 46.4516C15.9533 45.6258 14.7106 44.6968 13.5715 43.7677C13.1572 43.3548 12.8466 43.1484 12.8466 42.7355Z" fill="#86D4F6"/>
<path d="M45.7778 28.6968C44.4316 28.8 43.1889 28.2839 41.9462 27.6645C40.4964 26.9419 39.1501 26.0129 37.9075 24.8774C34.8007 21.9871 31.9011 18.8903 29.7264 15.2774C28.898 13.9355 28.0695 12.4903 27.6553 10.8387C27.1375 8.36129 27.9659 6.8129 30.4513 5.57419C32.0047 4.85161 33.558 4.74839 35.215 5.05806C36.8719 5.36774 38.5288 5.67742 40.0822 6.4C43.396 7.94839 46.3992 9.90968 48.3667 13.0065C49.9201 15.4839 51.4735 17.9613 51.8877 20.8516C52.0948 21.9871 52.3019 23.1226 51.9912 24.2581C51.7841 25.2903 51.2663 26.2194 50.4379 26.9419C48.9881 28.2839 47.9525 28.6968 45.7778 28.6968Z" fill="#EF919F"/>
<path d="M43.1887 56.0516C41.7389 54.7097 40.3927 53.1613 39.2535 51.5097C38.218 50.1677 37.2859 48.8258 36.3539 47.3806C35.629 46.2452 34.697 45.2129 33.8685 44.2839C33.5579 43.871 33.4543 43.5613 33.5579 43.0452C33.8685 41.4968 34.697 40.3613 35.8361 39.329C36.3539 38.9161 36.8717 38.5032 37.4931 38.1936C38.218 37.8839 38.9429 37.8839 39.5642 38.2968C39.9784 38.6065 40.3927 38.8129 40.8069 39.1226C42.7745 40.7742 44.9492 42.2194 47.1239 43.5613C48.1595 44.1806 49.0915 44.8 50.127 45.5226C50.3342 45.6258 50.5413 45.729 50.5413 45.9355C49.8164 46.3484 49.0915 46.8645 48.3666 47.3806C47.4346 48.1032 46.6061 48.8258 45.7776 49.6516C45.5705 49.8581 45.3634 50.0645 45.3634 50.271C45.2599 50.6839 45.0527 50.8903 44.8456 51.0968C45.0527 50.9935 45.2599 50.4774 45.5705 51.0968C45.5705 51.4065 45.467 51.6129 45.2599 51.9226C44.535 53.0581 43.9136 54.1935 43.4994 55.5355C43.4994 55.8452 43.3958 55.9484 43.1887 56.0516Z" fill="#EF6C7A"/>
<path d="M42.7745 32.8258C42.3603 32.5161 41.9461 32.6193 41.5319 32.5161C39.7714 32.1032 38.218 31.1742 36.7682 30.0387C36.4575 29.5226 35.9398 29.2129 35.422 28.9032C34.0757 27.9742 32.7295 27.1484 31.6939 25.9097C30.037 24.0516 28.3801 22.2968 27.0338 20.129C25.584 17.9613 24.5485 15.5871 23.5129 13.1097C23.4093 12.8 23.3058 12.5935 23.5129 12.2839C24.2378 11.3548 25.0662 10.4258 25.7911 9.39354C25.7911 9.39354 25.8947 9.39354 25.9983 9.29031C26.1018 9.80644 26.1018 10.2193 26.2054 10.7355C26.516 12.4903 27.241 14.0387 28.173 15.4839C29.7263 18.0645 31.4868 20.3355 33.5579 22.5032C35.422 24.5677 37.3896 26.4258 39.7714 27.9742C41.1176 28.9032 42.671 29.5226 44.2243 29.8323C44.7421 29.9355 45.3635 29.8323 46.0884 30.0387C44.9492 31.1742 43.9137 32.1032 42.7745 32.8258Z" fill="#EF6C7A"/>
<path d="M28.4837 49.4452C28.0695 49.9613 27.5517 50.271 26.9303 50.4774C25.7912 50.8903 24.7556 51.0968 23.5129 51.2C20.0956 51.5097 16.8853 50.7871 13.7786 49.2387C11.1896 47.8968 9.11848 45.8323 7.35801 43.4581C6.01176 41.7032 5.1833 39.7419 4.87263 37.471C4.66552 36.0258 4.56196 34.5806 4.97619 33.1355C4.97619 32.7226 5.1833 32.4129 5.49398 32C6.63311 36.4387 8.91137 40.1548 12.4323 42.9419C12.5359 43.0452 12.743 43.0452 12.9501 43.2516C13.0537 43.2516 13.0537 43.3548 13.1572 43.3548L13.2608 43.4581C14.0892 44.2839 15.1248 44.9032 16.0568 45.6258C16.1604 45.6258 16.1604 45.729 16.2639 45.729C16.3675 45.8323 16.4711 45.8323 16.6782 45.9355C16.7817 46.0387 16.9888 46.0387 17.0924 46.1419C17.9209 46.7613 18.8529 47.2774 19.7849 47.5871C19.8884 47.6903 20.0956 47.6903 20.1991 47.7935C20.3027 47.7935 20.3027 47.8968 20.4062 47.8968C20.5098 48 20.6133 48 20.8205 48C20.924 48 20.924 48 21.0276 48.1032C21.1311 48.1032 21.3382 48.2065 21.4418 48.2065C21.5454 48.2065 21.5454 48.2064 21.6489 48.3097C21.7525 48.3097 21.9596 48.4129 22.0631 48.4129C22.1667 48.4129 22.1667 48.4129 22.2703 48.5161C22.4774 48.6194 22.5809 48.6194 22.788 48.6194C22.8916 48.6194 22.8916 48.6194 22.9952 48.6194C23.2023 48.7226 23.5129 48.7226 23.7201 48.7226C23.8236 48.7226 23.8236 48.7226 23.9272 48.7226C24.1343 48.8258 24.3414 48.8258 24.5485 48.929C24.8592 49.0323 25.2734 49.0323 25.5841 49.0323C26.309 49.0323 27.0339 49.0323 27.8624 49.0323C27.8624 49.1355 28.2766 49.1355 28.4837 49.4452Z" fill="#EF6C7A"/>
<path d="M46.9168 56.5677C47.0204 56.3613 47.0204 56.2581 47.1239 56.0516C48.263 54.6064 49.0915 52.9548 50.3342 51.6129C51.1626 50.6839 52.1982 50.0645 53.3373 49.5484C54.7871 48.8258 55.4085 49.3419 55.3049 50.8903C55.2014 52.2322 54.58 53.471 53.8551 54.6064C52.6124 56.2581 51.0591 57.7032 49.1951 58.6322C48.3666 59.0452 47.5381 59.4581 46.5026 59.0452C46.1919 58.7355 46.2955 58.2193 46.1919 57.9097C46.2955 57.2903 46.5026 56.8774 46.9168 56.5677Z" fill="#8AB9E3"/>
<path d="M46.399 57.8064C46.7097 58.2194 46.5026 58.6323 46.6061 59.0452C46.0883 59.0452 45.7777 58.7355 45.3634 58.4258C44.535 57.7032 43.8101 56.9806 43.1887 56.0516C43.3958 54.5032 44.1207 53.2645 44.9492 52.0258C45.1563 51.7161 45.3634 51.5097 45.3634 51.0968C45.3634 50.7871 45.5705 50.5806 45.7777 50.3742C47.2275 48.929 48.7808 47.6903 50.5413 46.6581C51.0591 46.3484 51.4733 46.3484 51.8875 46.7613C52.4053 47.1742 52.9231 47.4839 53.5445 48C52.6124 48.5161 51.784 48.929 51.0591 49.5484C49.5057 50.8903 48.263 52.5419 47.331 54.4C47.0203 55.0194 46.7097 55.7419 46.6061 56.5677C46.7097 56.9806 46.399 57.3935 46.399 57.8064C46.2954 58.0129 46.2954 57.8064 46.2954 58.0129C46.399 57.9097 46.399 57.8064 46.399 57.8064Z" fill="#86D4F6"/>
<path d="M21.3381 47.7935C22.4773 47.7935 23.5128 47.4839 24.652 47.071C26.7231 46.2451 28.2765 44.6968 30.0369 43.4581C30.8654 42.8387 31.5903 42.1161 32.6259 41.7032C32.4188 42.1161 32.5223 42.6322 32.3152 43.1484C31.5903 45.1097 30.3476 46.7613 29.2085 48.4129C28.8978 48.8258 28.5871 49.2387 27.9658 49.1355C26.1018 48.929 24.2377 48.929 22.3737 48.4129C21.9595 48.3097 21.4417 48.4129 21.3381 47.7935Z" fill="#8AB9E3"/>
<path d="M27.9659 49.0323C28.3801 48.929 28.6908 48.7226 28.8979 48.3097C29.8299 46.8645 30.7619 45.5226 31.5904 43.9742C31.7975 43.6645 31.901 43.3548 32.2117 43.0452C32.2117 43.2516 32.2117 43.3548 32.2117 43.5613C32.4188 44.5936 31.901 45.3161 31.2797 46.0387C30.7619 46.6581 30.1406 47.3806 29.6228 48.1032C29.3121 48.6194 28.8979 49.1355 28.2765 49.3419C28.0694 49.2387 27.7588 49.3419 27.5516 49.2387C27.5516 49.1355 27.4481 49.1355 27.5516 49.0323C27.7588 48.929 27.8623 48.929 27.9659 49.0323Z" fill="#87D1F3"/>
<path d="M16.7816 46.2452C16.678 46.2452 16.4709 46.2452 16.4709 46.0387C16.3673 45.9355 16.2638 45.9355 16.1602 45.8323C15.1247 45.0065 14.0891 44.1806 12.95 43.3548C12.8464 43.2516 12.8464 43.2516 12.6393 43.1484C12.5357 43.0452 12.4322 42.9419 12.3286 42.8387C12.5357 42.8387 12.6393 42.7355 12.7428 42.6323C14.0891 43.871 15.6424 44.9032 17.0922 46.0387C17.0922 46.2452 16.9887 46.2452 16.7816 46.2452Z" fill="#9C6F98"/>
<path d="M40.7035 34.8903C40.3929 34.4774 40.0822 34.8903 39.8751 34.8903C39.668 34.8903 39.4608 34.9936 39.4608 34.7871C39.3573 34.5806 39.5644 34.4774 39.668 34.3742C40.1857 33.8581 40.7035 33.3419 41.3249 33.0323C41.4284 33.4452 41.2213 33.6516 41.1178 33.9613C41.0142 34.1677 40.9106 34.3742 41.2213 34.5806C40.9106 34.7871 40.8071 34.8903 40.7035 34.8903Z" fill="#89BBE5"/>
<path d="M45.7776 50.4774C45.7776 50.7871 45.5705 50.9935 45.3634 51.2C45.1563 51.0968 45.1563 51.2 45.0527 51.3032C44.8456 51.5097 44.8456 51.8193 44.4314 51.9226C44.535 51.3032 44.9492 50.8903 45.3634 50.5806C45.467 50.6839 45.6741 50.4774 45.7776 50.4774Z" fill="#AE6489"/>
<path d="M46.3992 57.8065C46.3992 58.0129 46.5027 58.1161 46.2956 58.4258C46.1921 57.7032 46.3992 57.1871 46.6063 56.5677C46.7098 56.5677 46.8134 56.5677 46.917 56.5677C46.8134 56.9807 46.6063 57.3936 46.3992 57.8065Z" fill="#91A4CA"/>
<path d="M21.9595 17.4452C22.2702 18.7871 22.4773 19.9226 21.8559 20.9548C21.7524 21.0581 21.6488 21.2645 21.5453 21.3677C20.5097 22.1935 19.6812 23.2258 18.6457 24.1548C17.8172 24.8774 16.9887 25.4968 16.1603 26.1161C15.2283 26.8387 14.2962 27.5613 13.3642 28.3871C13.0536 28.6968 12.7429 28.8 12.3287 28.6968C12.1215 28.5935 11.6038 27.6645 11.6038 27.4581C11.6038 27.2516 11.7073 27.2516 11.9144 27.1484C12.95 26.3226 13.9856 25.2903 15.0212 24.4645C16.5745 23.1226 18.0243 21.5742 19.6812 20.2323C20.4061 19.7161 20.9239 18.8903 21.4417 18.1677C21.6488 18.0645 21.7524 17.7548 21.9595 17.4452Z" fill="#C6E3F1"/>
<path d="M16.7817 46.2451C16.8853 46.1419 16.9889 46.0387 17.0924 46.0387C18.4387 46.7613 19.8885 47.3806 21.3383 47.7935C22.1667 48.2064 23.2023 48.3097 24.1343 48.5161C25.2734 48.7226 26.4126 48.8258 27.5517 48.8258C27.6553 48.8258 27.8624 48.8258 27.9659 49.0322C27.8624 49.0322 27.7588 49.0322 27.6553 49.1355C26.8268 49.2387 26.1019 49.1355 25.2734 49.2387C24.9628 49.2387 24.6521 49.2387 24.3414 49.2387C24.1343 49.0322 23.8236 49.1355 23.513 49.0322H23.4094H23.3058C22.9952 48.8258 22.6845 49.0322 22.3738 48.8258C22.1667 48.6193 21.856 48.8258 21.6489 48.6193C21.5454 48.4129 21.2347 48.6193 21.1311 48.4129C20.924 48.2064 20.6134 48.4129 20.4062 48.2064C20.3027 48 19.992 48.2064 19.8885 48C19.7849 47.8968 19.5778 47.8968 19.4742 47.7935C18.6458 47.5871 17.7138 46.9677 16.7817 46.2451Z" fill="#9D6690"/>
<path d="M22.5809 31.1742C22.4773 31.6903 22.4773 32.1032 22.3738 32.5161C22.2702 33.0323 21.9596 33.2387 21.5453 33.3419C21.1311 33.4452 20.6133 33.8581 20.4062 33.5484C20.0955 33.2387 20.7169 32.8258 21.0275 32.5161C21.3382 32 21.7524 31.3806 22.5809 31.1742Z" fill="#89BAE4"/>
<path d="M30.037 35.7161C29.6227 36.4387 28.8978 36.8516 28.0694 37.1613C27.9658 37.1613 27.8623 37.2645 27.7587 37.1613C27.6552 37.0581 27.7587 36.9548 27.8623 36.8516C28.1729 36.5419 28.5872 36.129 28.8978 35.8194C29.2085 35.4065 29.6227 35.5097 30.037 35.7161Z" fill="#89BBE4"/>
<path d="M19.8884 41.9097C20.0955 41.2903 21.3382 39.9484 22.1667 39.4323C21.5453 40.4645 20.8204 41.2903 19.8884 41.9097Z" fill="#89BCE6"/>
<path d="M15.1246 37.5742C14.6069 37.9871 14.0891 37.6774 13.5713 37.9871C13.6748 37.3677 13.9855 37.0581 14.3997 36.9548C14.814 36.9548 15.0211 37.2645 15.1246 37.5742Z" fill="#89BBE5"/>
<path d="M11.3967 29.4194C11.2931 29.729 11.2931 29.9355 10.8789 30.0387C10.6718 30.0387 10.3611 30.0387 10.3611 29.729C10.3611 29.4194 10.3611 29.1097 10.7753 29.1097C10.9824 29.1097 11.2931 29.1097 11.3967 29.4194Z" fill="#C1E2F1"/>
<path d="M9.63624 31.6903C9.63624 31.8968 9.53268 32.1032 9.22201 32.1032C9.11845 32.1032 9.01489 32 9.01489 31.8968C9.01489 31.6903 9.11845 31.3806 9.42912 31.3806C9.53268 31.3806 9.63624 31.4839 9.63624 31.6903Z" fill="#BDE1F2"/>
<path d="M34.3865 10.8387C34.49 10.1161 34.5936 9.39354 34.8007 8.56773C34.9043 8.15483 35.2149 7.94838 35.7327 8.0516C36.4576 8.15483 37.1825 8.25806 37.9074 8.56773C38.7359 8.98064 39.5643 9.29031 40.2892 9.59999C41.6355 10.2193 42.5675 11.1484 43.4995 12.1806C43.7066 12.3871 43.7066 12.5935 43.6031 12.8C43.2924 13.729 42.6711 14.4516 42.1533 15.2774C41.9461 15.5871 41.739 15.4839 41.5319 15.2774C40.0821 14.0387 38.4252 13.4193 36.8718 12.3871C36.3541 12.0774 35.8363 11.9742 35.2149 11.7677C34.5936 11.7677 34.3865 11.4581 34.3865 10.8387Z" fill="#F3C690"/>
<path d="M32.1082 7.94839C32.3153 8.05162 32.4189 8.15485 32.5224 8.25807C33.1438 8.87743 33.1438 9.18711 32.5224 9.80646C32.2118 10.1161 32.1082 10.1161 31.9011 9.70323C31.5904 9.1871 31.694 8.7742 32.1082 7.94839Z" fill="#F3C392"/>
<path d="M44.1208 16.1032C44.328 15.3806 44.7422 14.9677 45.1564 14.6581C45.4671 14.3484 45.6742 14.658 45.8813 14.8645C46.0884 15.1742 45.7778 15.2774 45.6742 15.3806C45.26 15.5871 44.8457 15.7935 44.1208 16.1032Z" fill="#F3C293"/>
<path d="M46.7098 45.4194C46.7098 45.6258 46.6063 45.729 46.5027 45.8323C46.0885 46.2452 45.6743 46.6581 45.1565 47.1742C44.8458 47.4839 44.5351 47.4839 44.2245 47.1742C43.7067 46.6581 43.2924 46.0387 42.6711 45.6258C41.6355 44.9032 40.8071 43.871 39.7715 43.0452C39.3573 42.7355 39.0466 42.3226 38.7359 41.9097C38.5288 41.4968 38.4252 41.0839 38.8395 40.671C38.943 40.5678 39.1501 40.3613 39.2537 40.1548C39.4608 39.9484 39.5644 39.8452 39.875 40.0516C40.4964 40.3613 41.0142 40.671 41.532 41.1871C42.3604 42.0129 43.396 42.6323 44.328 43.3548C45.0529 43.9742 45.7778 44.4903 46.5027 45.1097C46.6063 45.1097 46.7098 45.2129 46.7098 45.4194Z" fill="#F7B969"/>
<path d="M46.917 46.9677C46.7098 47.1742 46.6063 47.4839 46.3992 47.6903C46.3992 47.3806 46.5027 47.071 46.917 46.9677Z" fill="#F18A76"/>
<path d="M12.95 43.4581C13.3642 43.4581 13.5713 43.7677 13.7784 43.9742C14.5033 44.5936 15.4353 45.1097 16.0567 45.9355C14.9175 45.3161 13.882 44.4903 12.95 43.4581Z" fill="#A8A4C1"/>
<path d="M25.2734 49.1355C26.1019 49.1355 26.9304 49.1355 27.7588 49.1355C27.7588 49.2387 27.7588 49.2387 27.7588 49.3419C26.9304 49.3419 26.1019 49.342 25.377 49.2387C25.2734 49.1355 25.2734 49.1355 25.2734 49.1355Z" fill="#A197B9"/>
<path d="M25.2734 49.1355V49.2387C24.9627 49.2387 24.5485 49.3419 24.2378 49.1355C24.3414 49.0323 24.3414 49.0323 24.4449 49.1355C24.652 49.0323 24.9627 49.0323 25.2734 49.1355Z" fill="#DBB1BC"/>
<path d="M22.5808 48.7226C22.8915 48.7226 23.2022 48.6193 23.5128 48.929C23.2022 48.8258 22.8915 49.0322 22.5808 48.7226Z" fill="#B687A3"/>
<path d="M24.3414 49.0323C24.2378 49.0323 24.2378 49.0323 24.1342 49.0323C23.9271 49.0323 23.72 49.0323 23.6165 48.8258C23.9271 48.929 24.1342 48.8258 24.3414 49.0323Z" fill="#B68FAB"/>
<path d="M21.856 48.5161C22.0631 48.5161 22.3737 48.4129 22.5809 48.7226C22.3737 48.7226 22.0631 48.7226 21.856 48.5161Z" fill="#B687A3"/>
<path d="M20.7168 48.2065C20.9239 48.2065 21.2346 48.1032 21.4417 48.4129C21.131 48.4129 20.8204 48.4129 20.7168 48.2065Z" fill="#B281A1"/>
<path d="M21.3381 48.4129C21.5452 48.4129 21.7524 48.4129 21.8559 48.6193C21.7524 48.5161 21.5452 48.5161 21.3381 48.4129Z" fill="#B687A3"/>
<path d="M20.199 48C20.4061 48 20.6132 48 20.7168 48.2065C20.5096 48.2065 20.3025 48.2065 20.199 48Z" fill="#B281A1"/>
<path d="M19.7849 47.7935C19.992 47.7935 20.0956 47.7935 20.1991 48C19.992 48 19.8885 48 19.7849 47.7935Z" fill="#B281A1"/>
<path d="M16.1604 45.9355C16.264 45.9355 16.4711 45.9355 16.4711 46.1419C16.3675 46.0387 16.1604 46.0387 16.1604 45.9355Z" fill="#A8A4C1"/>
<path d="M12.7429 43.2516C12.8465 43.2516 12.95 43.3548 13.0536 43.4581C12.8465 43.4581 12.8465 43.3548 12.7429 43.2516Z" fill="#AAAAC6"/>
</svg>
