<svg width="116" height="113" viewBox="0 0 116 113" fill="none" xmlns="http://www.w3.org/2000/svg">
<path d="M58.7756 0.0515293C65.9331 0.0515293 74.7265 -0.154588 83.5199 0.257647C87.6099 0.463764 91.6998 0.669881 95.5853 1.49435C99.6752 2.31882 102.743 4.37999 103.561 8.70846C103.97 10.5635 104.788 11.388 106.628 11.8002C109.082 12.4186 110.718 14.2736 111.741 16.747C112.968 20.0449 113.786 23.5489 114.195 27.259C114.808 33.4425 115.217 39.6261 115.422 45.8096C115.831 54.6726 116.24 63.5357 115.831 72.1926C115.422 80.6434 115.217 88.8881 114.195 97.3389C114.195 98.1634 113.99 99.194 113.786 100.018C112.354 106.202 108.469 109.088 102.129 110.118C98.2438 110.737 94.5628 110.737 90.6773 111.149C84.9514 111.561 79.0209 111.973 73.295 111.973C66.9556 111.767 60.4116 112.798 54.0722 112.798C46.7103 112.798 39.3483 112.179 32.1909 110.943C29.5324 110.324 26.6694 110.324 24.011 109.706C22.9885 109.5 21.966 109.294 21.148 108.881C17.876 107.645 15.4221 105.584 13.9906 102.286C13.7861 101.667 13.5816 101.255 13.3771 100.637C12.7636 99.6062 12.3546 98.9879 11.5366 98.7817C8.26463 97.545 6.21965 95.2777 4.78816 91.9799C3.35667 88.2697 2.74318 84.5596 2.12969 80.6434C1.51619 75.9027 0.902698 71.162 0.493702 66.4213C0.289204 63.3296 0.289204 60.2378 0.289204 57.146C0.0847059 50.5503 -0.119792 43.7484 0.0847059 37.1526C0.289204 30.9691 0.6982 24.7856 1.72069 18.6021C2.12969 15.5103 3.15218 12.8308 4.37916 10.3574C5.40165 8.09011 7.03764 6.44117 9.28712 5.20446C13.3771 2.73105 17.876 1.70047 22.5795 1.28823C34.0314 -0.154588 45.4833 0.257647 58.7756 0.0515293Z" fill="#F1A355"/>
<path d="M56.7006 2.85493C63.4491 2.85493 70.402 2.85493 77.1504 2.85493C81.8539 2.85493 86.3529 3.06104 91.0563 3.88551C92.4878 4.09163 94.1238 4.29775 95.3508 4.9161C96.9867 5.53445 98.2137 6.56504 98.8272 8.21398C100.054 11.5119 100.668 14.8097 101.077 18.1076C101.69 24.2911 102.099 30.4747 102.304 36.6582C102.713 45.3151 103.122 54.1782 102.713 62.8351C102.304 71.0798 102.099 79.5306 101.077 87.7753C100.872 90.0426 100.259 92.516 98.8272 94.371C96.7823 97.0506 93.9193 98.0812 90.6473 98.6995C86.9663 99.3179 83.2854 99.3179 79.3999 99.7301C73.4695 100.142 67.7435 100.555 61.8131 100.555C57.5186 100.555 53.4287 100.967 49.1342 101.173C39.7273 101.585 30.3204 101.173 20.9135 99.3179C18.255 98.6995 15.392 98.6995 12.7336 98.0812C11.7111 97.6689 10.2796 97.2567 9.25709 96.6383C7.62111 95.8139 6.39412 94.5772 5.37163 92.7221C3.94014 89.8365 3.12215 86.9508 2.71315 83.8591C2.09966 78.9122 1.28167 74.1715 0.872669 69.2247C0.463673 65.7207 0.463673 62.2167 0.463673 58.7127C0.259175 50.2619 0.054677 41.8111 0.463673 33.3603C0.668171 28.2074 1.07717 22.8483 2.09966 17.6954C2.50865 15.8403 3.12215 13.9853 3.94014 12.3363C4.96263 9.86292 6.80311 8.21398 9.25709 6.97727C12.5291 4.9161 16.4145 4.29775 20.3 3.88551C32.3654 2.44269 44.6353 2.85493 56.7006 2.85493Z" fill="#F9D62A"/>
<path d="M61.0757 95.6665C57.1902 95.6665 53.7137 95.6665 50.0328 95.6665C48.3968 95.6665 48.1923 95.4604 47.9878 93.8115C47.9878 92.987 47.9878 92.1625 47.9878 91.5442C47.9878 90.5136 48.1923 90.3075 49.2148 90.1013C49.6238 90.1013 49.8283 90.1013 50.2373 90.1013C53.3047 90.1013 56.1677 90.1013 59.2352 90.1013C61.0757 90.1013 62.7117 89.6891 64.5521 89.6891C67.2106 89.483 69.6646 88.8646 72.3231 88.6585C74.9815 88.4524 77.64 87.8341 80.2985 86.8035C80.912 86.5973 81.73 86.3912 82.3435 86.1851C84.7974 85.7729 86.4334 84.1239 87.4559 81.8566C88.2739 80.0016 88.6829 78.1465 89.0919 76.2915C89.5009 73.4058 90.3189 70.7263 90.5234 67.8407C90.7279 66.1917 91.1369 64.7489 90.9324 63.1C90.9324 58.5654 91.5459 54.2369 91.3414 49.9085C91.3414 49.4962 91.3414 49.2901 91.3414 48.8779C91.3414 48.4656 91.5459 48.2595 92.1594 48.2595C93.5909 48.2595 95.0224 48.2595 96.2493 48.2595C96.8628 48.2595 97.2718 48.6718 97.2718 49.2901C97.2718 49.7023 97.2718 50.1146 97.2718 50.7329C97.0673 55.2675 97.2718 59.8021 97.6808 64.1306C97.8853 66.8101 97.4763 69.2835 97.2718 71.7569C97.0673 73.4058 97.2718 74.8487 97.2718 76.4976C97.0673 80.8261 96.2493 84.7423 94.4089 88.6585C93.7954 90.1013 92.7729 90.9258 91.5459 91.5442C88.4784 92.987 85.4109 94.0176 82.139 94.4298C80.094 94.6359 77.8445 94.842 75.7995 95.2543C70.8916 96.0787 65.7791 95.6665 61.0757 95.6665Z" fill="#FFE88C"/>
<path d="M25.6977 12.8074C25.6977 13.6318 25.6977 14.4563 25.6977 15.2808C25.6977 16.9297 25.0842 17.5481 23.6527 17.342C21.4033 17.342 19.3583 17.7542 17.5178 18.7848C14.2458 20.6398 11.9964 23.1132 11.5874 27.0295C11.3829 28.0601 11.1784 28.4723 10.1559 28.4723C9.13339 28.4723 8.1109 28.4723 7.08841 28.8845C6.47491 29.0906 6.06592 28.8845 6.06592 28.0601V27.8539C6.27042 25.3805 6.27042 22.9071 6.47491 20.4337C6.67941 17.9603 7.9064 16.1053 9.54238 14.2502C9.74688 13.838 10.1559 13.4257 10.5649 13.2196C13.4278 11.7768 16.0863 9.92173 19.1538 9.50949C20.9943 9.30338 22.6303 8.47891 24.4707 8.68503C25.6977 8.89114 25.6977 8.89114 25.6977 9.92173C25.6977 10.7462 25.6977 11.7768 25.6977 12.8074Z" fill="white"/>
<path d="M29.583 9.09729C30.401 10.1279 31.0145 10.7462 31.628 11.5707C32.037 12.1891 32.2415 12.8074 32.037 13.4258C31.8325 14.0441 31.8325 14.6625 31.628 15.4869C31.628 16.3114 31.219 16.7236 30.401 16.7236C29.583 16.7236 29.174 16.3114 28.765 15.693C28.5605 15.0747 28.5605 14.2502 28.5605 13.6319C28.9695 12.1891 29.174 10.7462 29.583 9.09729Z" fill="#FFFEFD"/>
</svg>
