<svg width="113" height="109" viewBox="0 0 113 109" fill="none" xmlns="http://www.w3.org/2000/svg">
<g clip-path="url(#clip0)">
<path d="M55.2802 0.0901657C63.9517 0.0901657 72.6231 -0.180979 81.2946 0.180547C85.269 0.36131 89.2434 0.632454 93.1275 1.35551C97.1019 2.07856 99.9924 4.06695 100.986 8.22449C101.438 10.0321 102.251 11.0263 104.148 11.4782C106.586 12.0205 108.122 13.8281 109.025 16.0877C110.29 19.3414 111.012 22.6855 111.374 26.2104C112.006 32.1756 112.367 38.1407 112.548 44.1059C112.819 52.6922 113.271 61.2784 112.909 69.8646C112.548 77.999 112.277 86.0429 111.374 94.0869C111.283 94.9907 111.103 95.8041 110.922 96.6175C109.477 102.583 105.593 105.385 99.6311 106.379C95.8374 107.011 92.0436 107.102 88.2498 107.283C82.6495 107.644 77.0492 108.186 71.4489 108.096C65.2163 108.006 58.9836 108.909 52.751 108.819C45.5248 108.729 38.3889 108.277 31.3434 106.921C28.6335 106.379 25.8334 106.288 23.1235 105.656C22.0396 105.385 21.046 105.113 19.9621 104.752C16.8909 103.667 14.6327 101.589 13.4585 98.6059C13.1875 97.9733 12.9165 97.431 12.7358 96.7983C12.4649 96.1656 12.1035 95.7137 11.4712 95.4426C8.03879 94.2676 5.96126 91.8273 4.60634 88.4832C3.1611 85.0487 2.61913 81.3431 2.16749 77.7278C1.44487 73.3895 0.812575 68.7801 0.541592 64.1706C0.360936 61.188 0.360936 58.2054 0.270608 55.2228C0.180281 49.7999 -0.0907026 44.4674 -0.000374842 39.0446C0.0899529 31.9044 0.631919 24.8547 1.62552 17.7145C1.98684 14.9127 2.89011 12.2917 4.1547 9.85136C5.23863 7.77259 6.77421 6.05534 8.76142 4.88038C11.9229 2.98237 15.265 1.80741 18.8781 1.35551C25.2011 0.632454 31.6143 0.0901657 38.0276 0.0901657C43.8086 -0.000215774 49.5896 0.0901657 55.2802 0.0901657Z" fill="#7F5B2D"/>
<path d="M57.539 2.34985C63.5909 2.34985 70.1849 2.34985 76.6885 2.34985C81.3855 2.34985 85.9922 2.621 90.6893 3.25367C92.1345 3.43443 93.5797 3.70557 94.9347 4.24786C96.5606 4.88053 97.6445 5.87473 98.2768 7.59198C99.451 10.7553 100.174 13.9187 100.445 17.2628C101.077 23.228 101.438 29.1931 101.619 35.1583C101.89 43.4734 102.342 51.7885 101.98 60.1036C101.619 68.2379 101.348 76.3722 100.445 84.5066C100.174 86.7661 99.6317 89.0257 98.1864 90.9237C96.1992 93.5447 93.3991 94.5389 90.3279 95.0812C86.8052 95.7139 83.192 95.7139 79.5789 95.985C73.8883 96.3465 68.1976 96.8888 62.507 96.7984C58.3519 96.7081 54.1065 97.2504 49.9514 97.4311C40.738 97.7926 31.6149 97.5215 22.4918 95.7139C19.8723 95.1716 17.0721 95.0812 14.4526 94.5389C13.1881 94.2678 11.9235 93.8159 10.7492 93.2736C9.1233 92.4601 7.85872 91.1948 7.04577 89.5679C5.69085 86.9469 4.8779 84.1451 4.51659 81.1625C3.8843 76.4626 3.252 71.7628 2.80036 67.063C2.43905 63.6285 2.34872 60.1036 2.34872 56.6691C2.16807 48.4444 1.89709 40.2197 2.34872 31.995C2.61971 26.9336 2.89069 21.8722 3.8843 16.9013C4.24561 15.0936 4.8779 13.3764 5.69085 11.6591C6.77478 9.30922 8.49101 7.59198 10.8395 6.41702C14.272 4.60939 17.9754 3.88634 21.7692 3.43443C33.5118 2.07871 45.3447 2.44023 57.539 2.34985Z" fill="#F8E8CE"/>
<path d="M79.4884 55.7653C79.3981 60.0132 79.0368 64.2611 78.4045 68.4187C78.3142 69.1417 78.1335 69.9552 77.8625 70.6782C77.0496 73.3897 75.1527 74.9262 72.4428 75.5588C71.2686 75.83 70.0943 76.0107 68.9201 75.9204C65.7586 75.7396 62.5068 76.0107 59.3453 76.0107C56.2742 76.0107 53.203 76.3723 50.0416 76.4626C44.2606 76.7338 38.5699 76.0107 32.9696 75.0165C29.3565 74.3839 27.4596 72.3051 26.737 68.5995C25.8337 63.8092 25.4724 59.019 25.1111 54.2288C24.8401 50.6136 24.9305 46.9983 25.4724 43.2927C25.9241 40.3101 27.55 38.3217 30.3501 37.4179C31.0727 37.1467 31.2534 36.8756 31.2534 36.1525C31.7954 30.6393 33.6922 25.5779 37.0344 21.1492C38.8409 18.7993 41.1894 17.1724 43.8993 16.0878C45.8865 15.2744 47.8737 14.6417 49.9512 14.3706C56.6355 13.286 62.1455 15.2744 66.6619 20.2454C70.4556 24.4029 72.1719 29.2835 72.0815 34.8872C72.0815 36.4237 72.0815 36.4237 73.4365 36.966C76.1463 37.9602 77.8625 39.8582 78.5851 42.66C79.2174 45.2811 79.5787 47.9925 79.3981 50.7039C79.3078 52.3308 79.4884 54.048 79.4884 55.7653Z" fill="#7F5B2D"/>
<path d="M60.7003 91.8276C57.2679 91.8276 53.8354 91.8276 50.403 91.8276C48.8674 91.8276 48.6868 91.5564 48.5964 90.0199C48.5964 89.3873 48.5964 88.845 48.5964 88.2123C48.5964 86.4951 48.7771 86.3143 50.5836 86.3143C53.2935 86.3143 56.0033 86.2239 58.7131 86.3143C62.4166 86.4047 66.0297 85.772 69.6428 85.1393C71.088 84.8682 72.5333 85.1393 73.9785 84.6874C76.2367 84.0548 78.6756 83.874 80.8434 82.8798C81.4757 82.6087 82.108 82.6087 82.7403 82.4279C84.9082 81.8856 86.0824 80.4395 87.0761 78.5415C87.889 76.9146 88.2503 75.1974 88.5213 73.3897C88.9729 70.6783 89.6956 67.9669 89.9665 65.2554C90.2375 62.6344 90.5988 60.1037 90.5988 57.4826C90.5988 53.9577 91.0505 50.4329 90.9601 46.908C90.8698 45.8234 91.0505 45.733 92.2247 45.733C93.2183 45.733 94.3023 45.733 95.2959 45.733C96.6508 45.733 96.8314 45.9138 96.8314 47.2695C96.8314 49.8002 96.7411 52.2405 96.8314 54.7712C97.0121 57.3922 97.0121 59.9229 97.3734 62.544C97.4637 62.9055 97.4637 63.267 97.3734 63.7189C96.9218 67.063 96.9218 70.4072 96.7411 73.7513C96.4701 77.7281 95.5669 81.7048 93.67 85.3201C93.0377 86.5854 91.9537 87.3085 90.7795 87.7604C87.9793 88.9354 85.0888 89.8392 82.108 90.3815C80.7531 90.6526 79.3079 90.4718 77.953 90.743C76.1464 91.1045 74.3398 91.2853 72.5333 91.5564C71.901 91.6468 71.359 91.7372 70.7267 91.7372C67.4749 91.8276 64.0425 91.8276 60.7003 91.8276Z" fill="#E8C99C"/>
<path d="M26.737 11.4785C26.737 12.2919 26.737 13.1053 26.737 13.9188C26.737 15.5456 26.195 16.0879 24.5691 16.0879C22.5819 15.9975 20.7754 16.3591 18.9688 17.3533C15.6267 19.1609 13.2782 21.6916 13.0072 25.6684C12.9169 26.4818 12.6459 26.8433 11.8329 26.8433C10.749 26.8433 9.66506 26.8433 8.58112 27.1145C7.76817 27.2952 7.49719 27.0241 7.49719 26.2106C7.49719 25.578 7.40686 24.9453 7.58752 24.403C7.94883 23.2281 7.8585 22.0531 7.8585 20.8781C7.76817 17.7148 9.03276 15.0937 11.02 12.7438C11.291 12.4727 11.5619 12.1111 11.8329 11.9304C14.7234 10.4843 17.4332 8.58626 20.7754 8.22474C21.9496 8.13436 23.0336 7.32092 24.2078 7.4113C24.3885 7.4113 24.6595 7.32092 24.8401 7.32092C26.5563 7.32092 26.737 7.59207 26.737 9.30931C26.737 10.0324 26.737 10.7554 26.737 11.4785Z" fill="white"/>
<path d="M30.531 7.95349C31.3439 8.85731 31.9762 9.67074 32.6085 10.4842C33.0602 11.0265 33.0602 11.7495 32.9698 12.3822C32.8795 12.9245 32.6988 13.5571 32.6988 14.0994C32.6988 14.8225 32.2472 15.2744 31.5246 15.3648C30.802 15.4551 30.1697 14.9129 29.8987 14.2802C29.718 13.5571 29.718 12.8341 29.8084 12.2014C30.0793 10.8457 29.989 9.48998 30.531 7.95349Z" fill="#FFFEFD"/>
<path d="M42.8156 87.3988C45.4351 87.9411 45.0737 88.4834 44.1705 90.3814C43.9898 90.6525 43.8092 90.9237 43.4478 90.8333C43.0865 90.7429 42.9059 90.4718 42.9059 90.1102C42.7252 89.2064 42.8156 88.393 42.8156 87.3988Z" fill="#E9CB9E"/>
<path d="M8.94256 31.7239C8.85223 31.7239 8.58125 31.7239 8.21994 31.5431C7.94896 31.4528 7.58765 31.272 7.58765 30.9105C7.58765 30.549 7.7683 30.2778 8.12961 30.097C8.4006 29.9163 8.67158 29.8259 9.03289 29.6451C9.48453 29.4644 9.93617 29.1932 10.3878 29.6451C10.7491 30.0067 10.5685 30.549 10.4781 31.0912C10.2072 31.6335 9.66518 31.7239 8.94256 31.7239Z" fill="#FEFCF9"/>
<path d="M95.5669 40.4908C95.3862 41.485 94.9346 42.2081 93.8507 42.3889C93.399 42.4792 92.9474 42.3889 92.7667 41.8466C92.5861 41.3947 92.8571 41.1235 93.2184 40.9428C93.941 40.4908 94.6636 40.4908 95.5669 40.4908Z" fill="#E9CCA0"/>
<path d="M95.928 36.3334C94.6635 37.0564 93.4892 37.0564 92.3149 36.8757C93.3989 35.7007 94.3925 35.5199 95.928 36.3334Z" fill="#EACDA3"/>
<path d="M57.3581 36.6044C55.2806 36.6948 53.2934 36.6948 51.3965 36.8756C48.1447 37.0563 44.8929 36.6948 41.6411 36.6044C40.3765 36.5141 40.3765 36.4237 40.5572 35.1583C40.7378 34.1641 40.9185 33.1699 41.1895 32.0854C42.2734 27.2952 47.0608 21.6915 53.9257 21.5107C56.4549 21.5107 58.4421 22.4146 60.1583 24.1318C62.5068 26.5721 63.5004 29.6451 64.2231 32.8988C64.4037 33.6219 64.494 34.4353 64.5844 35.1583C64.6747 35.8814 64.6747 36.2429 63.6811 36.4237C61.6035 36.6948 59.4357 36.6044 57.3581 36.6044Z" fill="#F8E8CE"/>
<path d="M53.2934 67.3341C52.2095 67.4245 51.1255 67.6053 50.0416 67.4245C48.3254 67.1534 47.6027 66.3399 48.0544 64.6227C48.6867 62.0016 49.4093 59.4709 50.2222 56.9403C50.6739 55.4942 50.6739 55.4942 49.4996 54.6807C47.4221 53.1442 46.6995 50.3424 47.6931 47.9925C48.777 45.5522 51.4868 44.3773 54.1063 45.0099C56.6355 45.6426 58.2614 47.9021 58.0808 50.4328C57.9001 52.3308 57.0872 53.7769 55.4613 54.6807C54.558 55.223 54.558 55.6749 54.9193 56.4884C55.7322 58.3864 56.5452 60.3748 57.3581 62.3631C57.7194 63.3573 58.1711 64.2612 58.1711 65.3457C58.2614 66.6111 57.7194 67.2437 56.4549 67.3341C55.3709 67.4245 54.3773 67.3341 53.2934 67.3341Z" fill="#F8E8CE"/>
</g>
<defs>
<clipPath id="clip0">
<rect width="113" height="109" fill="white"/>
</clipPath>
</defs>
</svg>
