<svg xmlns="http://www.w3.org/2000/svg" width="60" height="58" fill="none" viewBox="0 0 60 58">
  <g clip-path="url(#clip0)">
    <path fill="#7F5B2D" d="M30.37 0c3.704 0 8.254-.106 12.805.106 2.116.106 4.232.211 6.243.635 2.116.423 3.704 1.481 4.127 3.703.212.953.635 1.376 1.587 1.588 1.27.317 2.117 1.27 2.646 2.54a22.33 22.33 0 011.27 5.396c.317 3.175.529 6.35.634 9.524.212 4.55.424 9.1.212 13.545-.212 4.339-.317 8.572-.846 12.91 0 .423-.106.953-.212 1.376-.74 3.174-2.752 4.656-6.032 5.185-2.01.317-3.915.317-5.926.529-2.963.212-6.032.423-8.995.423-3.28-.105-6.666.424-9.947.424-3.81 0-7.619-.318-11.322-.953-1.376-.317-2.857-.317-4.233-.635-.53-.105-1.058-.211-1.482-.423-1.693-.635-2.963-1.693-3.703-3.386-.106-.318-.212-.53-.318-.847-.317-.529-.529-.846-.952-.952-1.693-.635-2.752-1.8-3.492-3.492-.741-1.905-1.058-3.81-1.376-5.82-.317-2.434-.635-4.868-.846-7.302C.106 32.487.106 30.9.106 29.312 0 25.926-.106 22.434 0 19.048c.106-3.175.317-6.35.846-9.524.212-1.587.741-2.963 1.376-4.233.53-1.164 1.376-2.01 2.54-2.646C6.878 1.376 9.206.848 11.64.636 17.566-.105 23.492.105 30.37 0z"/>
    <path fill="#F8E8CE" d="M30.37 1.27h10.582c2.434 0 4.762.106 7.196.529.74.106 1.587.212 2.222.529.847.318 1.482.847 1.8 1.693.634 1.693.951 3.386 1.163 5.08.318 3.174.53 6.349.635 9.523.212 4.445.423 8.995.212 13.44-.212 4.232-.318 8.57-.847 12.804-.106 1.164-.423 2.434-1.164 3.386-1.058 1.376-2.54 1.905-4.233 2.222-1.904.318-3.81.318-5.82.53-3.069.21-6.032.423-9.1.423-2.222 0-4.339.211-6.561.317-4.868.212-9.736 0-14.603-.952-1.376-.318-2.857-.318-4.233-.635-.53-.212-1.27-.424-1.8-.741-.846-.423-1.48-1.058-2.01-2.01-.74-1.482-1.164-2.964-1.375-4.55-.318-2.54-.741-4.974-.953-7.514-.211-1.799-.211-3.598-.211-5.397-.106-4.338-.212-8.677 0-13.016.105-2.645.317-5.397.846-8.042.212-.952.53-1.905.953-2.751.529-1.27 1.481-2.117 2.75-2.752C7.514 2.328 9.525 2.011 11.535 1.8c6.244-.74 12.593-.53 18.836-.53z"/>
    <path fill="#7F5B2D" d="M30.37 8.254c2.434 0 6.032.106 9.524.106h.53c.74 0 .952.317 1.057.952.106 1.693.212 3.386 0 5.08-.105.635-.211 1.27-.423 1.799-.53 1.164-1.376 1.904-2.963 2.01-1.058 0-2.116.106-3.069.106-5.608 0-11.323 0-16.93-.106-.953 0-1.906-.106-2.858-.317-1.164-.318-1.376-.635-1.376-1.694 0-1.693-.105-3.492-.211-5.185 0-.529.106-.952.211-1.375.212-.53.741-.847 1.27-.953 1.058-.317 2.117-.317 3.28-.423 3.704-.212 7.302 0 11.958 0zM29.418 21.799c3.492 0 7.09.106 10.582.106h.423c.953 0 1.058.211 1.164.952.106 1.693.212 3.386 0 5.08-.106.634-.212 1.27-.423 1.798-.53 1.165-1.482 1.8-2.963 1.905-1.693.106-3.28.106-4.974.106h-12.91c-1.375 0-2.751-.106-4.127-.212-.529-.105-1.058-.211-1.587-.423-.53-.212-.846-.635-.846-1.164 0-1.905-.106-3.704-.106-5.503 0-.529.106-.952.317-1.375.106-.53.635-.741 1.164-.847a5.993 5.993 0 011.905-.317c2.328-.212 4.762-.212 7.09-.212 1.799 0 3.492 0 5.29.106 0-.106 0-.106 0 0zM29.418 34.392c3.492 0 7.09.105 10.582.105h.423c.953 0 1.058.212 1.164.953.106 1.693.212 3.386 0 5.08-.106.634-.212 1.269-.423 1.798-.53 1.164-1.482 1.799-2.963 1.905-1.693.211-3.28.211-4.974.211h-12.91c-1.375 0-2.751-.105-4.127-.211-.529-.106-1.058-.212-1.587-.423-.53-.212-.846-.635-.846-1.165 0-1.904-.106-3.703-.106-5.502 0-.53.106-.953.317-1.376.106-.529.635-.74 1.164-.846a5.993 5.993 0 011.905-.318c2.328-.212 4.762-.212 7.09-.212a44.14 44.14 0 015.29 0z"/>
    <path fill="#E8C99C" d="M32.487 48.677h-5.715c-.846 0-.952-.106-1.058-.952V46.56c0-.53.106-.635.635-.74H31.534c.953 0 1.8-.212 2.752-.212 1.375-.106 2.645-.424 4.02-.53a14.574 14.574 0 004.128-.952c.317-.106.74-.212 1.058-.318 1.27-.211 2.116-1.058 2.645-2.222.424-.952.635-1.905.847-2.857.212-1.481.635-2.857.74-4.338.107-.847.318-1.588.212-2.434 0-2.328.318-4.55.212-6.773v-.529c0-.212.106-.317.423-.317h2.117c.317 0 .529.211.529.529v.74c-.106 2.328 0 4.657.211 6.879.106 1.375-.105 2.645-.211 3.915-.106.847 0 1.587 0 2.434-.106 2.222-.53 4.233-1.482 6.243-.317.741-.846 1.164-1.481 1.482-1.587.74-3.175 1.27-4.868 1.481-1.058.106-2.222.212-3.28.424-2.54.423-5.186.211-7.62.211z"/>
    <path fill="#fff" d="M14.18 6.138v1.27c0 .846-.318 1.163-1.059 1.058-1.164 0-2.222.211-3.174.74-1.693.953-2.857 2.223-3.069 4.233-.106.53-.212.74-.74.74-.53 0-1.059 0-1.588.213-.317.105-.529 0-.529-.424v-.106c.106-1.27.106-2.54.212-3.81.105-1.269.74-2.221 1.587-3.174.106-.211.317-.423.529-.529 1.482-.74 2.857-1.693 4.444-1.905.953-.105 1.8-.529 2.752-.423.635.106.635.106.635.635v1.482z"/>
    <path fill="#FFFEFD" d="M16.19 4.233c.424.529.741.846 1.059 1.27.211.317.317.635.211.952-.105.317-.105.635-.211 1.058 0 .423-.212.635-.635.635-.424 0-.635-.212-.847-.529-.106-.317-.106-.74-.106-1.058.212-.74.318-1.482.53-2.328z"/>
    <path fill="#E9CB9E" d="M22.751 46.35h.212c.952.422 1.058.74.423 1.587-.106.105-.212.211-.317.211-.212 0-.318-.106-.318-.317a3.497 3.497 0 010-1.482z"/>
    <path fill="#FEFCF9" d="M5.503 16.19c0 .318-.106.635-.424.635-.423.106-.74.106-1.058-.211-.106-.106-.106-.318.106-.424.212-.105.53-.317.74-.423.53-.211.741-.106.636.424z"/>
    <path fill="#EACCA0" d="M50.688 21.482c-.106.529-.318.952-.953 1.058-.211 0-.423 0-.529-.318-.106-.211 0-.423.212-.529.423-.212.846-.212 1.27-.212z"/>
    <path fill="#EACDA2" d="M48.889 19.577c.423-.53.952-.53 1.375-.635.106 0 .318.106.424.317 0 .212-.212.212-.318.318-.423.105-.846 0-1.481 0z"/>
  </g>
  <defs>
    <clipPath id="clip0">
      <path fill="#fff" d="M0 0h60v57.778H0z"/>
    </clipPath>
  </defs>
</svg>
