<svg width="61" height="57" viewBox="0 0 61 57" fill="none" xmlns="http://www.w3.org/2000/svg">
<path d="M29.6539 0.141554C34.2561 0.188739 38.8103 0.0471846 43.4124 0.188739C45.5218 0.283108 47.6311 0.424662 49.6925 0.802139C51.8497 1.2268 53.2879 2.31205 53.8632 4.48254C53.9111 4.62409 54.007 4.81283 54.007 4.95439C54.055 5.5206 54.3905 5.75653 54.9658 5.85089C56.5957 6.22837 57.6504 7.17206 58.2257 8.72916C58.8009 10.3334 59.1844 11.9849 59.3283 13.6835C59.6638 16.8449 59.8556 19.9591 59.9515 23.1205C60.0953 27.603 60.335 32.0856 60.1432 36.5681C59.9515 40.7675 59.8077 44.967 59.3283 49.1664C59.2803 49.6382 59.1845 50.0629 59.0886 50.4876C58.3215 53.6017 56.3081 55.1116 53.0482 55.6307C51.0827 55.961 49.0693 56.0082 47.1038 56.1025C44.1315 56.2913 41.1114 56.5744 38.0912 56.5272C34.7355 56.48 31.4276 56.9519 28.0719 56.9047C24.2847 56.8575 20.5454 56.6216 16.8062 55.9138C15.368 55.6307 13.8819 55.5835 12.4437 55.2532C11.9164 55.1588 11.3891 55.0173 10.8617 54.8285C9.18385 54.2151 7.98537 53.1771 7.31422 51.5256C7.21834 51.2425 7.07453 51.0066 6.97865 50.7235C6.83483 50.2988 6.59513 50.0157 6.11574 49.8742C4.48581 49.3079 3.3832 48.1755 2.71205 46.5712C2.04091 45.0613 1.6574 43.5042 1.46564 41.9C1.13007 39.1161 0.650673 36.3322 0.506856 33.5483C0.410977 31.944 0.410976 30.3869 0.363036 28.7826C0.315097 25.4797 0.123342 22.1296 0.26716 18.8267C0.363038 15.6181 0.602733 12.4096 1.08212 9.24819C1.27388 7.78546 1.80121 6.41711 2.47236 5.14313C2.99969 4.10506 3.81466 3.20856 4.86932 2.59515C6.54719 1.60428 8.36888 0.943693 10.2865 0.70777C13.7381 0.283108 17.2376 0.0471846 20.7372 0C23.7094 0.141554 26.6817 0.141554 29.6539 0.141554Z" fill="#7F5B2D"/>
<path d="M29.8936 1.36838C34.1123 1.36838 37.6598 1.3212 41.2073 1.36838C43.6042 1.36838 46.0012 1.50994 48.3502 1.84023C49.0693 1.9346 49.8363 2.07615 50.5554 2.31208C51.4662 2.64237 52.1374 3.20858 52.473 4.10509C53.0482 5.615 53.4317 7.12491 53.5756 8.72918C53.9111 11.9377 54.1029 15.1935 54.2467 18.402C54.3905 22.743 54.6302 27.084 54.4385 31.425C54.2467 35.6716 54.1029 39.9182 53.6235 44.1648C53.4797 45.3445 53.1921 46.5241 52.473 47.5149C51.4183 48.8833 49.9322 49.4023 48.3022 49.6854C46.3847 50.0157 44.4671 50.0629 42.5495 50.1573C39.5294 50.346 36.5092 50.6291 33.489 50.5819C31.2838 50.5348 29.1266 50.7707 26.9214 50.8651C22.0316 51.0538 17.1897 50.9122 12.3479 49.9685C10.9576 49.6854 9.47151 49.6383 8.08127 49.3551C7.41013 49.2136 6.78691 49.0249 6.21164 48.7417C5.25286 48.2699 4.58171 47.6093 4.10232 46.6656C3.23942 45.0142 2.8559 43.2211 2.66415 41.4281C2.42445 39.3048 2.08887 37.2287 1.89712 35.1054C1.70536 33.2652 1.65742 31.425 1.65742 29.5848C1.56154 25.291 1.41772 20.9972 1.65742 16.7034C1.80124 14.061 1.94505 11.4187 2.47238 8.82355C2.56826 8.30452 2.71208 7.83268 2.8559 7.36083C3.81468 4.10509 6.35546 2.78392 9.42357 2.17052C11.8685 1.65149 14.4092 1.60431 16.9021 1.46275C21.4084 1.22683 25.9626 1.46275 29.8936 1.36838Z" fill="#F8E8CE"/>
<path d="M19.4908 18.5436C20.6892 18.5436 21.9357 18.5436 23.1341 18.5436C23.5656 18.5436 23.6615 18.4021 23.6615 18.0246C23.7573 16.4675 23.997 14.9104 24.3326 13.4005C24.5244 12.5984 24.8599 11.8434 25.4352 11.23C25.9626 10.6166 26.6816 10.2863 27.4966 10.3807C28.6471 10.475 29.6059 10.8997 30.5647 11.6075C31.9549 12.6455 33.2493 13.7308 34.4957 14.9576C37.1324 17.5527 39.6732 20.2423 42.0222 23.0733C42.5974 23.7811 43.1248 24.5361 43.7 25.2438C44.0836 25.7629 44.0356 26.3763 43.8439 26.9425C43.3645 28.2165 42.5016 29.2545 41.6866 30.2926C41.0155 31.0947 40.2484 31.7553 39.4814 32.4631C37.5638 34.1617 35.6463 35.8132 33.6328 37.3703C32.0988 38.5499 30.4688 39.3992 28.5992 39.9183C27.3528 40.2957 26.2502 39.9183 25.1955 39.3992C24.6203 39.1161 24.4285 38.5499 24.2847 37.9837C24.045 36.9928 23.9491 35.9547 23.9012 34.9639C23.8532 34.4448 23.9012 33.9258 23.8532 33.454C23.8053 32.7934 23.7573 32.7934 23.1341 32.8406C21.4563 32.9349 19.7305 33.0293 18.0526 33.0293C16.95 33.0293 15.8474 32.9349 14.7927 32.699C13.3545 32.4159 12.4916 31.6138 12.2519 30.151C11.9643 28.358 11.9164 26.6122 11.8684 24.8192C11.8205 23.5452 11.9164 22.3184 12.1561 21.0916C12.3958 19.9592 12.971 19.2042 14.1216 18.8267C15.0324 18.5436 15.8953 18.3549 16.8062 18.3549C17.717 18.4021 18.6279 18.3549 19.5866 18.3549C19.4908 18.4492 19.4908 18.4964 19.4908 18.5436Z" fill="#7F5B2D"/>
<path d="M32.5303 48.034C30.7086 48.034 28.8869 48.034 27.0652 48.034C26.2023 48.034 26.1064 47.9396 26.0585 47.0431C26.0585 46.6656 26.0585 46.2881 26.0585 45.9578C26.0585 45.3444 26.2023 45.2029 26.8255 45.1557C26.9693 45.1557 27.1131 45.1557 27.257 45.1557C28.7431 45.1557 30.2771 45.1085 31.7632 45.1557C32.8179 45.1557 33.8246 44.967 34.8313 44.8726C36.1257 44.7782 37.3721 44.4951 38.6665 44.4007C40.1047 44.3064 41.4949 43.9761 42.8372 43.4571C43.3166 43.2683 43.796 43.2211 44.2274 43.0796C45.33 42.7965 45.9533 42.0415 46.4326 41.0978C46.8641 40.2957 47.0559 39.3992 47.1997 38.5027C47.4394 37.0399 47.8229 35.6244 48.0146 34.1617C48.2064 32.6989 48.3502 31.2362 48.3502 29.7735C48.3502 28.0277 48.5899 26.2818 48.494 24.4888C48.494 24.1113 48.6379 23.9226 49.0693 23.9226C49.6925 23.9226 50.2678 23.9226 50.891 23.9226C51.5621 23.9226 51.658 24.017 51.658 24.6776C51.658 26.0459 51.5621 27.4615 51.706 28.8298C51.8018 30.151 51.7539 31.4722 51.9936 32.7933C52.0895 33.218 51.8498 33.6426 51.8498 34.0673C51.8498 35.4357 51.658 36.7568 51.658 38.1252C51.6101 40.2957 51.0827 42.3718 50.124 44.3536C49.7884 45.0613 49.2611 45.5332 48.542 45.8163C47.0559 46.4297 45.5218 46.9015 43.9398 47.1846C43.2207 47.3262 42.4537 47.2318 41.7346 47.3734C40.7758 47.5621 39.817 47.6093 38.8582 47.798C38.4747 47.8452 38.1392 47.8924 37.7556 47.8924C35.9819 48.034 34.2561 48.034 32.5303 48.034Z" fill="#E8C99C"/>
<path d="M14.4572 6.08682C14.4572 6.55867 14.4572 7.03051 14.4572 7.54954C14.4092 8.21013 14.1695 8.44605 13.4984 8.49324C13.0669 8.54042 12.6355 8.44605 12.204 8.54042C10.2385 8.87071 7.41011 10.5222 7.17041 13.4476C7.12247 14.061 7.07453 14.1082 6.45132 14.1554C5.92399 14.1554 5.34872 14.1554 4.82139 14.2969C4.38994 14.3913 4.24612 14.2498 4.24612 13.8251C4.29406 12.5983 4.48582 11.3243 4.43788 10.0975C4.43788 10.0031 4.48582 9.95596 4.53376 9.86159C4.67757 8.72916 5.30078 7.87984 5.97193 6.98333C6.11575 6.7474 6.35545 6.51148 6.59514 6.41711C8.08126 5.70934 9.4715 4.67128 11.1973 4.52973C11.8685 4.48254 12.4437 4.10507 13.1149 4.10507C14.4572 4.05788 14.5051 4.05788 14.5051 5.33187C14.5051 5.5206 14.5051 5.80371 14.4572 6.08682C14.5051 6.08682 14.5051 6.08682 14.4572 6.08682Z" fill="white"/>
<path d="M16.4706 4.19934C16.9021 4.76556 17.2856 5.2374 17.6212 5.70925C17.8129 5.99236 17.8129 6.32265 17.7171 6.60576C17.6691 6.88886 17.5732 7.17197 17.5732 7.45508C17.5732 7.83256 17.3335 8.11566 16.95 8.16285C16.5665 8.21003 16.1351 7.92693 16.0392 7.50226C15.9912 7.36071 15.9912 7.17197 15.9912 6.98323C16.0871 6.08673 16.2309 5.2374 16.4706 4.19934Z" fill="#FFFEFD"/>
<path d="M23.0383 45.769C23.1821 45.769 23.1821 45.7218 23.23 45.769C24.1888 46.1465 24.3326 46.524 23.7094 47.3261C23.6136 47.4205 23.5177 47.562 23.3739 47.5148C23.1821 47.4677 23.0383 47.3733 23.0383 47.1846C22.9424 46.7127 22.9424 46.2409 23.0383 45.769Z" fill="#E9CB9F"/>
<path d="M5.82812 15.9956C5.82812 16.2788 5.78018 16.5147 5.49255 16.609C5.15697 16.7506 4.53376 16.609 4.342 16.3731C4.24612 16.1844 4.24612 16.0428 4.43788 15.9013C4.67758 15.7597 4.91728 15.6182 5.20491 15.5238C5.63637 15.3822 5.82812 15.5238 5.82812 15.9956Z" fill="#FEFCF9"/>
<path d="M50.9868 21.2332C50.843 21.7994 50.5554 22.1768 50.0281 22.224C49.7884 22.2712 49.5487 22.1768 49.5007 21.8937C49.4528 21.6578 49.5966 21.5163 49.7884 21.4219C50.1719 21.3747 50.5075 21.2332 50.9868 21.2332Z" fill="#EACCA0"/>
<path d="M49.261 19.2985C49.7884 18.921 50.3157 18.6379 51.0348 19.0154C50.5074 19.5816 49.8842 19.3929 49.261 19.2985Z" fill="#EACDA2"/>
<path d="M39.0979 30.5757C38.8103 31.0003 38.4747 31.3778 37.9953 31.6137C38.2829 31.1419 38.6185 30.7644 39.0979 30.5757Z" fill="#8C6940"/>
</svg>
