<svg width="66" height="61" viewBox="0 0 66 61" fill="none" xmlns="http://www.w3.org/2000/svg">
<path d="M52.4116 29.7874C53.2939 30.6706 54.1763 31.3183 55.1175 32.0249C56.9998 33.3791 58.8233 34.7334 60.5881 36.2054C62.1763 37.5007 63.5881 39.0316 64.5292 40.8569C66.1175 43.8598 66.0586 46.7449 64.2351 49.689C62.2939 52.8096 59.7645 55.3415 56.7645 57.3434C55.1763 58.4033 53.4704 59.2276 51.4704 59.3453C50.3528 59.4042 49.2351 59.2276 48.1763 58.8743C47.0586 58.521 45.941 58.05 44.941 57.4023C41.6469 55.2237 38.5881 52.8096 35.941 49.8656C34.8822 48.688 33.7057 47.5104 32.5881 46.3328C32.4704 46.1561 32.2939 45.9795 32.0586 45.9206C29.7645 48.688 27.2939 51.3376 24.8233 53.9283C23.6469 55.1648 22.4116 56.4013 21.1763 57.6378C20.3528 58.4621 19.4116 59.1687 18.3528 59.8164C16.4116 61.0529 14.3528 61.2295 12.1175 60.5818C10.0586 59.993 8.35276 58.8154 6.7057 57.4612C4.64688 55.7536 2.88217 53.7517 1.7057 51.2787C0.999817 49.689 0.588052 48.0992 0.999817 46.3328C1.23511 45.2141 1.82335 44.2131 2.47041 43.2121C5.23511 38.855 8.64688 35.0866 12.7057 31.9071C13.3528 31.4361 13.941 30.9061 14.5292 30.4351C14.4116 30.0818 14.1175 29.9641 13.941 29.7874C10.7057 27.02 7.58805 24.1349 4.52923 21.1909C3.29393 19.9544 2.29393 18.5413 1.94099 16.7749C1.64688 15.5973 1.7057 14.4197 2.23511 13.3009C2.76452 12.1233 3.52923 11.0635 4.35276 10.0625C6.41158 7.7073 8.64688 5.58761 11.1175 3.70344C12.7057 2.46696 14.4704 1.58375 16.3528 1.05383C18.2351 0.582785 19.8233 0.877187 21.2939 1.81927C23.4704 3.2324 25.4116 4.82217 27.2939 6.58858C29.4116 8.59051 31.2351 10.828 33.1175 13.0065C33.8822 13.8897 33.7645 13.9486 34.5881 13.0065C37.4116 9.76812 40.5881 6.88298 43.6469 3.88008C44.8233 2.76136 46.1175 1.70151 47.5881 0.877187C49.5292 -0.241539 51.4704 -0.300419 53.4704 0.759426C55.0586 1.58375 56.4116 2.70248 57.7645 3.8212C60.1175 5.76425 62.3528 7.76618 64.1763 10.2392C64.6469 10.828 64.9998 11.4756 65.3528 12.1822C66.1763 13.7131 66.1175 15.244 65.4116 16.7749C64.941 17.8347 64.2351 18.7768 63.4704 19.6011C60.8822 22.5451 57.941 25.1359 54.9998 27.7266C54.1763 28.3743 53.3528 29.022 52.4116 29.7874Z" fill="#9A322F"/>
<path d="M51.1176 57.3434C49.2941 57.4023 47.7647 56.7546 46.2941 55.8125C43.5294 54.0461 40.8823 52.1031 38.647 49.689C36.8823 47.8048 34.9411 46.0384 33.2941 44.0365C33.1176 43.8009 32.8823 43.6243 32.647 43.4477C32.1176 43.0944 31.7058 43.1532 31.3529 43.6832C30.2941 45.3318 28.8823 46.6861 27.5882 48.1581C25.1764 50.8666 22.7058 53.4573 20.1176 55.9892C19.2353 56.8724 18.2353 57.6378 17.1764 58.2855C16 58.9921 14.8235 59.1098 13.5294 58.8743C11.5294 58.4621 9.88231 57.4023 8.29407 56.1658C6.41172 54.6349 4.76466 52.8685 3.70584 50.6311C2.70584 48.6291 2.64701 46.6861 3.94113 44.6841C6.3529 40.9158 9.17643 37.4419 12.647 34.5567C13.9411 33.438 15.2353 32.3782 16.5294 31.2594C16.7058 31.1417 16.8823 30.965 17 30.8473C17.647 30.0818 17.5882 29.6697 16.7058 29.1986C15.8235 28.7276 15.0588 28.021 14.3529 27.3144C12.2941 25.4892 10.1764 23.6639 8.23525 21.6619C7.3529 20.7199 6.23525 20.0133 5.47054 18.9534C5.05878 18.3646 4.64701 17.7758 4.3529 17.1282C3.88231 15.9505 3.88231 14.8318 4.47054 13.7131C5.17643 12.3588 6.17643 11.299 7.1176 10.1803C8.76466 8.35499 10.647 6.70634 12.647 5.17545C13.9411 4.17449 15.4117 3.40904 17.0588 2.938C18.2353 2.58472 19.2941 2.76136 20.3529 3.46792C21.5294 4.23337 22.647 5.05769 23.7647 5.94089C26.5294 8.17835 28.8823 10.7691 31.1764 13.4776C31.2941 13.5953 31.4117 13.772 31.5294 13.8897C31.8235 14.243 32.2941 14.5374 32.4705 14.9496C32.647 15.3617 32.0588 15.6561 31.8823 16.0094C31.7058 16.3038 31.647 16.6571 31.9411 16.8926C32.2941 17.187 32.7058 17.0693 33 16.7749C33.9411 15.8917 34.8823 15.0085 35.8235 14.1253C36.7058 13.2421 37.5294 12.2411 38.4117 11.3579C41.1764 8.64939 44 5.94089 47.0588 3.5268C47.647 3.05576 48.2941 2.70248 49 2.3492C50.1176 1.76039 51.2353 1.76039 52.4117 2.29032C53.7058 2.87912 54.8235 3.76232 55.8823 4.64553C57.8235 6.17642 59.647 7.76618 61.2941 9.59147C62.2353 10.6513 63.1176 11.77 63.7647 13.0065C64.2353 13.9486 64.2353 14.8318 63.7647 15.7739C63.4705 16.3627 63.1176 16.8926 62.7647 17.4226C61 19.7778 58.7647 21.6619 56.647 23.6639C54.7058 25.548 52.5882 27.1967 50.4705 28.9042C49.8823 29.3753 49.8235 30.0818 50.4705 30.6706C51.0588 31.2594 51.7647 31.8482 52.4117 32.3782C54.1176 33.6735 55.8823 34.9689 57.5882 36.2643C59.1176 37.4419 60.647 38.5606 61.8235 40.0915C62.7647 41.3868 63.5294 42.7411 63.7647 44.3897C63.9411 45.5673 63.7058 46.6272 63.2353 47.6282C62.7058 48.7469 62 49.7478 61.2353 50.6899C59.5294 52.6919 57.647 54.576 55.4117 55.9303C54 56.8135 52.647 57.4612 51.1176 57.3434Z" fill="#EA4C60"/>
<path d="M52.8233 54.6938C52.5292 54.6938 52.2351 54.6349 51.941 54.4583C49.1763 53.1629 46.588 51.5731 44.1175 49.7478C43.2351 49.1002 42.588 48.217 41.7057 47.5693C40.3527 46.5683 38.9998 45.5673 37.7057 44.4486C36.9998 43.8009 36.8822 43.5065 37.1175 42.6822C37.2939 42.1523 37.5292 42.2112 37.8822 42.3878C38.941 42.9177 39.9998 43.5654 41.1174 44.0365C42.7645 44.6841 44.4116 45.4496 45.9998 46.2739C47.0586 46.8038 48.1174 47.2749 49.1763 47.8048C50.941 48.688 52.8233 48.9235 54.7057 48.8058C55.588 48.7469 56.4116 48.2758 57.1174 47.687C57.941 47.0393 58.7645 46.3917 59.5292 45.744C59.6469 45.6262 59.8233 45.5673 59.9998 45.4496C60.1763 45.3907 60.3527 45.3318 60.4704 45.4496C60.6469 45.5673 60.588 45.8029 60.588 45.9795C60.4704 46.3917 60.2351 46.7449 59.9998 47.1571C59.1174 48.5702 57.9998 49.8067 56.941 51.0432C56.3527 51.7498 55.8233 52.4563 55.2351 53.1629C54.7057 54.2227 53.7645 54.7527 52.8233 54.6938Z" fill="#B73D50"/>
<path d="M19.4117 38.3839C19.3529 38.7961 19.2352 39.2083 18.8823 39.5027C16.3529 41.6224 13.7058 43.6243 11.0588 45.5673C10.3529 46.0973 9.99993 45.9795 9.41169 45.2729C9.35287 45.2141 9.35287 45.1552 9.29404 45.0963C8.41169 43.8009 8.41169 43.8009 9.47051 42.6233C10.1176 41.9168 10.7646 41.2102 11.4117 40.4448C12.9411 38.6783 14.8235 37.2652 16.4705 35.6166C17.5882 34.4978 17.5882 34.8511 18.1764 35.8521C18.4705 36.3231 18.7646 36.8531 19.0588 37.3241C19.2352 37.6774 19.3529 37.9718 19.4117 38.3839Z" fill="#F5B383"/>
<path d="M39.7646 15.0673C40.1764 13.8309 41.1176 13.1243 41.9999 12.3C43.2352 11.1224 44.5294 10.0625 45.7646 8.88491C46.9999 7.64842 48.4117 6.58858 49.7646 5.41097C50.7058 4.52776 51.4705 4.58664 52.4117 5.52873C52.7058 5.82313 52.9999 6.17641 53.2941 6.47081C54.1764 7.29514 54.1176 8.23722 53.0588 8.94379C52.3529 9.41483 51.647 9.94475 50.8235 10.2392C49.3529 10.7691 47.9999 11.5934 46.7058 12.3588C45.4705 13.0654 44.1176 13.4776 42.8235 13.9486C41.7646 14.243 40.7058 14.5374 39.7646 15.0673Z" fill="#F5B383"/>
<path d="M13.0001 12.3C12.8824 12.6533 12.7059 12.9477 12.5295 13.1832C11.5883 14.1841 10.5883 15.244 9.47064 16.0683C9.05888 16.3038 8.70594 16.8338 8.1177 16.4216C7.52947 16.0094 7.1177 14.9496 7.41182 14.4197C8.1177 13.1243 9.05888 11.9467 10.2353 11.0635C10.353 11.0046 10.5295 10.8868 10.6471 10.8868C11.4706 11.1224 12.2353 11.5934 12.9412 12.0644C13.0001 12.0644 13.0001 12.1822 13.0001 12.3Z" fill="#F5B283"/>
<path d="M54.4702 20.6021C54.2937 21.5442 54.3526 22.3685 54.1173 23.1339C54.0584 23.3695 53.9996 23.605 53.7055 23.7227C52.7643 24.1349 51.7643 24.4882 50.7055 24.4293C50.2937 24.3704 50.1173 24.1938 50.2937 23.7816C50.4114 23.5461 50.529 23.3106 50.7055 23.1339C51.882 22.1919 53.0584 21.4264 54.4702 20.6021Z" fill="#B83D50"/>
<path d="M18.1761 51.5731C17.4114 52.6919 16.7055 53.6928 15.9997 54.6349C15.4702 55.4004 14.7644 55.9303 13.7644 55.8125C13.4114 55.7536 13.0585 55.6359 12.7644 55.4004C12.3526 55.0471 12.4114 54.6349 12.9408 54.576C14.7055 54.2816 15.9408 53.104 17.235 52.0442C17.4114 51.8087 17.6467 51.5731 18.1761 51.5731Z" fill="#B83D50"/>
<path d="M14.2352 16.5393C14.4117 16.8926 14.4705 17.2459 14.2941 17.5403C13.9411 18.0702 13.5294 18.4824 12.9999 18.7768C12.647 18.9534 12.5294 18.659 12.5882 18.4235C12.5294 17.5992 13.2941 16.7749 14.2352 16.5393Z" fill="#F4AE81"/>
<path d="M7.76466 48.9824C7.11761 48.6291 6.64702 48.1581 6.76466 47.2749C6.82349 46.9216 6.99996 46.8038 7.3529 46.9216C7.99996 47.0982 8.17643 47.3337 8.05878 48.0992C8.05878 48.3936 8.11761 48.7469 7.76466 48.9824Z" fill="#F4AD80"/>
<path d="M14.7645 8.94379C14.9998 9.12043 14.8233 9.35595 14.7057 9.53259C14.588 9.82699 14.2939 10.0036 13.941 10.0625C13.8821 10.0625 13.7645 10.0036 13.7645 9.94475C13.7057 9.59147 13.9998 9.47371 14.1763 9.29707C14.4115 9.12043 14.5292 8.88491 14.7645 8.94379Z" fill="#F3A67E"/>
<path d="M38.1761 18.0702C38.1172 18.1291 38.0584 18.2469 37.9408 18.3058C37.7643 18.4235 37.5878 18.4824 37.3525 18.4235C37.5878 18.0114 37.5878 18.0114 38.1761 18.0702Z" fill="#F29A79"/>
</svg>
