<svg xmlns="http://www.w3.org/2000/svg" width="60" height="58" fill="none" viewBox="0 0 60 58">
  <g clip-path="url(#clip0)">
    <path fill="#7F5B2D" d="M30.37 0c3.704 0 8.254-.106 12.805.106 2.116.106 4.232.211 6.243.635 2.116.423 3.704 1.481 4.127 3.703.212.953.635 1.376 1.587 1.588 1.27.317 2.117 1.27 2.646 2.54a22.33 22.33 0 011.27 5.396c.317 3.175.529 6.35.634 9.524.212 4.55.424 9.1.212 13.545-.212 4.339-.317 8.572-.846 12.91 0 .423-.106.953-.212 1.376-.74 3.174-2.752 4.656-6.032 5.185-2.01.317-3.915.317-5.926.529-2.963.212-6.032.423-8.995.423-3.28-.105-6.666.424-9.947.424-3.81 0-7.619-.318-11.322-.953-1.376-.317-2.857-.317-4.233-.635-.53-.105-1.058-.211-1.482-.423-1.693-.635-2.963-1.693-3.703-3.386-.106-.318-.212-.53-.318-.847-.317-.529-.529-.846-.952-.952-1.693-.635-2.752-1.8-3.492-3.492-.741-1.905-1.058-3.81-1.376-5.82-.317-2.434-.635-4.868-.846-7.302C.106 32.487.106 30.9.106 29.312 0 25.926-.106 22.434 0 19.048c.106-3.175.317-6.35.846-9.524.212-1.587.741-2.963 1.376-4.233.53-1.164 1.376-2.01 2.54-2.646C6.878 1.376 9.206.848 11.64.636 17.566-.105 23.492.105 30.37 0z"/>
    <path fill="#F8E8CE" d="M30.37 1.27h10.582c2.434 0 4.762.106 7.196.529.74.106 1.587.212 2.222.529.847.318 1.482.847 1.8 1.693.634 1.693.951 3.386 1.163 5.08.318 3.174.53 6.349.635 9.523.212 4.445.423 8.995.212 13.44-.212 4.232-.318 8.57-.847 12.804-.106 1.164-.423 2.434-1.164 3.386-1.058 1.376-2.54 1.905-4.233 2.222-1.904.318-3.81.318-5.82.53-3.069.21-6.032.423-9.1.423-2.222 0-4.339.211-6.561.317-4.868.212-9.736 0-14.603-.952-1.376-.318-2.857-.318-4.233-.635-.53-.212-1.27-.424-1.8-.741-.846-.423-1.48-1.058-2.01-2.01-.74-1.482-1.164-2.964-1.375-4.55-.318-2.54-.741-4.974-.953-7.514-.211-1.799-.211-3.598-.211-5.397-.106-4.338-.212-8.677 0-13.016.105-2.645.317-5.397.846-8.042.212-.952.53-1.905.953-2.751.529-1.27 1.481-2.117 2.75-2.752C7.514 2.328 9.525 2.011 11.535 1.8c6.244-.74 12.593-.53 18.836-.53z"/>
    <path fill="#7F5B2D" d="M41.375 28.889c0 2.434-.105 6.032-.105 9.524v.529c-.106.74-.318.952-1.059 1.058-2.01.106-4.02.212-5.925 0-.741-.106-1.482-.212-2.117-.423-1.376-.53-2.222-1.376-2.328-2.963-.106-1.058-.212-2.117-.212-3.069 0-5.609 0-11.323.106-16.931 0-.953.106-1.905.424-2.857.317-1.164.74-1.376 1.904-1.376 2.01 0 4.021-.106 6.032-.212.53 0 1.058.106 1.587.212.635.212.953.74 1.164 1.27.318 1.058.424 2.116.424 3.28.423 3.598.105 7.196.105 11.958zM25.608 27.83c0 3.493-.105 7.09-.105 10.583v.423c0 .952-.212 1.058-1.165 1.164-2.01.106-4.02.212-5.925 0-.741-.106-1.482-.212-2.117-.423-1.375-.53-2.116-1.482-2.222-2.963-.106-1.693-.212-3.28-.212-4.974V18.73c0-1.375.106-2.751.318-4.127.106-.529.211-1.058.423-1.587.318-.53.635-.847 1.27-.847 2.116 0 4.339-.106 6.455-.106.529 0 1.058.106 1.587.318.53.106.847.635.953 1.164.211.635.317 1.27.423 1.905.212 2.328.212 4.762.212 7.09.211 1.799.211 3.598.105 5.29.106 0 .106 0 0 0z"/>
    <path fill="#E8C99C" d="M32.487 48.677h-5.715c-.846 0-.952-.106-1.058-.952V46.56c0-.53.106-.635.635-.74H31.534c.953 0 1.8-.212 2.752-.212 1.375-.106 2.645-.424 4.02-.53a14.574 14.574 0 004.128-.952c.317-.106.74-.212 1.058-.318 1.27-.211 2.116-1.058 2.645-2.222.424-.952.635-1.905.847-2.857.212-1.481.635-2.857.74-4.338.107-.847.318-1.588.212-2.434 0-2.328.318-4.55.212-6.773v-.529c0-.212.106-.317.423-.317h2.117c.317 0 .529.211.529.529v.74c-.106 2.328 0 4.657.211 6.879.106 1.375-.105 2.645-.211 3.915-.106.847 0 1.587 0 2.434-.106 2.222-.53 4.233-1.482 6.243-.317.741-.846 1.164-1.481 1.482-1.587.74-3.175 1.27-4.868 1.481-1.058.106-2.222.212-3.28.424-2.54.423-5.186.211-7.62.211z"/>
    <path fill="#fff" d="M14.18 6.138v1.27c0 .846-.318 1.163-1.059 1.058-1.164 0-2.222.211-3.174.74-1.693.953-2.857 2.223-3.069 4.233-.106.53-.212.74-.74.74-.53 0-1.059 0-1.588.213-.317.105-.529 0-.529-.424v-.106c.106-1.27.106-2.54.212-3.81.105-1.269.74-2.221 1.587-3.174.106-.211.317-.423.529-.529 1.482-.74 2.857-1.693 4.444-1.905.953-.105 1.8-.529 2.752-.423.635.106.635.106.635.635v1.482z"/>
    <path fill="#FFFEFD" d="M16.19 4.233c.424.529.741.846 1.059 1.27.211.317.317.635.211.952-.105.317-.105.635-.211 1.058 0 .424-.212.635-.635.635-.424 0-.635-.211-.847-.529-.106-.317-.106-.74-.106-1.058.212-.74.318-1.482.53-2.328z"/>
    <path fill="#E9CB9E" d="M22.751 46.35h.212c.952.422 1.058.74.423 1.587-.106.105-.212.211-.317.211-.212 0-.318-.106-.318-.317a3.497 3.497 0 010-1.482z"/>
    <path fill="#FEFCF9" d="M5.503 16.19c0 .318-.106.635-.424.635-.423.106-.74.106-1.058-.211-.106-.106-.106-.318.106-.424.212-.105.53-.317.74-.423.53-.211.741-.106.636.424z"/>
    <path fill="#EACCA0" d="M50.688 21.482c-.106.529-.318.952-.953 1.058-.211 0-.423 0-.529-.318-.106-.211 0-.423.212-.529.423-.212.846-.212 1.27-.212z"/>
    <path fill="#EACDA2" d="M48.889 19.577c.423-.53.952-.53 1.375-.635.106 0 .318.106.424.317 0 .212-.212.212-.318.318-.423.105-.846 0-1.481 0z"/>
  </g>
  <defs>
    <clipPath id="clip0">
      <path fill="#fff" d="M0 0h60v57.778H0z"/>
    </clipPath>
  </defs>
</svg>
