<svg xmlns="http://www.w3.org/2000/svg" width="60" height="58" fill="none" viewBox="0 0 60 58">
  <g clip-path="url(#clip0)">
    <path fill="#7F5B2D" d="M30.37 0c3.704 0 8.254-.106 12.805.106 2.116.106 4.232.211 6.243.635 2.116.423 3.704 1.481 4.127 3.703.212.953.635 1.376 1.587 1.588 1.27.317 2.117 1.27 2.646 2.54a22.33 22.33 0 011.27 5.396c.317 3.175.529 6.35.634 9.524.212 4.55.424 9.1.212 13.545-.212 4.339-.317 8.572-.846 12.91 0 .423-.106.953-.212 1.376-.74 3.174-2.752 4.656-6.032 5.185-2.01.317-3.915.317-5.926.529-2.963.212-6.032.423-8.995.423-3.28-.105-6.666.424-9.947.424-3.81 0-7.619-.318-11.322-.953-1.376-.317-2.857-.317-4.233-.635-.53-.105-1.058-.211-1.482-.423-1.693-.635-2.963-1.693-3.703-3.386-.106-.318-.212-.53-.318-.847-.317-.529-.529-.846-.952-.952-1.693-.635-2.752-1.8-3.492-3.492-.741-1.905-1.058-3.81-1.376-5.82-.317-2.434-.635-4.868-.846-7.302C.106 32.487.106 30.9.106 29.312 0 25.926-.106 22.434 0 19.048c.106-3.175.317-6.35.846-9.524.212-1.587.741-2.963 1.376-4.233.53-1.164 1.376-2.01 2.54-2.646C6.878 1.376 9.206.848 11.64.636 17.566-.105 23.492.105 30.37 0z"/>
    <path fill="#F8E8CE" d="M30.223 1.028h10.582c2.434 0 4.762.106 7.196.53.74.105 1.587.21 2.222.528.846.318 1.481.847 1.799 1.693.635 1.693.952 3.387 1.164 5.08.317 3.174.529 6.349.635 9.524.211 4.444.423 8.994.211 13.439-.211 4.232-.317 8.571-.846 12.804-.106 1.164-.424 2.434-1.164 3.386-1.058 1.376-2.54 1.905-4.233 2.222-1.905.318-3.81.318-5.82.53-3.069.211-6.032.423-9.1.423-2.223 0-4.34.211-6.562.317-4.867.212-9.735 0-14.603-.952-1.376-.318-2.857-.318-4.233-.635-.529-.212-1.27-.423-1.799-.74-.846-.424-1.481-1.06-2.01-2.011-.74-1.482-1.164-2.963-1.376-4.55-.317-2.54-.74-4.974-.952-7.514-.212-1.799-.212-3.598-.212-5.397-.106-4.338-.211-8.677 0-13.016.106-2.645.318-5.396.847-8.042.211-.952.529-1.905.952-2.751.53-1.27 1.482-2.117 2.751-2.752 1.694-1.058 3.704-1.375 5.715-1.587 6.243-.74 12.592-.529 18.836-.529z"/>
    <path fill="#7F5B2D" d="M36.551 33.924c1.708-.78 2.66-1.349 4.87-2.771l.371-.17c.488-.307.588-.57.439-1.095-.814-1.646-1.507-2.72-2.231-3.913-.298-.456-.596-.913-.937-1.265-.787-.742-1.198-1.041-2.344-.603-.774.269-1.385.693-2.053.998-3.935 1.797-8.427 4.865-12.33 6.732-.667.305-1.304.68-1.876 1.196-.72.583-.74.93-.389 1.701.608 1.332 1.142 2.697 1.676 4.062.16.35.394.667.628.983.34.353.808.393 1.243.364.882-.143 1.613-.398 2.43-.77 2.652-.873 7.163-3.923 10.503-5.45z"/>
    <path fill="#7F5B2D" d="M35.33 27.894c1.806.95 2.922 1.404 5.594 2.4l.393.206c.584.223.866.157 1.186-.262.769-1.592 1.157-2.762 1.621-4.026.163-.501.326-1.002.376-1.478.056-1.06.014-1.564-1.13-2.25-.75-.478-1.514-.736-2.221-1.108-4.164-2.188-11.802-5.155-16-7.278-.707-.372-1.449-.678-2.26-.852-.967-.258-1.262-.078-1.641.644-.656 1.247-1.39 2.453-2.124 3.66-.172.327-.266.697-.36 1.066-.05.477.24.88.563 1.218.682.61 1.433 1.088 2.297 1.542 2.533 1.667 10.17 4.66 13.705 6.518z"/>
    <path fill="#7F5B2D" d="M24.926 28.17c0 3.36.074 7.063.074 10.423V39c0 .5 0 1-1.328 1.242-.745.118-3.672.258-5.672.258-1 0-1.91-.296-2.5-.5-1.28-.509-1.205-1.955-1.303-3.38-.099-1.63-.197-3.156-.197-4.785V19.414c0-1.324.098-2.647.295-3.97.099-.51.197-1.019.394-1.528.295-.509.59-.814 1.181-.814C17.5 12.5 20 12.5 21.875 13c.492 0 .984.102 1.476.305.492.102.788.611.886 1.12.197.611.295 1.222.394 1.833.197 2.24.197 4.581.197 6.821.197 1.73.197 3.462.098 5.09.099 0 .099 0 0 0z"/>
    <path fill="#E8C99C" d="M32.487 48.677h-5.715c-.846 0-.952-.106-1.058-.952V46.56c0-.53.106-.635.635-.74H31.534c.953 0 1.8-.212 2.752-.212 1.375-.106 2.645-.424 4.02-.53a14.574 14.574 0 004.128-.952c.317-.106.74-.212 1.058-.318 1.27-.211 2.116-1.058 2.645-2.222.424-.952.635-1.905.847-2.857.212-1.481.635-2.857.74-4.338.107-.847.318-1.588.212-2.434 0-2.328.318-4.55.212-6.773v-.529c0-.212.106-.317.423-.317h2.117c.317 0 .529.211.529.529v.74c-.106 2.328 0 4.657.211 6.879.106 1.375-.105 2.645-.211 3.915-.106.847 0 1.587 0 2.434-.106 2.222-.53 4.233-1.482 6.243-.317.741-.846 1.164-1.481 1.482-1.587.74-3.175 1.27-4.868 1.481-1.058.106-2.222.212-3.28.424-2.54.423-5.186.211-7.62.211z"/>
    <path fill="#fff" d="M14.18 6.138v1.27c0 .846-.318 1.163-1.059 1.058-1.164 0-2.222.211-3.174.74-1.693.953-2.857 2.223-3.069 4.233-.106.53-.212.74-.74.74-.53 0-1.059 0-1.588.213-.317.105-.529 0-.529-.424v-.106c.106-1.27.106-2.54.212-3.81.105-1.269.74-2.221 1.587-3.174.106-.211.317-.423.529-.529 1.482-.74 2.857-1.693 4.444-1.905.953-.105 1.8-.529 2.752-.423.635.106.635.106.635.635v1.482z"/>
    <path fill="#FFFEFD" d="M16.19 4.233c.424.529.741.846 1.059 1.27.211.317.317.635.211.952-.105.317-.105.635-.211 1.058 0 .424-.212.635-.635.635-.424 0-.635-.211-.847-.529-.106-.317-.106-.74-.106-1.058.212-.74.318-1.482.53-2.328z"/>
    <path fill="#E9CB9E" d="M22.751 46.35h.212c.952.422 1.058.74.423 1.587-.106.105-.212.211-.317.211-.212 0-.318-.106-.318-.317a3.497 3.497 0 010-1.482z"/>
    <path fill="#FEFCF9" d="M5.503 16.19c0 .318-.106.635-.424.635-.423.106-.74.106-1.058-.211-.106-.106-.106-.318.106-.424.212-.105.53-.317.74-.423.53-.211.741-.106.636.424z"/>
    <path fill="#EACCA0" d="M50.688 21.482c-.106.529-.318.952-.953 1.058-.211 0-.423 0-.529-.318-.106-.211 0-.423.212-.529.423-.212.846-.212 1.27-.212z"/>
    <path fill="#EACDA2" d="M48.889 19.577c.423-.53.952-.53 1.375-.635.106 0 .318.106.424.317 0 .212-.212.212-.318.318-.423.105-.846 0-1.481 0z"/>
  </g>
  <defs>
    <clipPath id="clip0">
      <path fill="#fff" d="M0 0h60v57.778H0z"/>
    </clipPath>
  </defs>
</svg>
