<svg width="54" height="61" viewBox="0 0 54 61" fill="none" xmlns="http://www.w3.org/2000/svg">
<g clip-path="url(#clip0)">
<path d="M52.8208 14.8143C53.1932 15.3123 53.4415 15.8725 53.7829 16.4016C54.0001 16.7439 54.0001 17.1485 54.0001 17.5531C53.938 20.7276 53.907 23.9332 53.8449 27.1077C53.8139 28.9128 53.8139 30.749 53.6898 32.5541C53.5036 36.1955 53.6277 39.8679 53.5656 43.5092C53.5656 44.2562 53.4104 45.0031 53.2242 45.7189C53.1001 46.2791 52.7277 46.6215 52.2311 46.8705C51.4863 47.275 50.7415 47.6796 50.0277 48.1154C45.9932 50.4495 42.0208 52.9082 38.0484 55.3669C35.9691 56.6429 33.8277 57.7944 31.7173 59.0082C30.9725 59.4439 30.2587 59.8485 29.576 60.3465C28.3656 61.2179 27.1553 61.2179 25.8829 60.4398C22.3449 58.3235 18.807 56.2072 15.3001 54.0909C12.1036 52.1613 8.96907 50.2006 5.71045 48.3955C4.43803 47.7108 3.19665 46.9638 2.07941 46.0613C1.39665 45.5011 0.838034 44.8475 0.682861 43.9449C0.838034 43.8827 0.962172 43.9449 1.08631 44.0383C3.04148 45.7189 5.36907 46.7771 7.54148 48.0531C8.50355 48.6133 9.43459 49.2046 10.3967 49.7648C10.8001 50.0449 11.2346 50.2628 11.638 50.5429C12.507 51.1031 13.438 51.6011 14.307 52.1924C15.8898 53.1572 17.4725 54.122 19.0553 55.0245C20.7932 55.9893 22.4691 57.0475 24.1449 58.0745C24.5173 58.2924 24.8587 58.5102 25.2622 58.6659C26.1311 59.0393 26.9691 59.1016 27.807 58.5725C28.8001 57.9812 29.7311 57.2654 30.8173 56.7985C31.6863 56.3317 32.5242 55.7715 33.3932 55.3046C34.6656 54.5577 36.0001 53.873 37.2415 53.0638C38.6691 52.1613 40.0967 51.2898 41.5242 50.3873C41.5863 50.325 41.6484 50.2939 41.7104 50.2628C41.7725 50.2006 41.8346 50.1694 41.8967 50.1383C44.8139 48.4266 47.6691 46.6215 50.6174 45.0342C51.3001 44.6608 51.7346 44.1628 51.8898 43.3847C52.0139 42.7934 52.138 42.2021 52.138 41.6108C52.138 38.623 52.138 35.6353 52.138 32.6475C52.138 32.3051 52.138 31.9317 52.2001 31.5893C52.3863 30.5934 52.2622 29.6286 52.2622 28.6327C52.2622 27.9791 52.2311 27.2944 52.2932 26.6409C52.2932 26.5475 52.3242 26.4541 52.3242 26.3608C52.4794 25.8317 52.4173 25.2715 52.4173 24.7424C52.3863 22.5016 52.4174 20.2608 52.3863 18.0199C52.3863 17.0863 52.6346 16.1526 52.5105 15.1878C52.5725 15.0633 52.5725 14.8455 52.8208 14.8143Z" fill="#1B4161"/>
<path d="M0.124249 23.6219C0.124249 22.2214 0.0932141 20.8209 0.0932141 19.4515C0.0932141 18.4245 0.124249 17.3974 0.000110667 16.4015C-0.0619583 15.8724 0.0932141 15.3745 0.124249 14.8454C0.155283 14.5964 0.279421 14.4408 0.465628 14.2852C0.869076 13.974 1.27252 13.725 1.70701 13.476C4.65528 11.8265 7.57253 10.1459 10.5208 8.52755C12.8794 7.22041 15.2691 5.94439 17.6277 4.63724C18.807 3.98367 19.9863 3.26786 21.1656 2.58316C21.3829 2.45867 21.5691 2.30306 21.8174 2.24081C21.6311 3.01888 21.0105 3.45459 20.4208 3.85918C20.0174 4.17041 19.6449 4.45051 19.2725 4.82398C18.0311 6.1 16.6656 7.28265 15.3932 8.49643C14.9277 8.96326 14.4001 9.4301 14.2449 10.1459C13.7174 10.7372 12.9725 10.9551 12.2898 11.3286C9.58977 12.8536 6.9208 14.4408 4.18977 15.8724C3.38287 16.277 3.10356 16.8061 3.25873 17.6464C3.2277 18.3 3.3208 18.9847 3.19666 19.6383C2.48287 20.3541 1.76908 21.0699 0.96218 21.6923C0.558731 22.0036 0.403559 22.3148 0.403559 22.8128C0.465628 23.0929 0.6208 23.5286 0.124249 23.6219Z" fill="#4E9294"/>
<path d="M10.3968 49.9204C8.59682 48.8934 6.79682 47.8352 4.99682 46.8082C4.40717 46.4659 3.81751 46.0924 3.19682 45.75C2.29682 45.2521 1.45889 44.6296 0.68303 43.9138C0.527858 43.7893 0.558892 43.6337 0.527858 43.4781C0.341651 42.4511 0.434754 41.4863 1.17958 40.646C1.76924 39.9924 2.23475 39.2143 2.79338 38.5296C2.97958 38.3118 3.13475 37.8761 3.60027 38.1562C3.84855 39.2143 3.69338 40.3036 3.69338 41.3929C3.69338 42.0153 3.87958 42.4511 4.4382 42.6689C5.58648 43.3847 6.79682 44.0383 7.97613 44.6919C9.24855 45.4077 10.521 46.1546 11.7623 46.9016C11.9796 47.0261 12.2279 47.1817 12.352 47.4306C12.4141 47.7419 12.2589 47.9597 12.0416 48.1465C11.5451 48.7689 11.0175 49.3914 10.3968 49.9204Z" fill="#448488"/>
<path d="M14.2758 10.0219C14.0586 9.99074 13.9344 9.89738 14.1206 9.67952C15.1758 8.55911 16.231 7.4387 17.4413 6.44278C18.1551 5.85146 18.7448 5.16676 19.3965 4.51319C19.7068 4.20197 20.0172 3.95299 20.3896 3.73513C21.0103 3.36166 21.4137 2.77034 21.8792 2.21013C23.1517 1.36983 24.4551 0.529519 25.9448 0.0938046C26.4103 -0.0306852 26.8758 -0.0618077 27.3103 0.187172C28.1172 0.622886 28.9241 1.0586 29.6689 1.58768C29.2965 2.67697 28.7068 3.57952 27.7448 4.17085C27.3103 4.17085 26.9999 3.89074 26.6896 3.67289C26.3482 3.48615 26.0379 3.48615 25.7275 3.70401C23.1206 5.29125 20.5137 6.8785 17.8137 8.34125C17.193 8.6836 16.5413 9.02595 15.8896 9.30605C15.7655 9.33717 15.6413 9.36829 15.5482 9.39942C15.4861 9.43054 15.4551 9.43054 15.393 9.46166C15.331 9.49278 15.2379 9.52391 15.1758 9.55503C15.1448 9.58615 15.0827 9.61727 15.0517 9.61727C14.9896 9.6484 14.9275 9.67952 14.8344 9.71064C14.8034 9.74176 14.7413 9.77289 14.7103 9.80401C14.6172 9.86625 14.5241 9.9285 14.431 9.95962C14.3379 10.0219 14.3068 10.0219 14.2758 10.0219Z" fill="#4A8C8F"/>
<path d="M52.821 14.8143C52.6037 15.1566 52.852 15.4679 52.852 15.8102C52.852 16.4949 52.6968 17.1796 52.6968 17.8643C52.6968 20.4786 52.6968 23.0617 52.6658 25.676C52.6658 25.925 52.7589 26.2362 52.5417 26.4541C52.1692 26.0806 52.4486 25.5515 52.2623 25.0536C51.6106 25.8628 50.8037 26.5163 50.183 27.2944C50.0279 27.45 49.8727 27.699 49.6554 27.6367C49.3761 27.5434 49.4072 27.2321 49.3761 27.0143C49.3451 25.7383 49.4072 24.4934 49.3451 23.2173C49.3761 22.2214 49.283 21.1944 49.3761 20.1985C49.5934 19.5138 49.5003 18.7668 49.5003 18.0821C49.5003 17.5531 49.6865 17.1173 50.121 16.8061C50.8658 16.2459 51.4555 15.4679 52.2003 14.9388C52.3555 14.8143 52.4486 14.6275 52.6968 14.6898C52.7899 14.6898 52.821 14.7209 52.821 14.8143Z" fill="#448488"/>
<path d="M35.0072 4.63724C36.4968 5.4153 37.9865 6.22448 39.4761 7.00255C40.221 7.40714 40.9658 7.81173 41.6796 8.21632C41.8348 8.34081 41.9589 8.49642 41.8037 8.65203C41.121 9.36785 40.6865 10.3326 39.7244 10.7372C39.1658 10.7061 38.7003 10.3949 38.2348 10.1148C37.3968 9.64795 36.5279 9.21224 35.6899 8.77652C34.821 8.21632 33.8589 7.81173 32.9899 7.28265C32.7417 7.12703 32.4313 7.06479 32.3382 6.72244C32.3072 6.47346 32.4003 6.28673 32.5555 6.13112C33.1141 5.63316 33.6417 5.1352 34.2313 4.69949C34.4796 4.54387 34.7589 4.51275 35.0072 4.63724Z" fill="#448488"/>
<path d="M0.124409 23.6219C0.434754 23.2485 0.248547 22.8128 0.279581 22.4082C0.310616 22.0969 0.372685 21.8791 0.68303 21.6923C1.14855 21.3811 1.58303 21.0388 1.95544 20.5719C2.26579 20.1985 2.6382 19.8872 3.13475 19.7316C3.352 19.9184 3.352 20.1673 3.352 20.4163C3.352 22.3459 3.352 24.2444 3.352 26.174C3.352 26.5474 3.25889 26.8898 2.97958 27.1076C2.26579 27.7612 1.552 28.4148 0.776133 29.0061C0.651995 29.0995 0.496823 29.1929 0.310616 29.1306C0.124409 28.1969 0.186478 27.2633 0.155444 26.3296C0.0933745 25.4582 0.0623401 24.5245 0.124409 23.6219Z" fill="#4B8D8F"/>
<path d="M39.7241 10.6439C40.531 10.1148 40.9965 9.21223 41.7103 8.55866C41.8345 8.46529 41.7103 8.3408 41.6793 8.21631C42.6724 8.6209 43.5414 9.21223 44.4724 9.74131C45.3103 10.2081 46.1483 10.7061 46.9862 11.1729C47.2345 11.2974 47.4827 11.3908 47.669 11.6087C47.2345 12.1689 46.6138 12.5112 46.0552 12.9469C45.7758 13.1648 45.5586 13.476 45.3103 13.725C44.6586 13.9117 44.3172 13.2893 43.7896 13.1337C43.7276 13.1025 43.6965 13.0714 43.6345 13.0403C43.5724 13.0092 43.5414 12.978 43.5103 12.9469C43.4793 12.9158 43.4793 12.9158 43.4483 12.8847C43.3862 12.8224 43.3241 12.7913 43.2621 12.7602C43.231 12.7291 43.1689 12.7291 43.1379 12.6979C43.0758 12.6668 43.0138 12.6357 42.9517 12.6046C42.9207 12.5735 42.8586 12.5735 42.8276 12.5112C42.7965 12.4801 42.7345 12.449 42.7034 12.4178L42.6414 12.3867C42.6103 12.3556 42.5483 12.3245 42.5172 12.3245C42.4862 12.2933 42.4241 12.2933 42.3931 12.2622C42.331 12.2311 42.2689 12.2 42.2069 12.1689C42.1758 12.1377 42.1138 12.1377 42.0827 12.1066C42.0517 12.0755 41.9896 12.0755 41.9586 12.0444C41.9276 12.0132 41.8655 12.0132 41.8345 11.9821C41.8034 11.951 41.7724 11.9199 41.7103 11.8888C41.7103 11.8888 41.6483 11.8265 41.6483 11.8576C41.5862 11.8265 41.5241 11.7954 41.4621 11.7643C41.431 11.7331 41.3689 11.7331 41.3379 11.702C41.2758 11.6709 41.2138 11.6398 41.1207 11.6087C41.0586 11.5775 41.0276 11.5775 40.9655 11.5464C40.8724 11.4842 40.7483 11.453 40.6552 11.3908C40.3448 11.1107 39.8483 11.1107 39.7241 10.6439Z" fill="#569193"/>
<path d="M35.007 4.63728C34.8518 4.6684 34.6966 4.63728 34.5725 4.73065C33.8276 5.22861 33.1449 5.85106 32.5242 6.4735C32.4621 6.53575 32.4621 6.66024 32.4311 6.75361C32.2449 6.90922 32.0587 6.78473 31.9035 6.69136C30.6001 6.03779 29.3897 5.25973 28.1173 4.57504C27.9001 4.45055 27.6518 4.35718 27.6828 4.04595C27.9001 4.04595 28.0242 3.92146 28.1483 3.73473C28.6759 3.01891 29.2035 2.33422 29.669 1.58728C30.8794 2.24085 32.1208 2.92555 33.3311 3.57912C33.8587 3.95259 34.4794 4.20157 35.007 4.63728Z" fill="#579295"/>
<path d="M0.248535 29.1617C1.05543 28.477 1.86233 27.7923 2.66922 27.1076C2.97957 26.8587 3.10371 26.5474 3.10371 26.1429C3.07267 24.0265 3.10371 21.8791 3.07267 19.7628C3.07267 19.0158 3.07267 18.2689 3.07267 17.4908C3.50716 17.6153 3.41405 17.9888 3.44509 18.2689C3.47612 19.2025 3.47612 20.1362 3.44509 21.0699C3.44509 23.6219 3.35198 26.1429 3.56922 28.6949C3.63129 29.5041 3.66233 30.3444 3.53819 31.1536C3.16578 31.9005 2.51405 32.4296 1.98647 33.0209C1.30371 33.799 0.589914 34.5459 0.372673 35.6041C0.341639 35.4796 0.27957 35.3551 0.27957 35.2617C0.310604 33.2076 0.27957 31.1847 0.248535 29.1617Z" fill="#589395"/>
<path d="M3.53802 38.125C2.88629 38.5296 2.60698 39.2454 2.14147 39.8056C1.73802 40.2725 1.45871 40.8327 1.05526 41.2684C0.682846 41.7041 0.527674 42.1398 0.589743 42.7C0.620777 42.9801 0.589743 43.2291 0.589743 43.5092C0.43457 43.3225 0.43457 43.1046 0.43457 42.8868C0.43457 40.7704 0.43457 38.623 0.465605 36.5067C0.77595 36.4755 0.713881 36.7556 0.77595 36.9113C1.2725 36.4444 1.64491 35.822 2.14147 35.3551C2.88629 34.6704 3.41388 33.9235 3.25871 32.8342C3.19664 32.3363 3.25871 32.3051 3.66216 32.2429C3.84836 32.523 3.81733 32.8653 3.81733 33.1766C3.81733 34.5148 3.81733 35.822 3.81733 37.1602C3.78629 37.4715 3.81733 37.8449 3.53802 38.125Z" fill="#569193"/>
<path d="M45.2485 13.7872C45.2796 13.3826 45.5899 13.1959 45.8382 12.978C46.3347 12.5423 46.8623 12.1377 47.3899 11.7331C47.452 11.6709 47.5761 11.6709 47.6692 11.6398C48.6623 12.2 49.6244 12.7291 50.6175 13.2893C50.6796 13.4137 50.6485 13.5382 50.5554 13.6316C49.8106 14.3163 49.1589 15.0944 48.1968 15.5301C47.1106 15.1877 46.0554 14.6898 45.2485 13.7872Z" fill="#448488"/>
<path d="M48.1968 15.4368C49.0657 14.8143 49.9347 14.1607 50.6175 13.3204C51.4554 13.5694 52.2313 13.8806 52.6968 14.6587C51.9209 15.4056 51.1761 16.1837 50.3382 16.8684C49.8726 17.2419 49.6554 17.5842 49.7175 18.1755C49.7485 18.6113 49.7175 19.0781 49.7175 19.5138C49.7175 19.7005 49.7485 19.9184 49.5623 20.074C49.3451 19.8562 49.3451 19.5761 49.3451 19.3271C49.3451 18.8291 49.314 18.3312 49.3451 17.8332C49.4071 16.9618 49.3761 16.1526 48.3519 15.7791C48.2899 15.6857 48.2278 15.5613 48.1968 15.4368Z" fill="#569193"/>
<path d="M3.41387 32.1184C3.41387 32.4607 3.3518 32.8342 3.41387 33.1454C3.53801 33.8612 3.2587 34.4214 2.79318 34.8883C2.01732 35.6352 1.42766 36.5066 0.6518 37.2224C0.496627 36.9735 0.713869 36.6311 0.434558 36.4444C0.434558 36.1643 0.403524 35.8842 0.403524 35.573C0.310421 34.7015 0.775938 34.0791 1.33456 33.4878C1.92421 32.8964 2.4518 32.2429 2.97939 31.5893C3.10352 31.4337 3.22766 31.3403 3.41387 31.3403C3.60007 31.6204 3.60007 31.8694 3.41387 32.1184Z" fill="#458489"/>
<path d="M52.4173 32.7408C52.4173 35.7597 52.4173 38.7474 52.4173 41.7663C52.4173 42.4821 52.2621 43.198 52.0759 43.8827C51.9207 44.4429 51.5793 44.8163 51.0517 45.0964C49.0035 46.2168 46.9552 47.3995 44.9379 48.6444C43.9448 49.2668 42.9207 49.9204 41.8345 50.3872C41.7104 50.1694 41.8035 49.9827 41.9276 49.827C43.169 48.1153 44.1311 46.2168 45.3414 44.474C46.2414 43.7582 47.2655 43.2913 48.2586 42.7311C48.8173 42.4199 49.0655 42.0153 49.0655 41.3617C49.0655 39.5255 48.9724 37.6893 49.0966 35.8531C50.0276 34.6082 51.2069 33.6434 52.4173 32.7408Z" fill="#448488"/>
<path d="M30.9725 56.923C29.9483 57.5454 28.8932 58.1367 27.869 58.7903C26.969 59.3505 26.069 59.1949 25.169 58.7903C24.4242 58.4791 23.8035 57.9811 23.1208 57.5765C21.7552 56.7673 20.4208 55.927 19.0552 55.1179C18.9932 54.9934 19.0242 54.8689 19.1173 54.7755C19.6759 53.9975 20.2966 53.2505 21.0104 52.6281C21.3518 52.5658 21.569 52.7526 21.8173 52.9082C23.2139 53.7173 24.5794 54.5577 25.9759 55.398C26.4414 55.6781 26.8139 55.6469 27.2483 55.3357C29.669 53.7174 32.2449 52.3791 34.7587 50.9163C34.8518 50.8541 34.9759 50.823 35.1001 50.7918C35.5656 50.7918 35.5035 51.0408 35.3173 51.3209C35.038 51.7878 34.6656 52.1924 34.3242 52.6281C33.269 53.9663 32.2139 55.3357 31.0966 56.6117C31.0035 56.7362 30.9725 56.8296 30.9725 56.923Z" fill="#448488"/>
<path d="M20.9793 52.7214C20.4518 53.624 19.5828 54.2464 19.0242 55.149C18.2793 54.8377 17.5966 54.3398 16.9138 53.9352C16.0138 53.4061 15.1138 52.9082 14.2759 52.2857C14.1207 52.1301 14.1828 51.9434 14.3069 51.8189C14.9897 51.1964 15.4242 50.3561 16.2 49.827C16.5414 49.7337 16.7586 49.9204 17.0069 50.076C17.8449 50.574 18.6518 51.0719 19.4897 51.5699C19.9862 52.0056 20.7311 52.0678 20.9793 52.7214Z" fill="#569093"/>
<path d="M45.4034 44.6607C44.5034 46.1235 43.6344 47.5551 42.7344 49.0178C42.4551 49.4847 42.0517 49.8582 41.8655 50.3872C41.8034 50.4184 41.7724 50.4806 41.7103 50.5428C41.1517 51.0408 40.4689 51.352 39.8482 51.7255C39.0103 52.2235 38.2655 52.8148 37.3965 53.2194C37.0241 52.9393 37.3655 52.7525 37.4896 52.5658C38.1103 51.7255 38.731 50.8852 39.3206 50.0449C39.8793 49.2668 40.4689 48.4888 41.0586 47.7107C41.2137 47.4928 41.431 47.3061 41.3689 46.9949C42.5482 46.0612 43.8517 45.3454 45.1551 44.6296C45.2172 44.5673 45.3103 44.5984 45.4034 44.6607Z" fill="#569093"/>
<path d="M41.369 47.0883C41.5863 47.1194 41.6173 47.1817 41.4932 47.3684C41.0897 47.9286 40.6863 48.4888 40.2518 49.049C39.3518 50.2939 38.4208 51.5077 37.5208 52.7526C37.4277 52.8771 37.1794 53.0016 37.3345 53.2505C36.4966 53.9041 35.5346 54.3398 34.6346 54.9C34.2621 55.1179 33.8587 55.3046 33.4552 55.4913C33.3621 55.1801 33.6104 55.0556 33.7346 54.8689C35.1621 52.8459 36.6828 50.8852 38.3277 49.0179C38.3587 48.9556 38.3897 48.8934 38.4518 48.8623C38.5139 48.7689 38.5759 48.7067 38.669 48.6444C39.2897 48.1153 40.0656 47.7419 40.7483 47.275C40.9345 47.0883 41.1518 46.9638 41.369 47.0883Z" fill="#448488"/>
<path d="M52.4175 32.7408C51.7347 33.6745 50.7106 34.2658 49.9347 35.1372C49.7485 35.3551 49.5623 35.6041 49.283 35.7285C49.0968 35.5418 49.0658 35.2928 49.0658 35.0439C49.0347 33.7056 49.0347 32.3673 49.0658 31.0291C49.0658 30.8112 49.0968 30.5933 49.252 30.4066C49.6864 30.5622 49.7175 30.7178 49.4692 31.4648C50.2451 30.6556 50.9899 30.002 51.7658 29.3485C51.952 29.1928 52.1382 28.9439 52.3864 29.0684C52.6037 29.1617 52.4795 29.4729 52.4795 29.6908C52.4485 30.3755 52.5726 31.0602 52.4175 31.7449C52.4175 32.0561 52.4175 32.3984 52.4175 32.7408Z" fill="#569193"/>
<path d="M38.545 48.8622C38.545 49.049 38.4519 49.1735 38.3278 49.3291C36.776 51.0408 35.3484 52.877 34.045 54.7755C33.8898 55.0245 33.6105 55.1801 33.4864 55.4602C32.6795 55.9893 31.8416 56.5495 30.9416 56.9541C30.7243 56.923 30.6933 56.8607 30.8484 56.674C31.5622 55.8026 32.276 54.9622 32.9588 54.0908C33.7036 53.1571 34.4484 52.1923 35.2243 51.2276C35.3484 51.0719 35.3795 50.9786 35.1312 50.9474C35.4416 50.3561 37.8933 48.8622 38.545 48.8622Z" fill="#569093"/>
<path d="M16.2311 49.8893C15.7346 50.4806 15.269 51.1031 14.7104 51.6633C14.5242 51.85 14.2759 52.0056 14.2759 52.3168C13.3449 51.8189 12.4449 51.2898 11.5759 50.6674C12.2277 50.2005 12.7552 49.6092 13.3139 49.049C13.5932 48.8 13.8414 48.5199 14.2759 48.551C15.0208 48.8934 15.7966 49.1112 16.2311 49.8893Z" fill="#448488"/>
<path d="M52.4173 31.7138C52.4173 30.8423 52.4173 30.002 52.4173 29.0061C51.3621 29.9398 50.4311 30.749 49.5621 31.6515C49.5001 31.6204 49.469 31.6204 49.4069 31.5893C49.4069 31.1847 49.4069 30.7801 49.4069 30.3444C49.1587 30.0643 49.2207 29.753 49.2828 29.4418C49.8414 28.6638 50.6173 28.1036 51.3311 27.4811C51.7035 27.1699 51.9207 26.6097 52.5414 26.6408C52.5414 28.1347 52.5414 29.5974 52.5414 31.0913C52.5414 31.278 52.6035 31.527 52.4173 31.7138Z" fill="#448488"/>
<path d="M52.5724 26.6097C52.0449 27.0765 51.4862 27.5122 50.9587 28.0102C50.4931 28.477 49.9966 28.9127 49.438 29.2862C49.1587 29.0372 49.2207 28.6949 49.2207 28.3837C49.2207 26.9831 49.2207 25.5515 49.2207 24.151C49.2518 23.8398 49.1276 23.4663 49.5621 23.3107C49.5621 24.7112 49.5621 26.1117 49.5621 27.5122C49.5931 27.5434 49.6552 27.5434 49.6862 27.5745C50.4931 26.4852 51.6104 25.676 52.4173 24.5867C52.4793 24.6178 52.5104 24.6178 52.5724 24.649C52.5724 25.2714 52.5724 25.8627 52.5724 26.4852C52.5724 26.5163 52.5724 26.5786 52.5724 26.6097Z" fill="#569093"/>
<path d="M14.3068 48.7067C14.0275 48.6755 13.8103 48.8312 13.593 49.0179C13.1586 49.4536 12.7241 49.8893 12.2896 50.325C12.1034 50.5429 11.8861 50.6985 11.5758 50.6363C11.1723 50.3873 10.7689 50.1383 10.3965 49.8893C10.3965 49.6092 10.6137 49.4536 10.7689 49.298C11.1723 48.8934 11.5758 48.4888 11.9792 48.0842C12.1654 47.8975 12.3517 47.7419 12.3517 47.4618C13.1896 47.6174 13.8723 47.9597 14.3068 48.7067Z" fill="#569093"/>
<path d="M41.6794 50.5118C41.7415 50.4495 41.7725 50.4184 41.8346 50.3562C41.8036 50.4184 41.7415 50.4495 41.6794 50.5118Z" fill="#448488"/>
<path d="M3.25867 21.1011C3.25867 20.1363 3.25867 19.1715 3.22764 18.2067C3.22764 17.9577 3.28971 17.7087 3.1035 17.4908C3.13454 16.1526 2.88626 16.4638 4.09661 15.7791C6.82764 14.2541 9.55867 12.7291 12.2897 11.1419C12.9414 10.7684 13.6552 10.4572 14.2759 9.99034C14.4311 9.89697 14.5863 9.8036 14.7414 9.71023C14.8035 9.61687 14.9587 9.64799 15.0518 9.55462C15.1138 9.46125 15.269 9.49238 15.3621 9.39901C15.4552 9.30564 15.5794 9.33676 15.6414 9.2434C18.0001 8.06074 20.2966 6.7536 22.5621 5.38421C23.6483 4.73064 24.7656 4.13931 25.7897 3.4235C26.069 3.23676 26.3173 3.23676 26.5966 3.4235C26.938 3.64136 27.2794 3.92146 27.6828 4.01482C28.738 4.76176 29.9173 5.32197 31.0035 5.94442C31.469 6.22452 31.9656 6.44238 32.4621 6.69136C33.3001 7.25156 34.2001 7.7184 35.1001 8.18523C35.3483 8.30972 35.5966 8.37197 35.7828 8.62095C35.5035 8.86993 35.2552 8.65207 35.038 8.5587C33.7035 8.02962 32.4311 7.37605 31.0966 6.81585C29.638 6.22452 28.1173 5.88217 26.6587 5.35309C26.2863 5.19748 25.9138 5.35309 25.6035 5.53982C24.7035 6.10003 23.6794 6.50462 22.8414 7.12707C22.2207 7.59391 21.4759 7.87401 20.7932 8.18523C19.1173 8.93217 17.5035 9.83472 15.9207 10.7373C14.4932 11.5776 12.9725 12.2312 11.5138 13.0092C10.0552 13.8184 8.62764 14.6276 7.23109 15.5301C7.13799 15.5924 7.07592 15.6235 6.98281 15.6857C5.67936 16.4016 5.15178 17.4286 4.96557 18.9536C4.68626 21.4434 4.8104 23.9332 4.7173 26.3919C4.7173 26.7031 4.87247 27.1077 4.40695 27.2633C4.18971 27.1077 4.18971 26.8276 4.15867 26.6097C4.12764 26.423 4.12764 26.2051 3.97247 26.174C3.28971 26.0184 3.44488 25.5204 3.41385 25.0536C3.28971 23.8087 3.41385 22.4393 3.25867 21.1011Z" fill="#A2CBD3"/>
<path d="M14.3071 48.7067C13.7174 48.2087 13.0347 47.8663 12.3519 47.4929C11.0795 46.6215 9.71398 45.8745 8.37949 45.0964C8.25536 45.0342 8.13122 44.9408 8.00708 44.8475C8.28639 44.474 8.62777 44.2873 9.09329 44.5674C9.34156 44.723 9.5588 44.6607 9.74501 44.4429C10.0864 44.1628 10.2416 43.6648 10.7071 43.5092C11.6381 43.3847 11.9485 42.5444 12.414 41.922C12.7243 41.8286 12.9416 42.0153 13.1588 42.1398C13.9967 42.6378 14.8347 43.1357 15.6726 43.6337C16.3864 44.0072 17.0692 44.4429 17.7519 44.8475C18.4347 45.2209 19.0864 45.6255 19.7381 46.0301C21.0416 46.8082 22.4381 47.4618 23.6174 48.4266C23.6485 48.4888 23.6795 48.551 23.7105 48.6133C23.7105 48.6444 23.7105 48.6755 23.7105 48.7067C23.4312 49.0179 23.3692 49.6092 22.7795 49.6092C22.4692 49.1112 21.9416 48.8623 21.445 48.6133C21.1347 48.4577 20.9485 48.9245 20.7002 49.1112C20.6381 49.1735 20.545 49.2357 20.4829 49.3291C19.7692 50.0449 19.7692 50.0449 20.6071 50.6674C20.7933 50.823 21.0416 50.9475 21.0416 51.2276C20.9795 51.4766 20.7312 51.6633 20.5761 51.5388C20.1416 51.2898 19.8312 51.601 19.4898 51.6633C18.5588 51.2587 17.7519 50.6674 16.8829 50.1694C16.6657 50.0449 16.4795 49.8893 16.2312 49.8582C15.6416 49.4225 14.9898 49.049 14.3071 48.7067Z" fill="#BCDAE0"/>
<path d="M9.80699 44.5363C9.43458 44.972 9.43458 44.972 9.0001 44.6919C8.78285 44.5363 8.59665 44.5052 8.41044 44.6919C8.2863 44.7853 8.16216 44.8475 8.00699 44.8475C6.82768 44.2873 5.67941 43.6337 4.5932 42.9179C4.28285 42.4511 4.25182 41.8909 4.22079 41.3307C4.18975 38.9654 4.18975 36.6312 4.22079 34.2659C4.22079 33.7679 4.28285 33.2699 4.46906 32.8031C5.21389 32.274 5.95872 31.7761 6.73458 31.2781C7.75872 30.6245 8.06906 29.6597 8.06906 28.5705C8.1001 26.423 8.06906 24.2444 8.06906 22.097C8.06906 21.7235 7.97596 21.35 8.2863 21.0388C8.81389 21.35 8.56561 21.848 8.62768 22.2837C8.68975 23.5909 8.59665 24.898 8.62768 26.2363C8.65872 26.4541 8.65872 26.7031 8.62768 26.921C8.62768 28.5082 8.59665 30.1266 8.68975 31.7138C8.81389 33.799 8.81389 35.8842 8.68975 37.9694C8.62768 38.872 8.90699 39.5256 9.65182 39.9613C10.3656 40.3659 11.0794 40.8016 11.7311 41.2684C11.9794 41.424 12.2587 41.5796 12.2587 41.922C12.2587 42.0465 12.3829 42.2021 12.2277 42.3266C11.9484 42.6067 11.7622 42.949 11.4829 43.2291C11.2035 43.4781 10.9553 43.6337 10.5829 43.6026C10.4897 43.198 10.8311 43.0424 11.0173 42.7934C11.2346 42.5133 11.2966 42.2955 10.9242 42.0776C10.0863 41.5796 9.21734 41.1439 8.31734 40.8016C8.00699 40.6771 7.78975 40.7393 7.57251 40.9572C7.16906 41.3618 6.4863 41.7041 6.45527 42.2021C6.42423 42.7934 7.26216 42.7623 7.66561 43.0735C8.44147 43.6648 9.24837 43.9138 9.80699 44.5363Z" fill="#BFDDE2"/>
<path d="M4.59319 32.7408C4.31388 35.2929 4.50009 37.8449 4.43802 40.3969C4.40699 41.2372 4.62423 42.0776 4.59319 42.9179C4.56216 42.9179 4.53112 42.9179 4.53112 42.9179C3.56906 42.5444 3.60009 42.5444 3.60009 41.5485C3.60009 40.4281 3.60009 39.2765 3.60009 38.1561C3.60009 36.3821 3.60009 34.577 3.60009 32.8031C3.60009 32.5852 3.66216 32.3673 3.47595 32.1806C3.47595 31.9316 3.47595 31.6827 3.47595 31.4337C3.56906 29.6597 3.28975 27.8857 3.32078 26.1117C3.35181 24.4622 3.32078 22.7816 3.32078 21.1321C3.53802 21.3189 3.44492 21.599 3.47595 21.8168C3.47595 22.9995 3.47595 24.1821 3.47595 25.3959C3.47595 25.5827 3.41388 25.8005 3.56906 25.9561C3.72423 26.1117 3.8794 25.9561 4.06561 25.925C4.31388 25.8939 4.34492 26.0495 4.37595 26.2362C4.43802 26.6097 4.25181 27.0454 4.53112 27.3878C4.84147 27.7301 4.8725 28.1658 4.90354 28.5704C4.96561 29.7219 4.93457 30.9046 4.90354 32.0872C4.81043 32.3051 4.7794 32.5541 4.59319 32.7408Z" fill="#9CC7CF"/>
<path d="M14.7414 9.74134C14.6483 9.92808 14.4931 10.0214 14.2759 10.0214C14.369 9.83471 14.5242 9.71022 14.7414 9.74134Z" fill="#4E9294"/>
<path d="M15.6106 9.27451C15.5485 9.399 15.4554 9.43012 15.3313 9.43012C15.3934 9.30563 15.4865 9.27451 15.6106 9.27451Z" fill="#4E9294"/>
<path d="M15.3311 9.43011C15.269 9.5546 15.1449 9.58573 15.0208 9.58573C15.0828 9.46124 15.207 9.43011 15.3311 9.43011Z" fill="#4E9294"/>
<path d="M15.0208 9.58575C14.9587 9.71024 14.8346 9.74136 14.7104 9.74136C14.7725 9.61688 14.8967 9.58575 15.0208 9.58575Z" fill="#4E9294"/>
<path d="M49.5622 23.3107C49.376 23.5286 49.4691 23.8087 49.4381 24.0888C49.2519 25.3026 49.4071 26.5475 49.345 27.7924C49.345 28.1036 49.314 28.4459 49.345 28.7572C49.4381 29.473 49.1277 29.8776 48.414 30.0332C47.9484 29.9398 48.0726 29.5975 48.0726 29.2551C47.3588 29.9398 46.7071 30.6245 46.0243 31.3092C45.714 31.6204 45.6209 31.9628 45.5588 32.3674C45.5277 32.5541 45.5588 32.9276 45.1553 32.6786C45.0312 32.4296 45.0312 32.1184 44.6277 32.025C44.2553 31.9317 44.3174 31.5582 44.3174 31.2781C44.2864 30.5 44.3174 29.6908 44.3174 28.9128C44.3174 26.2363 44.3174 23.5286 44.2864 20.8521C44.2864 20.4786 44.2864 20.1051 44.1622 19.7317C44.0381 19.3893 43.8519 19.1092 43.5415 18.9536C42.7036 18.4868 41.9588 17.8643 41.1519 17.3352C40.7174 17.024 40.2829 16.7439 39.8174 16.4638C39.6002 16.3082 39.2588 16.246 39.2898 15.8414C40.345 14.2852 41.8967 13.5072 43.6346 13.0092C44.2243 13.1337 44.6588 13.6317 45.2484 13.7873C46.2105 14.3786 47.1415 15.0322 48.1967 15.4368C48.445 15.6546 48.7243 15.8102 49.0346 15.9036C49.5312 16.0281 49.5933 16.3393 49.5933 16.775C49.5622 17.8643 49.5933 18.9536 49.5622 20.0429C49.5933 21.1322 49.5622 22.2215 49.5622 23.3107Z" fill="#BDDBE0"/>
<path d="M43.6347 13.0092C43.5727 13.1337 43.4796 13.2582 43.3244 13.2893C42.3313 13.5071 41.5244 14.0985 40.6865 14.6587C40.252 14.9388 39.8175 15.2189 39.6313 15.7168C39.5692 15.8413 39.4451 15.8413 39.3209 15.8413C39.2899 15.8413 39.2589 15.8413 39.2589 15.8413C39.2278 15.8102 39.1658 15.8102 39.1347 15.7791C39.1037 15.7791 39.1037 15.748 39.0727 15.748C39.0416 15.7168 38.9796 15.7168 38.9485 15.6857C38.9175 15.6546 38.8554 15.6235 38.8244 15.5924C38.7934 15.5612 38.7313 15.5301 38.7003 15.499L38.6382 15.4679C38.6072 15.4367 38.5451 15.4056 38.514 15.4056C38.483 15.3745 38.4209 15.3745 38.3899 15.3434C38.3278 15.3123 38.2658 15.2811 38.2037 15.25C38.1727 15.2189 38.1106 15.2189 38.0796 15.1878C38.0485 15.1566 38.0175 15.1255 37.9554 15.0944L37.8934 15.0633C37.8313 15.0321 37.7692 15.001 37.7072 14.9699C37.6451 14.9388 37.6141 14.9388 37.552 14.9077C37.4589 14.8765 37.3347 14.8454 37.2416 14.8143C36.9313 14.6898 36.652 14.5342 36.3727 14.3786C33.8589 12.9469 31.3761 11.4531 28.8313 10.0837C28.4278 9.86582 28.0554 9.64797 27.652 9.49235C26.8761 9.15001 26.0692 9.18113 25.2934 9.5546C24.083 10.1459 22.8727 10.7995 21.6934 11.4531C18.3416 13.3827 14.9899 15.2811 11.7934 17.4286C11.0796 17.8954 10.4278 18.4245 9.71405 18.8602C9.00026 19.2959 8.50371 19.8872 8.50371 20.7587C8.50371 20.9143 8.47267 21.0699 8.34854 21.1633C8.34854 23.7776 8.3175 26.3607 8.34854 28.975C8.34854 29.6597 7.97612 30.2199 7.82095 30.8735C7.78991 30.9668 7.66578 31.0602 7.57267 31.1225C6.85888 31.6204 6.14509 32.0872 5.46233 32.5852C5.21405 32.7719 4.93474 32.8653 4.6244 32.8342C4.59336 31.0291 4.7175 29.2551 4.46922 27.45C4.46922 25.5827 4.46922 23.7153 4.46922 21.848C4.46922 21.2255 4.43819 20.6031 4.6244 20.0117C4.87267 19.2959 4.77957 18.549 4.87267 17.802C4.96578 17.273 5.12095 16.9306 5.5244 16.6194C6.11405 16.1837 6.67267 15.6857 7.35543 15.3434C8.28647 14.8765 9.00026 14.0362 9.99336 13.6939C10.9244 13.3827 11.6692 12.7602 12.5382 12.3245C12.9727 12.1066 13.4382 11.8888 13.9037 11.7332C14.0899 11.6709 14.3072 11.6087 14.4313 11.4842C15.083 10.9551 15.8278 10.5505 16.6347 10.2704C17.2244 10.0526 17.6899 9.61684 18.2485 9.33674C19.3037 8.80766 20.3899 8.3097 21.4451 7.78062C21.7865 7.59388 22.1589 7.43827 22.5003 7.22041C23.4934 6.5046 24.6106 6.00664 25.6347 5.38419C26.0692 5.13521 26.4727 5.13521 26.9072 5.29082C27.9003 5.69541 28.9554 5.97552 29.9796 6.28674C30.7554 6.5046 31.5313 6.84695 32.2451 7.22041C33.3003 7.78062 34.4485 8.12297 35.5037 8.68317C35.5968 8.71429 35.6899 8.71429 35.783 8.71429C36.9003 9.15001 37.9244 9.8347 39.0106 10.3638C39.2589 10.4883 39.4761 10.6439 39.7554 10.7061C40.0658 11.0174 40.5623 11.0485 40.8416 11.3908C40.9037 11.5153 41.0589 11.4842 41.152 11.5776C41.2141 11.6709 41.3692 11.6709 41.4623 11.7332C41.5244 11.8265 41.6796 11.7954 41.7727 11.8888C41.8347 11.951 41.8968 12.0133 41.9589 12.0133C41.9899 12.0133 42.052 12.0133 42.083 12.0444C42.1451 12.0755 42.1761 12.1378 42.2382 12.1689C42.3003 12.2623 42.4554 12.2311 42.5485 12.3245C42.6106 12.4179 42.7658 12.3867 42.8278 12.4801C42.8899 12.5112 42.9209 12.5735 42.983 12.6046C43.0451 12.698 43.2003 12.698 43.2934 12.7602C43.3554 12.8536 43.5106 12.8225 43.5727 12.9158C43.5416 12.9158 43.5727 12.9781 43.6347 13.0092Z" fill="#C1DFE4"/>
<path d="M42.7346 12.4178C42.6105 12.4178 42.5174 12.3867 42.4553 12.2622C42.5484 12.2622 42.6726 12.2934 42.7346 12.4178Z" fill="#BDDBE0"/>
<path d="M43.169 12.7291C43.0448 12.7291 42.9207 12.6979 42.8586 12.5735C43.0138 12.5735 43.1069 12.6046 43.169 12.7291Z" fill="#BDDBE0"/>
<path d="M42.4241 12.2622C42.3 12.2622 42.1758 12.2311 42.1138 12.1066C42.2689 12.1066 42.362 12.1378 42.4241 12.2622Z" fill="#BDDBE0"/>
<path d="M43.4793 12.8536C43.3551 12.8536 43.231 12.8225 43.2 12.698C43.2931 12.7291 43.4172 12.7602 43.4793 12.8536Z" fill="#BDDBE0"/>
<path d="M41.6795 11.8265C41.5553 11.8265 41.4312 11.7954 41.3691 11.6709C41.5243 11.6709 41.6174 11.7021 41.6795 11.8265Z" fill="#BDDBE0"/>
<path d="M41.4002 11.6709C41.276 11.6709 41.1519 11.6398 41.0898 11.5153C41.214 11.5153 41.3381 11.5464 41.4002 11.6709Z" fill="#BDDBE0"/>
<path d="M41.0896 11.5153C40.9655 11.5153 40.8414 11.4842 40.7793 11.3286C40.9345 11.3597 41.0276 11.3908 41.0896 11.5153Z" fill="#BDDBE0"/>
<path d="M42.8895 12.5735C42.8275 12.5423 42.7964 12.4801 42.7344 12.449C42.7964 12.449 42.8585 12.4801 42.8895 12.5735Z" fill="#BDDBE0"/>
<path d="M43.6347 13.0092C43.5726 12.978 43.5416 12.9158 43.4795 12.8847C43.5416 12.8847 43.6036 12.9158 43.6347 13.0092Z" fill="#BDDBE0"/>
<path d="M41.8657 11.951C41.7725 11.951 41.7105 11.8888 41.6794 11.8265C41.7415 11.8577 41.8036 11.9199 41.8657 11.951Z" fill="#BDDBE0"/>
<path d="M42.1449 12.1066C42.0829 12.0755 42.0518 12.0133 41.9897 11.9821C42.0518 11.9821 42.1139 12.0444 42.1449 12.1066Z" fill="#BDDBE0"/>
<path d="M48.2277 29.9086C48.5691 29.8775 48.7863 29.5974 49.0656 29.4729C49.3139 29.3484 49.2518 29.0995 49.2518 28.8816C49.2518 27.5122 49.2518 26.1428 49.2518 24.7734C49.2518 24.5245 49.1587 24.2755 49.407 24.0887C49.407 25.8316 49.407 27.5745 49.407 29.3173C49.407 29.6597 49.407 30.002 49.376 30.3444C49.2829 30.4688 49.2518 30.6245 49.2518 30.749C49.2518 32.3984 49.2518 34.0791 49.2208 35.7285C49.2208 37.7204 49.1898 39.6811 49.2518 41.6729C49.2518 42.2331 49.0656 42.5132 48.6001 42.7622C47.576 43.3224 46.5829 43.9137 45.5898 44.5051C45.4967 44.5673 45.4346 44.6296 45.3725 44.6918C44.8449 44.9097 44.3794 45.2209 43.9139 45.5321C43.0449 46.0612 42.207 46.5903 41.3691 47.1194C40.4381 47.6173 39.5691 48.1775 38.7001 48.7689C38.6381 48.8 38.607 48.8622 38.5449 48.8933C37.7381 49.2357 37.0553 49.7959 36.2794 50.2316C35.876 50.4495 35.5036 50.7296 35.1312 51.0097C32.4001 52.5658 29.6381 54.0285 27.0001 55.7714C26.6587 55.9893 26.4415 55.9581 26.1312 55.7714C24.6415 54.8689 23.1208 53.9663 21.6001 53.0637C21.3829 52.9393 21.1967 52.7836 20.9484 52.7525C20.5139 52.3479 19.8932 52.1612 19.4587 51.7255C19.5208 51.6632 19.6139 51.601 19.6449 51.5076C19.7691 51.1342 20.0174 51.103 20.2967 51.3209C20.5449 51.5387 20.7622 51.5387 20.9484 51.2586C21.4449 50.6051 21.8794 49.8893 22.7484 49.6092C22.9036 49.6092 23.0277 49.5158 23.0898 49.3602C23.1829 49.049 23.4622 48.8933 23.6484 48.7066C23.9898 48.5199 24.207 48.8311 24.4863 48.9556C26.6898 50.4806 26.4725 50.2005 28.3036 48.9867C31.8105 46.6836 35.5036 44.6607 39.1036 42.5444C40.4381 41.7352 41.7105 40.8015 43.076 40.0546C43.8208 39.65 44.1312 38.9964 44.1312 38.125C44.1001 35.4484 44.1312 32.7408 44.1312 30.0643C44.1312 29.7219 44.0691 29.3796 44.2553 29.0372C44.3174 28.975 44.3794 28.9438 44.4725 28.975C44.4725 29.9086 44.4725 30.8423 44.4725 31.7449C44.5967 31.9316 44.6587 31.8382 44.7518 31.8071C45.0622 31.6204 45.2174 31.7137 45.2174 32.0872C45.2174 32.3051 45.2174 32.5229 45.2174 32.7408C45.4656 32.9898 45.4036 33.301 45.3725 33.6122C45.3725 33.9234 45.0312 34.2347 45.4346 34.5148C46.1794 33.8301 46.8622 33.0831 47.607 32.3673C47.9484 32.0561 48.0105 31.6515 48.0105 31.2158C48.0725 30.8112 47.9174 30.3132 48.2277 29.9086Z" fill="#BAD9DE"/>
<path d="M38.5449 48.8623C38.576 48.8 38.607 48.7378 38.7001 48.7378C38.6691 48.7689 38.607 48.8312 38.5449 48.8623Z" fill="#569093"/>
<path d="M12.3518 41.9531C11.576 41.3306 10.738 40.8015 9.86906 40.3347C8.81389 39.7745 8.44147 39.0276 8.53458 37.8138C8.65871 36.102 8.56561 34.3592 8.59665 32.6163C8.59665 32.3674 8.59665 32.1184 8.59665 31.8694C8.31734 30.9668 8.84492 30.3444 9.37251 29.7531C9.65182 29.4418 9.90009 29.5352 9.96216 29.9398C10.0242 30.3133 9.9932 30.6867 10.1173 31.0291C10.2104 33.301 10.1484 35.6041 10.1794 37.876C10.1794 38.1561 10.0863 38.4674 10.3035 38.7163C12.1346 39.7745 13.8725 41.0194 15.7346 42.0464C16.0449 42.202 16.3553 42.3577 16.5415 42.6689C16.4173 43.198 16.2311 43.6648 15.6104 43.7582C14.6794 43.3536 13.8725 42.7623 13.0035 42.2643C12.7863 42.1709 12.6001 42.0153 12.3518 41.9531Z" fill="#408087"/>
<path d="M9.80696 44.5363C9.34144 44.4429 9.0311 44.1005 8.65868 43.8827C7.82075 43.3847 7.01386 42.8868 6.02075 42.4511C6.67248 41.7664 7.26213 41.175 7.85179 40.6148C7.97592 40.4903 8.1311 40.5215 8.25524 40.5837C9.43455 41.0505 10.5828 41.6419 11.669 42.3266C11.3897 42.8245 10.9863 43.198 10.6759 43.6337C10.2725 43.8204 10.2414 44.3807 9.80696 44.5363Z" fill="#D4E8ED"/>
<path d="M24.3933 49.049C24.114 49.0179 23.9588 48.7378 23.6795 48.7067C23.6174 48.6755 23.5864 48.6133 23.5243 48.5822C22.4692 47.773 21.2898 47.1817 20.1416 46.497C19.9864 46.4036 19.7692 46.3414 19.645 46.1857C19.8312 45.7189 20.2347 45.4077 20.5761 45.0653C20.8554 45.0031 21.0416 45.1898 21.2588 45.2832C22.4381 45.9056 23.5554 46.6526 24.7036 47.3373C24.9209 47.4929 25.1692 47.6174 25.2312 47.9286C25.1071 48.4266 24.7967 48.7689 24.3933 49.049Z" fill="#528C92"/>
<path d="M22.7794 49.6092C22.3139 49.9204 22.0035 50.3561 21.6001 50.7296C21.4139 50.9163 21.2587 51.1342 20.9794 51.2587C20.607 50.7918 20.0173 50.6051 19.5208 50.1071C20.0794 49.5469 20.669 48.9867 21.2276 48.3954C21.3518 48.302 21.4759 48.302 21.569 48.3954C22.0035 48.7066 22.407 49.049 22.8414 49.3913C22.8414 49.4225 22.7794 49.5469 22.7794 49.6092Z" fill="#D5E8EB"/>
<path d="M20.5449 45.1276C20.4518 45.6255 20.0173 45.8745 19.6449 46.1857C18.9621 45.8434 18.3104 45.4388 17.6897 45.0031C17.5346 44.3495 18.0932 44.1939 18.4346 43.8827C19.3035 44.0071 20.0173 44.4117 20.5449 45.1276Z" fill="#418088"/>
<path d="M18.4347 43.9449C18.2796 44.3495 17.7209 44.5052 17.6899 45.0031C16.9761 44.6608 16.2934 44.225 15.6106 43.7893C16.0451 43.5715 16.1692 43.0735 16.5106 42.7312C17.3485 42.8557 18.0313 43.1669 18.4347 43.9449Z" fill="#528D92"/>
<path d="M23.5244 48.5822C23.6175 48.5822 23.6486 48.6444 23.6796 48.7067C23.6175 48.6755 23.5554 48.6133 23.5244 48.5822Z" fill="#BAD9DE"/>
<path d="M8.31738 21.0699C8.31738 20.8521 8.31738 20.6342 8.31738 20.4164C8.31738 19.7628 8.59669 19.2648 9.12428 18.8914C11.3588 17.3664 13.6243 15.8414 15.9519 14.4408C17.8139 13.3516 19.676 12.2934 21.5381 11.2352C22.0036 11.4531 21.6622 11.7021 21.507 11.8577C20.9484 12.449 20.4519 13.1026 19.9243 13.6939C19.8932 13.7561 19.8312 13.8184 19.8001 13.8806C19.7381 13.974 19.676 14.0363 19.5829 14.1296C18.1553 15.0944 16.6036 15.8414 15.176 16.7439C13.6553 17.6776 12.1657 18.6424 10.645 19.6072C10.0243 20.0118 9.71393 20.4475 9.80704 21.1944C9.5898 21.9725 9.12428 22.3459 8.44152 22.3459C8.41049 21.8791 8.56566 21.4434 8.31738 21.0699Z" fill="#45858B"/>
<path d="M7.57257 33.0209C7.75878 34.1724 7.29326 35.0127 6.45533 35.7286C5.83464 36.2576 5.30705 36.849 4.7174 37.4403C4.53119 37.2536 4.6243 37.0668 4.59326 36.9112C4.8105 36.1643 4.53119 35.4173 4.74843 34.6704C4.8105 34.6082 4.84154 34.577 4.90361 34.5148C4.96568 34.4525 4.99671 34.4214 5.05878 34.3592C5.12085 34.2969 5.15188 34.2658 5.21395 34.2036C5.27602 34.1413 5.30705 34.1102 5.36912 34.048C5.43119 33.9857 5.46223 33.9546 5.5243 33.8923C5.58636 33.8301 5.6174 33.799 5.67947 33.7367C5.74154 33.6745 5.77257 33.6434 5.83464 33.5811C5.89671 33.5189 5.92774 33.4877 5.98981 33.4255C6.05188 33.3633 6.08292 33.3321 6.14498 33.2699C6.20705 33.2076 6.23809 33.1765 6.30016 33.1143C6.36223 33.052 6.39326 33.0209 6.45533 32.9587C6.5174 32.8964 6.54843 32.8653 6.6105 32.8031C6.67257 32.7408 6.7036 32.7097 6.76567 32.6474C6.82774 32.5852 6.85878 32.5541 6.92085 32.4918C6.98292 32.4296 7.01395 32.3985 7.07602 32.3362C7.13809 32.274 7.16912 32.2429 7.23119 32.1806C7.29326 32.1184 7.32429 32.0872 7.38636 32.025C7.44843 31.9628 7.47947 31.9316 7.54154 31.8694C7.6036 31.8694 7.63464 31.8694 7.69671 31.8694C7.69671 32.3362 7.69671 32.6786 7.57257 33.0209Z" fill="#D4E9ED"/>
<path d="M8.47266 26.9209C8.47266 26.7342 8.47266 26.5164 8.47266 26.3296C8.50369 25.4582 8.59679 24.5868 9.34162 23.9954C9.52783 23.8709 9.683 23.5597 9.93128 23.9332C10.1175 25.2403 10.0554 26.5475 9.96231 27.8546C9.96231 27.8857 9.93128 27.948 9.90024 27.9791C9.5899 28.4148 9.21748 29.0684 8.72093 28.9439C8.28645 28.8194 8.62783 28.0725 8.53473 27.6368C8.50369 27.3878 8.59679 27.1388 8.47266 26.9209Z" fill="#418188"/>
<path d="M9.80714 23.7776C9.43473 24.0888 9.18645 24.4934 8.87611 24.898C8.6899 25.147 8.59679 25.3959 8.59679 25.7072C8.59679 25.925 8.65886 26.1429 8.47266 26.3296C8.47266 24.9913 8.47266 23.6531 8.47266 22.2837C8.96921 22.0036 9.62093 21.848 9.65197 21.101C9.80714 21.101 9.90024 21.1633 9.93128 21.2878C10.0554 22.1281 10.2106 22.9684 9.80714 23.7776Z" fill="#538E93"/>
<path d="M8.47244 26.9209C8.72072 27.1699 8.59658 27.4811 8.59658 27.7612C8.62761 28.1347 8.59658 28.477 8.59658 28.9128C9.1552 28.726 9.34141 28.1969 9.77589 27.948C10.0862 28.9439 10.3655 29.9087 9.93106 30.9357C9.62072 30.5622 9.90003 30.1265 9.71382 29.6908C9.27934 29.9087 9.21727 30.4066 8.87589 30.6867C8.50348 31.0291 8.59658 31.4648 8.56554 31.8694C8.47244 31.776 8.44141 31.6515 8.44141 31.527C8.47244 29.9709 8.47244 28.4459 8.47244 26.9209Z" fill="#538E93"/>
<path d="M4.74842 34.6704C4.74842 35.2306 4.74842 35.7908 4.74842 36.3821C4.74842 36.5689 4.77946 36.7867 4.59325 36.9112C4.59325 36.351 4.59325 35.7908 4.59325 35.1995C4.59325 35.0438 4.56221 34.826 4.74842 34.6704Z" fill="#C1DFE4"/>
<path d="M7.57251 33.0209C7.57251 32.6786 7.57251 32.3362 7.57251 31.9627C7.82079 32.3362 7.82079 32.6786 7.57251 33.0209Z" fill="#C1DFE4"/>
<path d="M4.90371 34.5148C4.84164 34.577 4.8106 34.6081 4.74854 34.6704C4.77957 34.6393 4.84164 34.577 4.90371 34.5148Z" fill="#C1DFE4"/>
<path d="M7.41738 31.9939C7.35531 32.0561 7.32428 32.0873 7.26221 32.1495C7.32428 32.0873 7.38634 32.025 7.41738 31.9939Z" fill="#C1DFE4"/>
<path d="M7.26211 32.1495C7.20004 32.2118 7.169 32.2429 7.10693 32.3051C7.169 32.2429 7.23107 32.1806 7.26211 32.1495Z" fill="#C1DFE4"/>
<path d="M7.13784 32.274C7.07577 32.3362 7.04473 32.3674 6.98267 32.4296C7.0137 32.3985 7.07577 32.3362 7.13784 32.274Z" fill="#C1DFE4"/>
<path d="M6.98281 32.4296C6.92074 32.4918 6.88971 32.523 6.82764 32.5852C6.88971 32.523 6.92074 32.4918 6.98281 32.4296Z" fill="#C1DFE4"/>
<path d="M6.82754 32.5852C6.76547 32.6475 6.73443 32.6786 6.67236 32.7408C6.73443 32.6786 6.76547 32.6475 6.82754 32.5852Z" fill="#C1DFE4"/>
<path d="M6.67251 32.7408C6.61044 32.8031 6.5794 32.8342 6.51733 32.8964C6.5794 32.8342 6.64147 32.7719 6.67251 32.7408Z" fill="#C1DFE4"/>
<path d="M6.51723 32.8964C6.45516 32.9587 6.42413 32.9898 6.36206 33.052C6.42413 32.9898 6.4862 32.9275 6.51723 32.8964Z" fill="#C1DFE4"/>
<path d="M6.39321 33.0209C6.33114 33.0832 6.30011 33.1143 6.23804 33.1765C6.26907 33.1454 6.33114 33.0832 6.39321 33.0209Z" fill="#C1DFE4"/>
<path d="M6.23818 33.1765C6.17611 33.2388 6.14508 33.2699 6.08301 33.3322C6.14508 33.2699 6.17611 33.2388 6.23818 33.1765Z" fill="#C1DFE4"/>
<path d="M6.08291 33.3322C6.02084 33.3944 5.9898 33.4255 5.92773 33.4878C5.9898 33.4255 6.02084 33.3944 6.08291 33.3322Z" fill="#C1DFE4"/>
<path d="M5.92763 33.4878C5.86556 33.55 5.83453 33.5812 5.77246 33.6434C5.83453 33.5812 5.8966 33.5189 5.92763 33.4878Z" fill="#C1DFE4"/>
<path d="M5.7726 33.6434C5.71054 33.7056 5.6795 33.7368 5.61743 33.799C5.6795 33.7368 5.74157 33.6745 5.7726 33.6434Z" fill="#C1DFE4"/>
<path d="M5.64834 33.7679C5.58627 33.8301 5.55523 33.8613 5.49316 33.9235C5.5242 33.8924 5.58627 33.8301 5.64834 33.7679Z" fill="#C1DFE4"/>
<path d="M5.49331 33.9235C5.43124 33.9857 5.4002 34.0169 5.33813 34.0791C5.4002 34.0169 5.43124 33.9857 5.49331 33.9235Z" fill="#C1DFE4"/>
<path d="M5.33803 34.0791C5.27596 34.1413 5.24493 34.1725 5.18286 34.2347C5.24493 34.1725 5.27596 34.1413 5.33803 34.0791Z" fill="#C1DFE4"/>
<path d="M5.18276 34.2347C5.12069 34.2969 5.08966 34.3281 5.02759 34.3903C5.08966 34.3281 5.15173 34.2658 5.18276 34.2347Z" fill="#C1DFE4"/>
<path d="M5.02773 34.3903C4.96566 34.4525 4.93463 34.4837 4.87256 34.5459C4.93463 34.4837 4.9967 34.4214 5.02773 34.3903Z" fill="#C1DFE4"/>
<path d="M48.2278 29.9087C48.2278 30.4689 48.2278 31.0602 48.2278 31.6204C48.2278 31.8694 48.1968 32.1184 48.0106 32.3051C47.1416 33.1454 46.3347 34.0791 45.4037 34.8572C45.0002 34.5459 45.2175 34.1725 45.2485 33.799C45.2485 33.4567 45.2485 33.1143 45.2485 32.7408C45.4037 32.6164 45.4037 32.4296 45.4037 32.274C45.3106 31.7761 45.5588 31.4337 45.9002 31.1225C46.5209 30.5312 47.0795 29.9398 47.7002 29.3485C47.8244 29.224 47.9175 29.0373 48.2278 28.975C48.2278 29.2863 48.2278 29.5975 48.2278 29.9087Z" fill="#D5E8EB"/>
<path d="M36.4656 14.223C36.776 14.3786 37.0863 14.5031 37.3656 14.6587C37.4277 14.752 37.5829 14.7209 37.6449 14.8143C37.738 14.9077 37.8622 14.8765 37.9553 14.9699C38.0173 15.001 38.0484 15.0633 38.1104 15.0944C38.1725 15.1878 38.3277 15.1566 38.3898 15.25C38.4829 15.3434 38.607 15.3122 38.7001 15.4056C38.7622 15.4367 38.8242 15.499 38.8553 15.5612C38.9484 15.6546 39.0725 15.6235 39.1346 15.7168C39.1967 15.748 39.2277 15.8102 39.2898 15.8413C39.8794 16.3704 40.6553 16.6505 41.2139 17.1796C40.8104 17.4597 40.407 17.7398 40.0035 17.9888C39.7553 18.0199 39.5691 17.8954 39.3829 17.7709C38.3277 17.0551 37.2415 16.4015 36.1553 15.7791C35.938 15.6546 35.7208 15.5301 35.6277 15.2811C35.6898 14.752 35.9691 14.4097 36.4656 14.223Z" fill="#528C92"/>
<path d="M48.3208 25.0847C48.5071 25.9561 48.1967 26.6408 48.1967 27.3567C48.1967 27.45 48.0726 27.5745 47.9795 27.6679C47.1726 28.3837 46.3346 29.0995 45.4036 29.8776C45.4036 28.9439 45.1243 28.1036 45.9933 27.3878C46.8002 26.7342 47.4829 25.925 48.3208 25.0847Z" fill="#D4E8EC"/>
<path d="M44.5037 28.975C44.4726 29.0061 44.4106 29.0061 44.3795 29.0372C44.1623 28.8505 44.1623 28.6015 44.1623 28.3526C44.1313 26.6719 44.1623 24.9602 44.1623 23.2796C44.1623 23.124 44.1623 22.9684 44.2554 22.8439C43.6658 23.2485 43.3864 23.7776 43.3864 24.5245C43.4175 25.9561 43.4175 27.3566 43.3864 28.7883C43.3864 29.0995 43.5106 29.5041 42.983 29.5975C42.7968 29.3796 42.7968 29.0995 42.7968 28.8194C42.7347 26.0184 42.8589 23.2173 42.983 20.3852C43.2623 19.8872 43.8209 19.7628 44.2244 19.4204C44.5658 19.7316 44.5347 20.1362 44.5347 20.5097C44.5347 23.0617 44.5037 25.6138 44.5037 28.1347C44.5037 28.4459 44.5037 28.6949 44.5037 28.975Z" fill="#518C92"/>
<path d="M44.2241 19.4204C44.0689 19.7005 43.8206 19.8873 43.6034 20.1051C43.3861 20.3852 43.293 20.1051 43.1689 20.0118C43.0137 20.074 42.8896 20.0118 42.7655 19.9184C42.0517 19.4204 41.3379 18.9225 40.593 18.4556C40.3758 18.3 40.0965 18.2067 40.0344 17.8954C40.3137 17.4597 40.6861 17.1485 41.2137 17.1485C42.1137 17.7398 42.9827 18.3 43.8827 18.8914C44.0689 19.047 44.2241 19.2026 44.2241 19.4204Z" fill="#418088"/>
<path d="M45.6519 15.0321C45.1243 15.7791 44.2864 16.2148 43.7277 16.8684C43.6036 17.024 43.4795 16.9929 43.3243 16.8995C43.1381 16.775 42.9519 16.6505 42.7657 16.526C42.5795 16.4015 42.5484 16.2459 42.7036 16.0903C43.2622 15.5301 43.8208 14.9699 44.3795 14.4097C44.5657 14.223 44.7519 14.2852 44.907 14.4097C45.1553 14.5964 45.4036 14.8143 45.6519 15.0321Z" fill="#D4E8ED"/>
<path d="M36.4657 14.223C36.2485 14.5965 35.845 14.8454 35.7209 15.25C35.5036 15.4368 35.2864 15.3123 35.1002 15.1878C32.7105 13.8184 30.3519 12.3868 27.9312 11.0796C27.7761 10.9863 27.6519 10.8929 27.5898 10.7062C27.7761 9.92809 28.0864 9.74136 28.8623 9.83472C30.1347 10.4572 31.345 11.1419 32.5554 11.8888C33.8588 12.698 35.2243 13.3516 36.4657 14.223Z" fill="#408087"/>
<path d="M28.8934 9.86583C28.3037 9.92807 27.8693 10.1459 27.683 10.7684C27.5899 10.8306 27.4658 10.8306 27.4037 10.7684C26.6589 10.1148 26.0072 10.4883 25.3244 10.8929C23.7417 11.8265 22.0968 12.6668 20.5451 13.6316C20.3279 13.7561 20.0796 13.974 19.8003 13.7561C19.8003 13.5694 19.8934 13.4138 20.0175 13.3204C20.5762 12.8225 20.9175 12.1689 21.4762 11.7021C21.6003 11.5776 21.8175 11.4531 21.5693 11.2352C22.8417 10.426 24.1762 9.71022 25.5727 9.08777C26.1313 8.83879 26.752 8.86991 27.3106 9.05665C27.8693 9.2745 28.4279 9.49236 28.8934 9.86583Z" fill="#538F93"/>
<path d="M39.0724 14.5964C38.9793 14.5342 38.8241 14.5031 38.7 14.4097C38.2035 13.9429 37.6138 13.6628 37.0241 13.3515C36.869 13.2893 36.7448 13.1648 36.5897 13.0714C36.3104 12.9158 36.3414 12.7291 36.5586 12.5423C36.8379 12.2934 37.0552 11.9821 37.3655 11.7954C37.5517 11.6709 37.7069 11.5153 37.8621 11.3597C38.4207 10.8306 38.3897 10.8306 39.0724 11.1418C39.7552 11.4531 40.3138 11.9821 40.9966 12.2622C41.2138 12.3556 41.3069 12.5424 41.1207 12.7291C40.5621 13.3204 39.9724 13.8806 39.3828 14.4719C39.2897 14.5964 39.1966 14.6276 39.0724 14.5964Z" fill="#D4E9ED"/>
<path d="M35.2241 9.3679C34.6654 10.146 33.8896 10.6128 33.2689 11.2352C33.1448 11.3597 33.0206 11.3597 32.8654 11.2664C32.431 11.0485 31.9654 10.8307 31.531 10.5817C31.3758 10.4883 31.1896 10.3016 31.3758 10.1771C32.0896 9.71024 32.5241 8.93218 33.2689 8.52759C33.393 8.43422 33.5172 8.4031 33.6723 8.49647C34.1689 8.77657 34.6654 9.05667 35.2241 9.3679Z" fill="#D4E9ED"/>
<path d="M37.6758 14.8143C37.5517 14.8143 37.4586 14.7832 37.3965 14.6587C37.4896 14.6587 37.6137 14.6898 37.6758 14.8143Z" fill="#BDDBE0"/>
<path d="M37.9554 14.9699C37.8312 14.9699 37.7381 14.9388 37.645 14.8143C37.8002 14.8143 37.8933 14.8455 37.9554 14.9699Z" fill="#BDDBE0"/>
<path d="M38.4209 15.2812C38.2968 15.2812 38.2037 15.25 38.1416 15.1255C38.2347 15.1255 38.3588 15.1255 38.4209 15.2812Z" fill="#BDDBE0"/>
<path d="M38.7 15.4368C38.5759 15.4368 38.4517 15.4057 38.3896 15.2812C38.5448 15.25 38.6379 15.2812 38.7 15.4368Z" fill="#BDDBE0"/>
<path d="M39.1345 15.7168C39.0104 15.7168 38.9173 15.6857 38.8552 15.5612C38.9794 15.5612 39.1035 15.5923 39.1345 15.7168Z" fill="#BDDBE0"/>
<path d="M38.1105 15.0944C38.0174 15.0633 37.9864 15.0322 37.9553 14.9699C38.0174 15.0011 38.0484 15.0633 38.1105 15.0944Z" fill="#BDDBE0"/>
<path d="M38.8554 15.5612C38.7623 15.5301 38.7312 15.499 38.7002 15.4056C38.7623 15.4679 38.7933 15.499 38.8554 15.5612Z" fill="#BDDBE0"/>
<path d="M39.2897 15.8413C39.1966 15.8102 39.1656 15.7791 39.1345 15.7169C39.1966 15.748 39.2587 15.8102 39.2897 15.8413Z" fill="#BDDBE0"/>
<path d="M43.0448 29.5975C43.262 29.4107 43.1689 29.1306 43.1689 28.8816C43.1689 27.3878 43.1999 25.8939 43.1689 24.4C43.1379 23.7776 43.293 23.2796 43.7896 22.9061C43.9448 22.7816 44.0689 22.626 44.3482 22.4082C44.4103 24.6801 44.3482 26.8587 44.4103 29.0061C44.4103 32.1495 44.4103 35.2617 44.4103 38.4051C44.4103 39.1209 44.131 39.65 43.5413 40.0235C41.1827 41.4551 38.8861 42.949 36.4965 44.3184C33.5792 45.999 30.631 47.6485 27.8379 49.5469C27.6206 49.7026 27.3723 49.8582 27.1551 49.9827C26.7517 50.2316 26.3172 50.2628 25.8827 50.0138C25.3861 49.7026 24.8586 49.4225 24.4241 49.0179C24.5482 48.5821 24.9517 48.3332 25.1999 47.9286C25.5413 47.7418 25.7586 47.9908 26.0068 48.1464C26.3792 48.3954 26.6896 48.3643 27.031 48.1153C31.9655 44.8163 37.2723 42.1709 42.2689 38.9653C42.7344 38.6852 42.9206 38.3429 42.9206 37.8138C42.8896 37.0046 42.7654 36.1954 42.7654 35.3551C42.7344 33.6123 43.0137 31.9005 42.9517 30.1577C42.8275 30.002 42.8275 29.7531 43.0448 29.5975Z" fill="#408087"/>
<path d="M38.8552 47.0571C41.7725 43.727 44.938 40.6148 47.7 37.1602C47.6069 37.5337 47.638 37.9071 47.638 38.2806C47.6069 39.4321 47.4207 40.5525 47.1725 41.6418C47.0483 42.1398 46.738 42.4821 46.3035 42.7C45.1552 43.3224 44.1 44.1316 42.8897 44.6607C42.1449 45.003 41.4932 45.501 40.8414 45.999C40.3449 46.4036 39.8483 46.7459 39.2897 47.026C39.2276 47.1194 39.1035 47.2439 38.8552 47.0571Z" fill="#D5E8EB"/>
<path d="M22.7796 52.6592C22.3761 52.6281 22.1589 52.1924 22.3761 51.8812C22.8106 51.2587 23.2761 50.6985 23.8037 50.1694C24.0209 49.9516 24.6727 50.1383 24.7968 50.4184C24.8278 50.5118 24.8278 50.6051 24.7347 50.6985C24.114 51.2898 23.5865 51.9434 23.0278 52.5658C22.9658 52.6281 22.8727 52.6903 22.7796 52.6592Z" fill="#D5E8EB"/>
<path d="M45.2485 33.7679C45.3106 34.1102 45.1244 34.5148 45.4037 34.826C45.3106 34.9194 45.1554 34.9505 45.1554 34.7949C45.1244 34.4526 45.0003 34.1102 45.2485 33.7679Z" fill="#BDDBE0"/>
<path d="M43.045 29.5975C43.107 31.7449 42.8277 33.8613 42.8898 36.0087C42.9208 36.7868 43.076 37.5337 43.045 38.3118C43.0139 38.5919 42.9829 38.8097 42.7036 38.9653C40.9346 39.899 39.3519 41.0817 37.6139 42.0465C35.8139 43.0735 34.0139 44.1628 32.2139 45.1898C30.476 46.1857 28.7381 47.2128 27.0932 48.3643C26.6588 48.6755 26.3174 48.8 25.8519 48.3954C25.6656 48.2087 25.4484 48.022 25.1381 47.9908C24.7036 47.4618 24.0519 47.2439 23.5243 46.8704C22.5622 46.248 21.6001 45.6255 20.545 45.1276C19.8622 44.6919 19.2105 44.1939 18.4656 43.9449C17.907 43.4158 17.1932 43.1046 16.5105 42.7623C14.7725 41.7664 13.0656 40.7393 11.4208 39.6189C11.0794 39.4011 10.707 39.3077 10.4277 38.9965C10.1794 38.7164 10.2415 38.3429 10.2415 38.0005C10.1794 36.1954 10.1794 34.3592 10.1794 32.5541C10.2105 29.3174 10.0863 26.0806 10.676 22.875C10.9243 21.5679 11.545 20.6342 12.6932 19.9184C15.176 18.3934 17.6898 16.9618 20.1725 15.4368C21.8174 14.4409 23.276 13.196 24.9519 12.2623C25.6967 11.8577 26.2863 11.8577 27.0312 12.2312C28.707 13.0403 30.3519 13.9118 32.0898 14.5965C34.3863 15.499 36.4656 16.8373 38.7001 17.8643C40.1277 18.5179 41.4932 19.2337 42.9519 19.825C43.045 19.8873 43.1381 19.9184 43.2312 19.9806C43.2312 22.9062 42.9829 25.8628 43.076 28.7883C43.045 29.0995 43.045 29.3485 43.045 29.5975Z" fill="#7BACBC"/>
<path d="M42.8898 19.8873C41.5863 19.7317 40.5312 19.047 39.3829 18.5179C37.9553 17.8332 36.5277 17.1796 35.1622 16.3393C34.076 15.6857 32.8656 15.1878 31.6553 14.7209C30.7243 14.3475 29.8863 13.8184 28.9863 13.4138C28.1484 13.0403 27.2174 12.7914 26.4415 12.2C26.1001 11.951 25.6656 12.1067 25.2622 12.3245C23.8967 13.0403 22.7484 14.0674 21.4449 14.8766C19.3656 16.1526 17.3174 17.4597 15.207 18.6112C14.1208 19.2026 13.0967 19.8873 12.0415 20.572C11.2346 21.101 11.0174 21.9414 10.8622 22.8128C10.676 23.7465 10.6139 24.7112 10.5208 25.676C10.3656 27.1699 10.4898 28.6638 10.3967 30.1266C10.3656 30.8112 10.1794 31.4959 10.2725 32.2118C10.5518 34.4526 10.3346 36.7245 10.4277 38.9965C9.96219 38.9653 9.96219 38.623 9.96219 38.2806C9.96219 36.9735 9.96219 35.6664 9.96219 34.3281C9.96219 33.1766 9.96219 32.0561 9.96219 30.9046C10.0863 29.9087 9.74494 28.9128 9.80701 27.9169C9.80701 26.5163 9.80701 25.1158 9.80701 23.7465C9.80701 23.0618 9.80701 22.3771 9.80701 21.6612C9.80701 21.4434 9.86908 21.2255 9.65184 21.0388C9.65184 20.8521 9.65184 20.6965 9.65184 20.5097C9.62081 20.1362 9.74495 19.8873 10.0553 19.7005C11.0794 19.047 12.1036 18.3934 13.0967 17.7087C14.8346 16.5572 16.6656 15.5612 18.4656 14.5031C18.838 14.2852 19.2725 14.0985 19.6139 13.8184C19.676 13.7561 19.707 13.725 19.7691 13.6628C20.2346 13.6317 20.5449 13.2893 20.9484 13.0715C22.6863 12.1067 24.3932 11.1107 26.1311 10.1148C26.3794 9.99033 26.5656 9.95921 26.7829 10.1459C27.0622 10.3638 27.3725 10.5194 27.6518 10.675C29.4829 11.6398 31.2518 12.6669 33.0518 13.725C33.9208 14.223 34.7587 14.8143 35.6898 15.1567C36.4036 15.7791 37.3036 16.1215 38.0794 16.6505C38.7001 17.0862 39.3829 17.4597 40.0346 17.8643C40.8725 18.4245 41.7105 18.9536 42.5484 19.5138C42.7036 19.6694 42.8277 19.7317 42.8898 19.8873Z" fill="#5894AA"/>
<path d="M19.8002 13.7561C19.7381 13.8184 19.7071 13.8495 19.645 13.9117C19.6761 13.8495 19.7381 13.8184 19.8002 13.7561Z" fill="#538F93"/>
<path d="M34.976 26.921C36.2794 25.9562 37.4277 24.8358 38.576 23.6842C38.7932 23.4664 38.9794 23.2485 39.2587 23.124C39.8484 22.8751 40.1897 22.9995 40.5001 23.622C40.7173 23.9021 40.6863 24.2133 40.6863 24.5557C40.7794 27.6368 40.5311 30.7179 40.5311 33.799C40.5311 33.9546 40.5001 34.1103 40.5001 34.2347C40.5001 35.7286 39.7863 36.7245 38.576 37.6271C37.1173 38.6853 35.6897 39.8368 34.2622 40.9261C33.6104 41.424 32.9587 41.673 32.1518 41.424C31.7794 41.3618 31.5001 41.1128 31.2208 40.8638C30.2587 39.9924 29.5139 38.9342 28.707 37.9694C28.3346 37.5026 28.0553 36.9735 27.5277 36.6312C27.1863 36.5067 27.0622 36.1955 26.8449 35.9776C26.5346 35.6353 26.3484 35.6353 26.038 36.0087C24.9208 37.3781 23.8035 38.7475 22.7173 40.1169C22.2518 40.7082 21.7863 41.2684 20.9794 41.4552C20.2966 41.7353 19.738 41.5174 19.1794 41.0817C18.2173 40.3348 17.2242 39.6501 16.2622 38.9342C15.3311 38.2184 14.4311 37.4404 13.469 36.6934C12.8484 36.1955 12.6932 35.5419 12.6311 34.795C12.4759 32.8342 12.569 30.8735 12.4449 28.9128C12.3518 27.4812 12.3518 26.0495 12.3518 24.5868C12.3518 24.4623 12.3518 24.3378 12.3518 24.2133C12.3518 23.8087 12.3518 23.4041 12.7553 23.1552C13.2208 22.8751 13.6242 23.124 13.9966 23.373C14.2139 23.5286 14.4311 23.7154 14.6173 23.9021C15.8897 25.2404 17.2863 26.4853 18.7759 27.6057C19.2725 27.9791 19.3035 28.0103 19.738 27.5123C20.2656 26.9521 20.607 26.2363 21.0104 25.6138C22.0656 23.9955 23.0897 22.346 24.1139 20.7276C24.5794 20.0118 24.9518 19.2648 25.3242 18.5179C25.4173 18.3312 25.5104 18.1444 25.6035 17.9888C26.1001 17.1796 26.6897 17.1796 27.2484 17.9577C27.9622 18.4245 28.1173 19.2648 28.5208 19.9184C29.9484 22.3148 31.5001 24.5868 32.9897 26.9521C33.5173 27.8235 33.5794 27.8235 34.3863 27.2011C34.5725 27.0455 34.7587 26.9832 34.976 26.921Z" fill="#408087"/>
<path d="M32.1519 41.424C32.8967 41.5174 33.5174 41.2684 34.107 40.7704C35.0381 39.9924 36.0932 39.3699 37.0243 38.623C37.8932 37.9071 38.7932 37.1913 39.6932 36.5066C40.1587 36.1332 40.0967 35.573 40.2208 35.075C40.4381 33.9857 40.3139 32.8653 40.407 31.7449C40.5932 29.0373 40.5312 26.3296 40.5622 23.6531C41.307 23.5597 41.5243 24.151 41.6794 24.6179C42.0518 25.7383 42.1449 26.9209 41.9587 28.1347C41.8346 28.7883 41.8036 29.473 41.7415 30.1265C41.5243 31.9005 41.6794 33.7367 41.1829 35.5107C41.0587 35.9776 41.1829 36.4755 41.0587 36.9735C40.9656 37.3158 40.8415 37.5959 40.5622 37.7515C39.8484 38.2184 39.2587 38.8408 38.4518 39.0898C38.3898 39.1209 38.3277 39.152 38.2656 39.2143C37.2725 40.0235 36.2174 40.7704 35.0691 41.2995C34.6346 41.4862 34.3863 41.9531 33.9829 42.1709C33.7036 42.3265 33.4863 42.3265 33.3312 42.1087C32.9588 41.673 32.5553 41.5485 32.1519 41.424Z" fill="#5893AA"/>
<path d="M34.9761 26.9209C34.7278 27.1388 34.5106 27.3567 34.2623 27.5434C33.7037 27.9791 33.4554 27.948 33.083 27.3878C32.7727 26.9521 32.4934 26.5475 32.2141 26.0806C31.283 24.4312 30.1347 22.9062 29.1416 21.2567C28.6761 20.5097 28.2416 19.7317 27.8072 18.9536C27.6209 18.6113 27.4347 18.2689 27.2485 17.9266C27.7451 17.8643 28.0865 18.051 28.3347 18.5179C28.6451 19.047 29.0175 19.5449 29.3278 20.074C30.1658 21.3812 31.1589 22.5638 32.183 23.7465C32.6485 24.3067 33.1451 24.8669 33.6416 25.3959C34.0761 25.925 34.3865 26.5475 34.9761 26.9209Z" fill="#5894AA"/>
<path d="M20.9795 41.3928C22.1898 40.6459 22.9347 39.4633 23.8036 38.4051C24.5795 37.4714 25.3243 36.5377 26.1002 35.6041C26.3795 35.2617 26.4416 35.2617 26.7519 35.6352C27.0312 35.9464 27.3726 36.2265 27.5278 36.6311C26.845 37.5025 26.0381 38.1872 25.2623 38.9653C24.4554 39.8056 23.7416 40.7393 22.8726 41.5173C22.7174 41.6418 22.5933 41.7974 22.4381 41.9219C22.1588 42.1709 21.8485 42.1709 21.5691 41.9531C21.3829 41.7663 21.1967 41.5796 20.9795 41.3928Z" fill="#5894AA"/>
<path d="M19.1792 25.2714C19.1172 25.3648 19.024 25.427 18.9309 25.3648C18.062 24.7424 17.1309 24.2444 16.5103 23.3418C16.7585 23.0306 17.0999 22.9995 17.4413 22.9061C18.2172 22.6883 18.2172 22.6571 18.0309 21.8791C17.9068 21.4123 17.7516 20.9454 17.6275 20.4475C17.5654 20.1674 17.4413 19.8561 17.6896 19.6071C17.7827 19.6383 17.9068 19.7005 17.9999 19.7316C18.062 19.7005 18.093 19.7005 18.124 19.7628C18.8068 20.2918 19.4275 20.8832 20.0172 21.4745C20.2344 21.7235 20.5447 21.9413 20.3585 22.3459C20.0792 22.5949 19.7068 22.6883 19.3344 22.7505C18.8999 22.8439 18.8068 23.0929 18.8999 23.4975C19.0551 24.0888 19.2723 24.649 19.1792 25.2714Z" fill="#B1D2D8"/>
<path d="M32.4622 22.4393C33.1139 21.4122 33.8897 20.5097 34.6966 19.6071C35.038 19.4204 35.1311 19.7316 35.1001 19.9184C34.9759 20.9454 34.9759 22.0036 34.4173 22.9061C33.7035 22.9684 32.9897 23.0929 32.4622 22.4393Z" fill="#D1E5E8"/>
<path d="M17.6896 19.576C17.6896 20.3541 18.0309 21.0699 18.2172 21.7857C18.4654 22.7816 18.4654 22.7816 17.4413 23.0617C17.1309 23.1551 16.8206 23.2173 16.5103 23.3107C16.5103 23.2173 16.5103 23.124 16.5103 23.0306C16.6344 22.9061 16.5103 22.7194 16.6344 22.5638C16.7275 21.6612 17.0689 20.8209 17.2551 19.9184C17.3172 19.7628 17.3792 19.4515 17.6896 19.576Z" fill="#D1E5E8"/>
<path d="M34.3865 22.8751C34.5727 21.8791 34.7899 20.8832 34.9451 19.8562C34.9761 19.6694 34.821 19.6072 34.6658 19.5761C34.9761 19.2337 35.0692 19.6072 35.2554 19.7317C35.752 20.7587 36.3416 21.7546 36.4347 22.9062C36.3727 23.2485 36.1244 23.3419 35.8451 23.2796C35.3796 23.2174 34.883 23.2174 34.4485 22.9373C34.4485 22.9373 34.4175 22.9062 34.3865 22.8751Z" fill="#B1D2D8"/>
<path d="M32.4623 22.4393C32.7726 22.6883 33.1761 22.6572 33.5485 22.7194C33.8278 22.7506 34.1071 22.8439 34.3864 22.875C34.6657 23.8087 34.4175 24.6179 33.9209 25.396C33.8278 25.396 33.7347 25.396 33.6416 25.396C33.5175 24.9291 33.3002 24.5245 33.0209 24.1511C32.7106 23.6842 32.5864 23.1551 32.3382 22.6883C32.3071 22.5949 32.3692 22.5016 32.4623 22.4393Z" fill="#B1D2D8"/>
<path d="M33.9519 25.427C34.1071 24.5867 34.3864 23.7464 34.4174 22.9061C34.8829 22.9995 35.3795 23.0617 35.845 23.1551C36.0933 23.1862 36.3105 23.2173 36.3416 22.875C36.8691 23.1551 36.4967 23.4352 36.3105 23.6531C35.7209 24.3689 34.976 24.8668 34.2312 25.427C34.1381 25.427 34.045 25.427 33.9519 25.427Z" fill="#91BFC7"/>
<path d="M19.1793 25.2714C18.8379 24.5868 18.8379 23.8398 18.6207 23.1551C18.5586 22.9373 18.6517 22.7817 18.9 22.7194C19.3965 22.5949 19.8931 22.4393 20.3896 22.2837C20.731 22.3148 20.6379 22.5327 20.5758 22.7194C20.2655 23.4975 20.0483 24.3067 19.4896 24.9913C19.3965 25.0536 19.3034 25.1781 19.1793 25.2714Z" fill="#92BFC7"/>
<path d="M34.2312 25.427C34.6657 24.7423 35.4415 24.3689 35.9691 23.7464C36.0933 23.5908 36.2484 23.4663 36.3726 23.3107C36.4967 23.1551 36.4967 22.9995 36.3105 22.875C36.1243 21.7857 35.5346 20.8209 35.2553 19.7316C35.4105 19.7939 35.5036 19.8872 35.5657 20.0429C35.9691 20.9454 36.4036 21.8168 36.8071 22.7194C36.9622 23.0306 36.9002 23.3107 36.714 23.5597C36.0312 24.3377 35.2553 25.0536 34.2312 25.427Z" fill="#5D97AC"/>
<path d="M19.4898 24.9602C19.7691 24.2444 20.0794 23.5286 20.3587 22.7816C20.4208 22.626 20.638 22.4704 20.3897 22.2525C20.2346 21.8168 19.8932 21.5367 19.5829 21.1944C19.1173 20.6964 18.5587 20.2607 18.1553 19.7005C18.4967 19.6694 18.6829 19.9806 18.9001 20.1362C19.4587 20.5719 19.9863 21.0699 20.5449 21.5367C20.8863 21.8168 20.9484 22.1592 20.8242 22.5326C20.576 23.373 20.2035 24.2133 19.676 24.9291C19.6139 25.0536 19.5208 25.0224 19.4898 24.9602Z" fill="#5E97AC"/>
<path d="M16.6654 22.5638C16.6654 22.7194 16.6965 22.9061 16.5413 23.0306C16.5102 22.8439 16.4792 22.6883 16.6654 22.5638Z" fill="#B1D2D8"/>
<path d="M18.1554 19.7628C18.0933 19.7628 18.0623 19.7628 18.0312 19.7316C18.0623 19.6383 18.1244 19.6694 18.1554 19.7628Z" fill="#5E97AC"/>
<path d="M16.6345 27.6678C17.1311 28.0102 17.6276 28.3837 18.1242 28.726C18.5276 29.0061 18.9621 29.1928 19.4897 29.1617C20.3586 29.3796 21.0724 29.0683 21.6 28.4459C22.9345 26.8898 24.1138 25.2092 25.6345 23.8087C26.1 23.3729 26.3793 22.8439 26.3173 22.1592C26.2862 22.0035 26.3483 21.8168 26.4724 21.6923C26.8138 21.6923 26.7828 21.9724 26.8138 22.1592C26.938 23.8398 27.9311 25.0847 28.8311 26.3918C29.3276 27.1076 29.9793 27.699 30.4759 28.3837C31.0345 29.1617 31.7173 29.5663 32.6793 29.2551C32.7414 29.3173 32.7724 29.3796 32.7724 29.4418C32.7414 29.6908 32.369 29.9398 32.7104 30.1576C33.0828 30.4066 33.4862 30.6245 33.9518 30.3755C34.4483 30.1265 34.8517 29.7842 35.2552 29.4107C36.1242 28.6015 36.869 27.6678 37.6759 26.8275C37.8311 26.6408 37.9552 26.2984 38.2966 26.4852C38.4518 26.7342 38.3897 27.0143 38.3586 27.2944C38.2345 28.7882 37.8621 30.2821 37.8 31.8071C37.769 32.4607 37.5207 33.0831 37.1483 33.6122C36.3724 34.6704 35.5966 35.7286 34.5104 36.5377C34.0138 36.9112 33.5793 37.3469 33.1138 37.7826C32.6173 38.2495 32.338 38.2495 31.9655 37.6893C30.6621 35.9464 28.9862 34.577 27.4345 33.0831C27.0311 32.7097 26.6586 32.3362 26.2242 31.9627C25.6966 31.4959 25.3552 31.4959 24.8586 31.9939C23.338 33.55 21.6311 34.9505 20.4828 36.8801C20.2966 37.1913 20.0173 37.4403 19.738 37.6893C19.4586 37.9383 19.1793 38.0005 18.838 37.8449C17.6276 37.2224 16.2931 36.849 15.1138 36.1643C14.8035 36.0087 14.4931 35.8219 14.2448 35.5418C14.338 34.2658 14.1207 33.0209 14.1517 31.7449C14.1828 30.6245 14.3069 29.5352 14.369 28.4148C14.4 27.3566 14.7414 27.201 15.7655 27.4189C16.0759 27.5433 16.3552 27.699 16.6345 27.6678Z" fill="#B7D6DB"/>
<path d="M15.145 36.1954C16.3864 36.5067 17.5657 37.0357 18.714 37.5959C19.3347 37.876 19.3036 37.876 19.8002 37.4403C20.1416 37.1291 20.3898 36.7868 20.6381 36.4133C21.1347 35.6352 21.6933 34.9194 22.345 34.2658C23.183 33.4567 23.9898 32.6164 24.8278 31.776C25.3243 31.2781 25.7588 31.247 26.2554 31.7138C26.845 32.2429 27.4036 32.8031 28.0243 33.301C28.5209 33.7368 29.0174 34.1725 29.4519 34.7016C29.8243 35.1373 30.2278 35.5107 30.6933 35.8531C31.2829 36.2888 31.7485 36.9113 32.1209 37.5337C32.4312 38.0628 32.5554 38.0628 32.9588 37.6582C33.6105 37.0046 34.3554 36.4755 35.0071 35.8531C35.8761 35.0128 36.714 34.0791 37.3036 32.9587C37.5209 32.5541 37.645 32.0873 37.645 31.5893C37.614 30.5311 37.9864 29.5352 38.0485 28.5082C38.0795 27.8235 38.2967 27.1388 38.2657 26.4541C38.0485 26.2674 38.2967 26.0495 38.2657 25.8628C38.514 25.4893 38.8864 25.2403 39.1657 24.898C39.414 25.0536 39.3209 25.2403 39.3209 25.3959C39.3209 26.4852 39.3829 27.6056 39.2898 28.6638C39.1657 30.0954 39.1967 31.5271 39.1347 32.9898C39.1036 33.6745 38.9795 34.3592 38.9174 35.0439C38.8864 35.324 38.7623 35.4796 38.545 35.6352C36.6829 37.0357 34.8829 38.4985 32.9898 39.8679C32.6485 40.1169 32.4623 40.0857 32.1519 39.8679C31.6554 39.5255 31.314 38.9965 30.9416 38.5607C29.7933 37.1291 28.645 35.6975 27.4967 34.2658C27.3416 34.0791 27.1554 33.8924 27.0002 33.7368C26.5657 33.301 26.2243 33.301 25.7898 33.7679C25.2623 34.3903 24.7657 35.0439 24.2381 35.6664C23.245 36.8801 22.2829 38.0939 21.2898 39.3077C21.1347 39.4944 20.9485 39.65 20.7623 39.8368C20.483 40.0857 20.2657 40.148 19.9243 39.899C18.3726 38.7164 16.7278 37.6271 15.2692 36.3199C15.2381 36.3199 15.2071 36.2266 15.145 36.1954Z" fill="#97C3CB"/>
<path d="M32.7414 29.2862C32.6793 29.2862 32.6483 29.2862 32.5862 29.3174C31.6552 29.6908 31.0965 29.5041 30.5069 28.6949C29.9172 27.8857 29.2655 27.1388 28.6138 26.423C28.3655 26.174 28.2103 25.8628 28.0552 25.5516C27.7138 24.9602 27.3724 24.3689 27.031 23.7465C26.7827 23.2796 26.6276 22.8128 26.6276 22.2526C26.6276 22.0347 26.6896 21.7857 26.5034 21.6301C26.1621 21.2567 26.3483 20.7898 26.2862 20.3541C26.2552 20.074 26.3172 19.825 26.2241 19.5449C26.2862 19.3582 26.3483 19.1715 26.5655 19.3893C26.6586 19.4827 26.7517 19.6383 26.8138 19.7628C27.6207 21.3189 28.6138 22.7817 29.5758 24.2755C30.3827 25.4893 31.1586 26.7342 31.9655 27.9791C32.2758 28.4771 32.7103 28.8505 33.2069 29.0995C33.1138 29.3174 32.9586 29.3796 32.7414 29.2862Z" fill="#97C3CB"/>
<path d="M26.2243 19.6071C26.5036 19.6383 26.4725 19.8561 26.4725 20.0429C26.4725 20.5719 26.4725 21.1321 26.4725 21.6612C26.6587 22.8128 26.1001 23.6531 25.3243 24.4C24.3932 25.3026 23.5243 26.2051 22.8105 27.2944C22.4691 27.8546 21.9725 28.3214 21.507 28.7883C21.0415 29.2551 20.4208 29.3485 19.8312 29.4107C19.6449 29.4418 19.4898 29.3485 19.4587 29.1306C20.1105 28.9439 20.576 28.477 20.9174 27.948C22.7174 25.1781 24.6415 22.5015 26.2243 19.6071Z" fill="#D7E8EB"/>
<path d="M16.6346 27.6679C16.4174 27.8857 16.1691 27.7924 15.9518 27.7301C15.7346 27.6679 15.5174 27.6368 15.3001 27.5745C14.9587 27.45 14.7105 27.4811 14.6794 27.9169C14.6484 28.0725 14.5553 28.2592 14.5553 28.4148C14.4932 30.1888 14.307 31.9628 14.4001 33.7368C14.4312 34.2036 14.6174 34.6393 14.5553 35.1373C14.5243 35.3551 14.5243 35.5419 14.2449 35.573C14.0277 35.4796 13.9346 35.3551 13.9346 35.1062C13.9346 34.297 13.7794 33.4878 13.7484 32.6475C13.7174 30.8113 13.6243 28.975 13.5001 27.1388C13.4691 26.423 13.5001 25.7072 13.5001 24.9291C13.9656 25.1158 14.2139 25.5204 14.5553 25.8317C14.8967 26.1429 15.207 26.4541 15.5174 26.7653C15.9208 27.0766 16.2932 27.3567 16.6346 27.6679Z" fill="#D6E8EA"/>
<path d="M32.7413 29.2863C32.8965 29.224 33.0517 29.1618 33.2069 29.1307C33.7965 29.2551 34.2931 29.0684 34.7896 28.7261C35.9689 27.9169 37.0551 26.9832 38.0793 26.0184C38.1414 25.9562 38.1724 25.925 38.2345 25.8628C38.4827 26.0495 38.1724 26.2674 38.2345 26.4541C37.3034 27.4189 36.4965 28.4771 35.5345 29.4108C35.1 29.8153 34.6345 30.1577 34.1379 30.5C33.7655 30.749 33.4241 30.749 33.0207 30.5623C32.1207 30.0955 32.1207 30.1266 32.7413 29.2863Z" fill="#D6E8EB"/>
<path d="M38.2658 25.8628C38.2037 25.925 38.1727 25.9562 38.1106 26.0184C38.1416 25.925 38.1727 25.8939 38.2658 25.8628Z" fill="#97C3CB"/>
<path d="M17.6899 36.3199C17.4727 36.2576 17.2244 36.2265 17.0072 36.1643C16.5727 36.0398 16.5416 35.853 16.8209 35.5107C16.914 35.3862 17.0692 35.324 17.0072 35.1372C16.914 34.8571 17.1313 34.7015 17.2865 34.577C18.5278 33.6433 19.583 32.4607 20.7313 31.4337C21.8485 30.4377 22.8416 29.3484 23.9278 28.3525C24.3934 27.9168 24.8278 27.5122 25.3244 27.1388C25.6347 26.9209 25.914 26.6719 26.1313 26.3918C26.4416 25.9872 26.5658 25.9872 27.0003 26.174C27.4347 26.3918 27.5589 26.7653 27.683 27.1699C27.7451 27.3566 27.652 27.45 27.5278 27.5433C26.7209 28.2903 25.9761 29.0995 25.1072 29.7219C24.114 30.4066 23.152 31.1847 22.283 31.9939C21.5072 32.7408 20.7003 33.4877 20.0485 34.3592C19.6451 34.9194 19.0865 35.3551 18.683 35.9153C18.5278 36.2265 18.0934 36.2888 17.6899 36.3199Z" fill="#CBE1E5"/>
<path d="M31.5621 34.5148C31.5621 34.2658 31.6242 34.1102 31.8104 33.9235C33.0207 32.8342 34.3242 31.8383 35.4414 30.6556C35.9069 30.1888 36.4345 30.251 36.8069 30.8112C36.9311 30.9669 36.8069 31.0913 36.7449 31.2158C36.5587 31.4959 36.4035 31.7449 36.1863 31.9939C35.1 33.1454 34.138 34.3903 32.8656 35.3551C32.6793 35.4796 32.4931 35.6041 32.2759 35.6663C32.1207 35.6975 31.9656 35.6975 31.9035 35.5419C31.7793 35.1995 31.5 34.9194 31.5621 34.5148Z" fill="#CBE1E5"/>
<path d="M15.6106 33.4255C16.2623 32.3051 17.2554 31.4959 18.1244 30.5934C18.1865 30.5311 18.2796 30.4689 18.3416 30.4066C18.4968 30.3133 18.6209 30.3444 18.7451 30.4689C18.8692 30.5934 18.8382 30.749 18.714 30.8735C18.4347 31.1847 18.1554 31.5271 17.814 31.776C17.1003 32.3051 16.3554 32.8342 15.6106 33.4255Z" fill="#CBE1E5"/>
</g>
<defs>
<clipPath id="clip0">
<rect width="54" height="61" fill="white"/>
</clipPath>
</defs>
</svg>
