<svg width="60" height="58" viewBox="0 0 60 58" fill="none" xmlns="http://www.w3.org/2000/svg">
<path d="M30.5279 0.159141C34.7967 0.159141 39.0656 0.0175111 43.3345 0.206351C45.4929 0.300771 47.6514 0.442401 49.7618 0.914501C51.5845 1.33939 52.8795 2.28359 53.4551 4.12478C53.551 4.45525 53.6949 4.78572 53.7429 5.11619C53.8388 5.54108 54.0787 5.77713 54.5583 5.87155C56.333 6.24923 57.4362 7.28785 58.0118 8.98741C58.5874 10.687 58.9231 12.4337 59.115 14.2277C59.6906 20.0818 59.7865 25.983 59.9783 31.837C60.0743 35.2834 59.8344 38.7297 59.5946 42.1288C59.4507 44.3005 59.4028 46.5194 59.1629 48.691C59.067 49.6352 58.8751 50.6266 58.5394 51.5236C57.8679 53.412 56.5249 54.6395 54.6063 55.3004C53.4551 55.6781 52.256 55.9141 51.0569 55.9613C46.6921 56.1974 42.3752 56.6695 38.0104 56.6223C34.1252 56.6223 30.2401 57.1416 26.3069 57C23.1413 56.9055 19.9756 56.6695 16.8578 56.0558C15.4669 55.8197 14.0759 55.6781 12.6849 55.442C11.8695 55.3004 11.0541 55.1116 10.2866 54.7811C8.84769 54.2146 7.79246 53.2232 7.21688 51.8541C7.12095 51.6652 6.97706 51.4292 6.92909 51.2403C6.73723 50.5322 6.30555 50.1073 5.58608 49.8713C4.24306 49.3992 3.33172 48.4077 2.70818 47.1803C1.9887 45.6696 1.50905 44.1116 1.31719 42.4593C0.981439 39.91 0.597719 37.3606 0.357895 34.7641C0.214 32.8285 0.166035 30.8928 0.11807 28.9572C0.0701048 25.0388 -0.121755 21.1204 0.11807 17.2019C0.261965 14.4638 0.453825 11.6784 0.933474 8.98741C1.1733 7.71274 1.60498 6.53249 2.18056 5.35224C2.70818 4.31362 3.37969 3.46384 4.38695 2.85011C5.9698 1.8587 7.69653 1.15055 9.61513 0.867291C13.884 0.347981 18.2009 0.111931 22.5657 0.159141C25.2517 0.159141 27.8898 0.159141 30.5279 0.159141Z" fill="#7F5B2D"/>
<path d="M30.4316 1.38679C34.6525 1.38679 38.8735 1.29237 43.0944 1.434C45.2528 1.52842 47.3633 1.62284 49.4737 2.09494C49.9054 2.18936 50.385 2.33099 50.7688 2.51983C51.4403 2.8503 51.872 3.27519 52.1598 3.98334C52.9272 5.82453 53.2629 7.80735 53.4548 9.79017C54.0304 15.9747 54.1743 22.1592 54.2702 28.3437C54.3182 31.3179 54.0784 34.2921 53.8865 37.2664C53.7906 38.7771 53.6946 40.335 53.5987 41.8457C53.5028 43.0732 53.4068 44.3479 53.119 45.5753C52.6394 47.5582 51.3923 48.88 49.3778 49.4466C48.3705 49.7298 47.3633 49.9187 46.308 49.9659C41.9912 50.2019 37.7223 50.6268 33.4054 50.674C30.9113 50.674 28.3691 50.9101 25.875 51.0045C23.1409 51.1461 20.4069 51.0989 17.6729 50.8629C14.4593 50.5796 11.3416 49.9187 8.17588 49.541C7.7442 49.4938 7.26455 49.3521 6.83286 49.2105C5.25002 48.7384 4.14683 47.7942 3.47532 46.2363C2.70788 44.4895 2.42009 42.6483 2.18026 40.7599C1.84451 38.2578 1.46079 35.7557 1.36486 33.2063C1.31689 31.8844 1.26893 30.6098 1.26893 29.2879C1.173 25.6055 1.0291 21.8759 1.173 18.1935C1.31689 15.2193 1.50875 12.2451 1.9884 9.27086C2.18026 8.09061 2.56398 7.00478 3.0916 5.96616C3.66718 4.83312 4.48258 3.98334 5.63374 3.36961C7.26455 2.47262 9.03925 2.04773 10.9099 1.81168C14.7471 1.52842 18.6322 1.33958 22.5174 1.38679C25.1555 1.434 27.7936 1.38679 30.4316 1.38679Z" fill="#F8E8CE"/>
<path d="M34.6525 33.3479C33.9331 33.3479 32.5421 33.2535 31.1511 33.1591C30.4796 33.1119 30.4796 33.1591 30.4316 33.7728C30.3357 34.8114 30.3837 35.8029 30.2398 36.8415C30.1918 37.408 30.0959 37.9745 29.904 38.4938C29.7122 39.202 29.2325 39.6269 28.513 39.9573C27.17 40.5711 25.9229 40.3822 24.6758 39.9101C23.2369 39.3908 21.8939 38.6354 20.6947 37.6912C18.2485 35.8028 15.9462 33.82 13.6919 31.6956C12.3009 30.3737 11.1977 28.9102 10.3823 27.1634C10.0465 26.4081 10.2384 25.936 10.6221 25.3694C12.3009 23.0562 14.1715 20.8845 16.186 18.8073C17.625 17.2965 19.016 15.7858 20.5029 14.4167C21.5101 13.5197 22.5174 12.67 23.6206 11.8674C24.436 11.2537 25.2514 10.8288 26.2107 10.6399C27.2659 10.4511 28.1293 10.7816 28.8488 11.5841C29.5203 12.3395 29.8081 13.2365 29.9999 14.2279C30.2398 15.5498 30.4796 16.9189 30.5755 18.2879C30.6235 18.9017 30.6235 18.8545 31.1991 18.8545C33.6453 18.8073 36.0915 18.76 38.5377 18.76C39.449 18.76 40.2644 19.1849 41.0799 19.5626C41.5595 19.7987 41.7993 20.2708 41.9912 20.7429C42.279 21.451 42.3749 22.2536 42.4229 23.0089C42.5668 25.5583 42.4708 28.1076 42.0392 30.657C41.8473 31.8844 41.0799 32.5926 39.8807 32.923C38.3458 33.3951 36.811 33.3479 34.6525 33.3479Z" fill="#7F5B2D"/>
<path d="M48.2266 27.541C48.2266 26.3136 48.2266 25.4638 48.2266 24.614C48.2266 24.0475 48.2746 24.0475 48.8022 24.0947C49.4258 24.0947 50.0493 24.0947 50.7208 24.0947C51.4403 24.0947 51.3923 24.1419 51.3923 24.8029C51.3923 26.1247 51.2005 27.3994 51.4883 28.7213C51.4883 28.7685 51.4883 28.8157 51.4883 28.9101C51.3923 30.5625 51.824 32.2148 51.6321 33.82C51.4883 35.1891 51.5842 36.5581 51.4403 37.88C51.2964 39.6268 51.0566 41.3736 50.433 43.0259C50.1932 43.6396 49.9534 44.3006 49.5697 44.8671C49.2339 45.3864 48.8022 45.7169 48.2266 45.9057C47.2673 46.2834 46.308 46.6139 45.3008 46.9443C44.2455 47.2748 43.1903 47.3692 42.0871 47.4637C41.0799 47.5581 40.0726 47.6997 39.1133 47.8413C36.8589 48.1718 34.6046 48.2662 32.3023 48.0302C31.247 47.9358 30.1918 47.9357 29.1366 48.0774C28.1773 48.219 27.218 48.1246 26.3066 48.1246C26.0668 48.1246 25.9229 47.983 25.875 47.7941C25.5392 46.9916 25.7311 46.2362 25.875 45.4336C25.9229 45.1976 26.2107 45.2448 26.4026 45.2448C27.122 45.2448 27.8415 45.2448 28.561 45.2448C29.2325 45.2448 29.952 45.3392 30.6235 45.1032C30.7674 45.0559 30.9592 45.0559 31.1511 45.1032C31.8226 45.3392 32.4941 45.1504 33.2136 45.1032C35.1802 44.9143 37.0988 44.4894 39.1133 44.3478C40.0726 44.3006 41.0319 43.9701 41.9912 43.7341C42.7107 43.5452 43.4301 43.3092 44.1496 43.1203C45.0609 42.8843 45.6365 42.2706 46.0682 41.5152C46.7877 40.3349 46.9795 39.0131 47.1714 37.6912C47.3633 36.5581 47.699 35.4723 47.7949 34.3393C47.8429 33.6311 48.0348 32.923 48.0348 32.262C48.0348 30.6097 48.4185 28.9101 48.2266 27.541Z" fill="#E8C99C"/>
<path d="M14.2674 6.10777C14.2195 6.57987 14.3154 7.1936 14.1236 7.80733C13.9797 8.27943 13.7878 8.46827 13.3081 8.46827C12.3488 8.42106 11.3895 8.56269 10.5262 8.98758C8.65555 9.83736 7.2166 11.0648 6.97677 13.2365C6.88084 14.0863 6.83288 14.1335 5.92154 14.0863C5.44189 14.0863 5.01021 14.3223 4.57852 14.2751C4.29073 14.2751 4.05091 14.2279 4.05091 13.8502C4.05091 12.1979 4.00294 10.4983 4.53056 8.89316C4.96224 7.57128 5.77765 6.39103 7.26456 5.91893C7.55235 5.82451 7.79218 5.63567 8.032 5.49404C8.89537 4.97473 9.85467 4.64426 10.8619 4.54984C11.1018 4.54984 11.2936 4.45542 11.5334 4.361C12.109 4.12495 12.7326 3.98332 13.4041 4.03053C14.2195 4.03053 14.2195 4.03053 14.3154 4.8331C14.3154 4.88031 14.3154 4.92752 14.3154 5.02194C14.2674 5.3052 14.2674 5.68288 14.2674 6.10777Z" fill="white"/>
<path d="M16.0421 4.12488C16.4738 4.64419 16.9055 5.02187 17.1453 5.44676C17.577 6.20212 17.4811 7.00469 17.1933 7.80726C17.0494 8.13773 16.7616 8.18494 16.4258 8.09052C16.0421 7.9961 15.8503 7.85447 15.8503 7.47679C15.8982 6.76864 15.7543 6.06049 15.9462 5.35234C16.0421 5.06908 15.9942 4.6914 16.0421 4.12488Z" fill="#FFFEFE"/>
<path d="M22.6133 45.7169C22.8052 45.7641 22.9011 45.7641 22.9491 45.8113C23.9084 46.2362 24.0043 46.5667 23.3808 47.3693C23.1409 47.6997 22.9491 47.6525 22.7572 47.3221C22.4694 46.85 22.6133 46.2834 22.6133 45.7169Z" fill="#E9CCA1"/>
<path d="M5.53781 15.5497C5.53781 15.6441 5.53781 15.7385 5.53781 15.8329C5.34595 16.6355 5.10613 16.7771 4.29072 16.6355C3.907 16.5411 3.85904 16.3522 4.0509 16.0218C4.19479 15.7857 4.43462 15.7385 4.67444 15.6441C4.77037 15.5969 4.81834 15.5969 4.91427 15.5969C5.15409 15.5497 5.29799 15.4553 5.53781 15.5497Z" fill="#FEFCF9"/>
<path d="M50.7208 21.2621C50.385 22.2063 50.2411 22.3007 49.6176 22.2535C49.4257 22.2535 49.1859 22.2063 49.1859 21.9702C49.1379 21.7814 49.2818 21.6398 49.4737 21.5926C49.8574 21.4037 50.1932 21.2149 50.7208 21.2621Z" fill="#EACCA0"/>
<path d="M48.8981 19.2793C50.0013 18.7128 50.1452 18.7128 50.9606 19.1377C50.2891 19.2793 49.7135 19.7514 48.8981 19.2793Z" fill="#EBCEA4"/>
<path d="M16.7136 32.4036C16.234 32.2148 15.8982 31.7899 15.6104 31.365C16.1381 31.5538 16.4258 31.9787 16.7136 32.4036Z" fill="#8C693F"/>
</svg>
