<svg xmlns="http://www.w3.org/2000/svg" width="60" height="58" fill="none" viewBox="0 0 60 58">
  <path fill="#7F5B2D" d="M30.401.026c3.702 0 8.25-.105 12.799.105 2.115.105 4.23.21 6.24.63 2.116.42 3.703 1.47 4.126 3.674.211.945.634 1.365 1.587 1.575 1.269.315 2.115 1.26 2.644 2.52a22.017 22.017 0 011.27 5.353c.316 3.149.528 6.298.634 9.447.211 4.514.423 9.028.211 13.437-.211 4.304-.317 8.503-.846 12.807 0 .42-.106.945-.211 1.364-.74 3.15-2.75 4.62-6.03 5.144-2.01.315-3.913.315-5.923.525-2.962.21-6.03.42-8.99.42-3.28-.105-6.665.42-9.944.42-3.808 0-7.615-.315-11.317-.945-1.376-.315-2.857-.315-4.232-.63-.528-.105-1.057-.21-1.48-.42-1.693-.63-2.962-1.68-3.702-3.359-.106-.315-.212-.525-.318-.84-.317-.525-.529-.84-.952-.944-1.692-.63-2.75-1.785-3.49-3.465-.74-1.89-1.058-3.779-1.375-5.773-.318-2.414-.635-4.829-.847-7.243C.15 32.253.15 30.678.15 29.104c-.106-3.36-.212-6.823-.106-10.182.106-3.15.317-6.299.846-9.448.212-1.575.74-2.94 1.375-4.2C2.794 4.12 3.64 3.28 4.804 2.652 6.919 1.39 9.246.866 11.679.656c5.923-.735 11.847-.525 18.722-.63z"/>
  <path fill="#F8E8CE" d="M30.422 1.304h10.553c2.428 0 4.75.106 7.177.528.739.105 1.583.211 2.216.527.845.317 1.478.844 1.795 1.688.633 1.688.95 3.376 1.16 5.064.317 3.165.528 6.33.634 9.495.21 4.431.422 8.968.21 13.399-.21 4.22-.316 8.545-.843 12.765-.106 1.16-.423 2.426-1.161 3.376-1.056 1.371-2.533 1.899-4.222 2.215-1.9.317-3.8.317-5.805.528-3.06.21-6.015.422-9.076.422-2.216 0-4.327.21-6.543.316-4.855.211-9.71 0-14.565-.95-1.372-.316-2.85-.316-4.221-.632-.528-.211-1.267-.422-1.794-.739-.845-.422-1.478-1.055-2.006-2.004-.738-1.477-1.16-2.954-1.372-4.536-.316-2.532-.738-4.959-.95-7.49-.21-1.794-.21-3.588-.21-5.381-.106-4.326-.212-8.651 0-12.977.105-2.637.316-5.38.844-8.018.21-.95.527-1.899.95-2.743.527-1.266 1.477-2.11 2.744-2.743C7.625 2.36 9.63 2.043 11.636 1.832c6.227-.739 12.559-.528 18.786-.528z"/>
  <path fill="#E8C99C" d="M32.417 48.458h-5.81c-.86 0-.967-.105-1.075-.947v-1.158c0-.526.108-.63.645-.736h5.272c.968 0 1.828-.21 2.797-.21 1.398-.106 2.689-.421 4.087-.527a15.092 15.092 0 004.196-.947c.323-.105.753-.21 1.076-.316 1.29-.21 2.151-1.052 2.689-2.21.43-.946.646-1.893.86-2.84.216-1.474.646-2.842.754-4.315.107-.842.322-1.578.215-2.42 0-2.315.323-4.525.215-6.735v-.526c0-.21.108-.316.43-.316h2.152c.322 0 .538.21.538.527v.736c-.108 2.315 0 4.63.215 6.84.107 1.368-.108 2.63-.215 3.893-.108.842 0 1.579 0 2.42-.108 2.21-.538 4.21-1.506 6.21-.323.736-.861 1.157-1.506 1.472-1.614.737-3.228 1.263-4.949 1.474-1.076.105-2.259.21-3.335.42-2.582.422-5.271.211-7.745.211z"/>
  <path fill="#fff" d="M14.043 5.92v1.243c0 .83-.32 1.14-1.064 1.037-1.17 0-2.234.207-3.192.726-1.702.933-2.872 2.177-3.085 4.146-.106.519-.213.726-.745.726-.531 0-1.063 0-1.595.207-.32.104-.532 0-.532-.415v-.103c.106-1.244.106-2.488.213-3.732.106-1.244.744-2.177 1.595-3.11.107-.207.32-.414.532-.518C7.66 5.4 9.043 4.468 10.638 4.26c.958-.104 1.809-.518 2.766-.415.639.104.639.104.639.622V5.92z"/>
  <path fill="#FFFEFD" d="M16.325 3.83c.293.517.513.828.733 1.242.147.31.22.62.147.931-.073.311-.073.621-.146 1.036 0 .414-.147.62-.44.62-.294 0-.441-.206-.588-.517-.073-.31-.073-.725-.073-1.035.146-.725.22-1.45.367-2.277z"/>
  <path fill="#E9CB9E" d="M23.024 45.958h.121c.546.45.606.788.243 1.69-.06.112-.121.224-.182.224-.121 0-.182-.112-.182-.338a6.85 6.85 0 010-1.576z"/>
  <path fill="#FEFCF9" d="M5.713 15.867c0 .331-.129.663-.514.663-.514.11-.9.11-1.285-.221-.128-.11-.128-.331.129-.442.257-.11.642-.33.899-.441.642-.221.899-.11.77.441z"/>
  <path fill="#EACCA0" d="M50.425 21.064c-.088.638-.266 1.149-.798 1.276-.177 0-.355 0-.443-.383a.557.557 0 01.177-.638c.355-.255.71-.255 1.065-.255z"/>
  <path fill="#EACDA2" d="M49.149 19.105c.3-.495.676-.495.976-.594.075 0 .225.099.3.297 0 .198-.15.198-.225.297-.3.099-.6 0-1.051 0z"/>
  <path fill="#805B2D" d="M14.94 23.94a1.5 1.5 0 000 2.12l9.545 9.547a1.5 1.5 0 102.122-2.122L18.12 25l8.486-8.485a1.5 1.5 0 10-2.122-2.122L14.94 23.94zM40 23.5H16v3h24v-3z"/>
</svg>
