<svg xmlns="http://www.w3.org/2000/svg" width="61" height="59" fill="none" viewBox="0 0 61 59">
  <path fill="#7F5B2D" d="M30.414 1c3.704 0 8.254-.106 12.804.106 2.117.106 4.233.211 6.244.635 2.116.423 3.703 1.481 4.127 3.703.211.953.635 1.376 1.587 1.588 1.27.317 2.116 1.27 2.646 2.54a22.33 22.33 0 011.27 5.396c.317 3.175.529 6.35.634 9.524.212 4.55.424 9.1.212 13.545-.212 4.339-.317 8.572-.847 12.91 0 .423-.105.953-.211 1.376-.74 3.174-2.752 4.656-6.032 5.185-2.01.317-3.915.317-5.926.529-2.963.212-6.032.423-8.995.423-3.28-.105-6.666.424-9.947.424-3.81 0-7.619-.318-11.322-.953-1.376-.317-2.858-.317-4.233-.635-.53-.105-1.058-.211-1.482-.423-1.693-.635-2.963-1.693-3.703-3.386-.106-.318-.212-.53-.318-.847-.317-.529-.529-.846-.952-.952-1.693-.635-2.752-1.8-3.492-3.492-.741-1.905-1.059-3.81-1.376-5.82-.317-2.434-.635-4.868-.847-7.302C.15 33.487.15 31.9.15 30.312c-.106-3.386-.212-6.878-.106-10.264.106-3.175.317-6.35.846-9.524.212-1.587.741-2.963 1.376-4.233.53-1.164 1.376-2.01 2.54-2.646 2.116-1.27 4.444-1.798 6.878-2.01 5.926-.74 11.852-.53 18.73-.635z"/>
  <path fill="#F8E8CE" d="M30.414 2.27h10.582c2.434 0 4.762.106 7.196.529.74.106 1.587.212 2.222.529.847.318 1.482.847 1.8 1.693.634 1.693.952 3.386 1.163 5.08.318 3.174.53 6.349.635 9.523.212 4.445.423 8.995.212 13.44-.212 4.232-.318 8.57-.847 12.804-.106 1.164-.423 2.434-1.164 3.386-1.058 1.376-2.54 1.905-4.233 2.222-1.904.318-3.81.318-5.82.53-3.069.21-6.032.423-9.1.423-2.223 0-4.339.211-6.561.317-4.868.212-9.736 0-14.603-.952-1.376-.318-2.858-.318-4.233-.635-.53-.212-1.27-.424-1.8-.741-.846-.423-1.48-1.058-2.01-2.01-.74-1.482-1.164-2.964-1.375-4.55-.318-2.54-.741-4.974-.953-7.514-.211-1.799-.211-3.598-.211-5.397-.106-4.338-.212-8.677 0-13.016.105-2.645.317-5.397.846-8.042.212-.952.53-1.905.953-2.751.529-1.27 1.481-2.117 2.75-2.752C7.558 3.328 9.569 3.011 11.579 2.8c6.244-.74 12.593-.53 18.836-.53z"/>
  <path fill="#E8C99C" d="M32.53 49.677h-5.714c-.846 0-.952-.106-1.058-.952V47.56c0-.53.106-.635.635-.74H31.578c.953 0 1.8-.212 2.752-.212 1.375-.106 2.645-.424 4.02-.53a14.574 14.574 0 004.128-.952c.317-.106.74-.212 1.058-.318 1.27-.211 2.116-1.058 2.645-2.222.424-.952.635-1.905.847-2.857.212-1.481.635-2.857.74-4.338.106-.847.318-1.588.212-2.434 0-2.328.318-4.55.212-6.773v-.529c0-.212.106-.317.423-.317h2.117c.317 0 .529.211.529.529v.74c-.106 2.328 0 4.657.211 6.879.106 1.375-.105 2.645-.211 3.915-.106.847 0 1.587 0 2.434-.106 2.222-.53 4.233-1.482 6.243-.317.741-.846 1.164-1.481 1.482-1.588.74-3.175 1.27-4.868 1.481-1.058.106-2.222.212-3.28.424-2.54.423-5.186.211-7.62.211z"/>
  <path fill="#fff" d="M14.224 7.138v1.27c0 .846-.318 1.163-1.059 1.058-1.164 0-2.222.211-3.174.74-1.693.953-2.857 2.223-3.069 4.233-.106.53-.212.74-.74.74-.53 0-1.059 0-1.588.213-.317.105-.53 0-.53-.424v-.106c.107-1.27.107-2.54.213-3.81.105-1.269.74-2.221 1.587-3.174.106-.211.317-.423.529-.529 1.481-.74 2.857-1.693 4.444-1.905.953-.105 1.8-.529 2.752-.423.635.106.635.106.635.635v1.482z"/>
  <path fill="#FFFEFD" d="M16.234 5.233c.423.529.74.846 1.058 1.27.212.317.318.635.212.952-.106.317-.106.635-.212 1.058 0 .423-.211.635-.635.635-.423 0-.634-.212-.846-.529-.106-.317-.106-.74-.106-1.058.212-.74.318-1.482.53-2.328z"/>
  <path fill="#E9CB9E" d="M22.795 47.35h.212c.952.422 1.058.74.423 1.587-.106.105-.212.211-.317.211-.212 0-.318-.106-.318-.317a3.497 3.497 0 010-1.482z"/>
  <path fill="#FEFCF9" d="M5.547 17.19c0 .318-.106.635-.424.635-.423.106-.74.106-1.058-.211-.106-.106-.106-.318.106-.424.212-.105.529-.317.74-.423.53-.211.741-.106.636.424z"/>
  <path fill="#EACCA0" d="M50.732 22.482c-.106.529-.318.952-.953 1.058-.211 0-.423 0-.529-.318-.106-.211 0-.423.212-.529.423-.212.846-.212 1.27-.212z"/>
  <path fill="#EACDA2" d="M48.933 20.577c.423-.53.952-.53 1.375-.635.106 0 .318.106.424.317 0 .212-.212.212-.318.318-.423.105-.846 0-1.481 0z"/>
  <path fill="#7F5B2D" d="M29.373 31.145h-5.941c-.082-1.243-.012-2.28.21-3.112.223-.844.522-1.54.897-2.092.387-.562.814-1.013 1.283-1.353.48-.352.944-.65 1.389-.897.457-.257.855-.503 1.195-.738.352-.234.592-.527.721-.879a1.45 1.45 0 00.07-.72 1.49 1.49 0 00-.369-.791c-.2-.247-.504-.452-.914-.616-.398-.175-.92-.263-1.564-.263-.422 0-.926.04-1.512.123-.574.07-1.178.187-1.81.351-.633.152-1.26.346-1.881.58a9.8 9.8 0 00-1.653.774l-.773-6.89c.433-.259.92-.522 1.459-.792.55-.281 1.154-.527 1.81-.738a15.057 15.057 0 012.145-.545c.773-.14 1.605-.211 2.496-.211 1.441 0 2.8.2 4.078.598 1.289.398 2.414.984 3.375 1.757a8.422 8.422 0 012.285 2.866c.563 1.125.844 2.42.844 3.884 0 1.114-.158 2.01-.475 2.69-.316.668-.72 1.219-1.213 1.652a7.21 7.21 0 01-1.652 1.09c-.61.293-1.207.615-1.793.967a7.76 7.76 0 00-1.6 1.265c-.48.504-.85 1.184-1.107 2.04zm.879 4.64c0 .516-.1.996-.299 1.442-.2.445-.469.832-.808 1.16a3.46 3.46 0 01-1.16.79c-.446.2-.92.3-1.424.3-.516 0-.997-.1-1.442-.3a3.655 3.655 0 01-1.178-.79 3.84 3.84 0 01-.79-1.16 3.677 3.677 0 01-.282-1.442c0-.504.094-.984.281-1.441a3.782 3.782 0 011.97-1.987 3.49 3.49 0 011.44-.298c.505 0 .98.1 1.424.298.446.2.832.47 1.16.809.34.328.61.72.81 1.178.198.457.298.937.298 1.441z"/>
</svg>
