<svg width="60" height="58" viewBox="0 0 60 58" fill="none" xmlns="http://www.w3.org/2000/svg">
<g clip-path="url(#clip0)">
<path d="M59.9279 27.808C60.0001 32.125 60.0723 35.3987 59.8917 38.6724C59.7111 42.126 59.4583 45.5436 59.2054 48.9972C59.1332 49.9685 58.9164 50.9398 58.6274 51.8751C57.9772 53.8897 56.6407 55.2208 54.6539 55.8683C53.3896 56.3 52.0892 56.5159 50.7527 56.5878C47.6822 56.7677 44.6479 56.9836 41.5775 57.1994C41.5052 57.1994 41.4691 57.1994 41.3968 57.1994C36.2674 57.1275 31.138 57.739 25.9724 57.6311C22.9742 57.5592 19.976 57.2714 17.0139 56.7317C15.8941 56.5159 14.7382 56.408 13.5823 56.2641C12.4263 56.1202 11.3065 55.9043 10.2228 55.4366C8.85018 54.861 7.76649 53.9617 7.1524 52.5587C7.00791 52.2349 6.86342 51.9111 6.75505 51.6233C6.53832 51.1197 6.32158 50.7239 5.74361 50.5441C3.93747 49.8965 2.88991 48.4935 2.20358 46.7667C1.48112 44.968 1.26438 43.0973 0.975401 41.2266C-0.0721608 33.9597 8.48986e-05 26.6568 8.48986e-05 19.3539C8.48986e-05 16.1882 0.397436 13.0584 0.722541 9.89258C0.903156 8.34567 1.37275 6.8707 2.05909 5.46769C2.67317 4.17259 3.61237 3.20128 4.84054 2.48178C6.71893 1.43851 8.66956 0.862915 10.7647 0.647067C15.1355 0.179395 19.5425 -0.0364538 23.9134 -0.000479056C29.5124 0.0354957 35.1115 -0.000479056 40.7105 -0.000479056C43.4197 -0.000479056 46.1289 0.179395 48.802 0.611092C49.0188 0.647067 49.2716 0.683042 49.4884 0.719016C51.6196 1.11474 53.0284 2.26593 53.6425 4.38844C53.7147 4.60429 53.7509 4.82014 53.8231 5.03599C53.9676 5.43171 54.2205 5.68353 54.6539 5.79146C56.6046 6.22316 57.6521 7.55422 58.194 9.42491C58.7358 11.1517 59.0248 12.8785 59.1693 14.6772C59.675 19.3899 59.7834 24.1026 59.9279 27.808Z" fill="#805C35"/>
<path d="M30.3074 1.33107C34.5699 1.33107 38.8685 1.29509 43.131 1.33107C45.2261 1.33107 47.2851 1.58289 49.308 1.97861C49.6331 2.05056 49.9944 2.15849 50.3195 2.26641C51.2587 2.55421 51.9089 3.16578 52.234 4.10112C52.8481 5.68401 53.2093 7.2669 53.3899 8.95772C54.0762 15.5051 54.1485 22.0525 54.293 28.5999C54.3652 31.0822 54.2207 33.5645 54.004 36.0107C53.7872 38.7808 53.8595 41.5509 53.426 44.2849C53.3176 45.0044 53.2093 45.7599 52.9925 46.4794C52.5229 48.0623 51.4754 49.1775 49.9221 49.7531C49.1635 50.0409 48.4049 50.2568 47.5741 50.3287C46.2015 50.4366 44.8288 50.5805 43.42 50.6525C39.3742 50.9043 35.3646 51.0842 31.3189 51.1561C28.5374 51.1921 25.7921 51.4799 23.0106 51.4799C19.5789 51.4799 16.2195 51.2641 12.824 50.6525C11.3429 50.4007 9.8619 50.2208 8.38086 49.969C7.8029 49.861 7.26106 49.7531 6.68309 49.5732C5.23818 49.1056 4.19062 48.2062 3.54041 46.8032C2.99856 45.58 2.63734 44.3209 2.4206 42.9899C1.69814 38.0973 1.19242 33.1687 1.19242 28.2042C1.19242 25.2183 0.975686 22.2324 1.08405 19.2465C1.22855 15.8649 1.33691 12.4473 1.98712 9.10162C2.8902 5.00049 4.29898 3.2737 9.17557 2.08654C9.97027 1.90666 10.765 1.79874 11.5597 1.76276C14.594 1.54692 17.5561 1.25912 20.5904 1.29509C23.8414 1.33107 27.0564 1.29509 30.3074 1.29509C30.3074 1.33107 30.3074 1.33107 30.3074 1.33107Z" fill="#F8E8CF"/>
<path d="M30.8854 36.7662C29.585 36.5144 24.9613 36.4424 22.6494 36.6583C22.3966 37.054 22.5772 37.5217 22.541 37.9534C22.3243 40.9393 19.7957 42.5941 17.5922 42.4862C14.305 42.3063 12.1016 38.8527 13.5103 35.8668C14.3773 34.0321 15.8222 33.0608 17.9173 33.0968C22.7578 33.0968 27.6344 33.0968 32.4748 33.0968C32.9444 33.0968 33.414 33.0968 33.8475 33.0968C34.6061 33.0968 35.0034 32.737 35.184 32.0175C35.3646 31.37 35.2563 31.1542 34.6061 31.1182C33.9559 31.0822 33.3418 31.1182 32.6916 31.1182C27.3815 31.1182 22.0714 31.1182 16.7614 31.1182C14.3412 31.1182 14.1967 31.0103 13.6187 28.6359C12.5711 24.211 11.5236 19.8221 10.476 15.3972C10.3677 14.9655 10.2954 14.4978 10.2954 14.0302C10.2954 12.9869 10.8373 12.4113 11.8487 12.3393C12.3183 12.3034 12.7879 12.3034 13.2214 12.3034C21.4935 12.3034 29.7295 12.3034 38.0016 12.3034C39.8078 12.3034 39.8078 12.6631 40.2773 10.5766C40.4941 9.56929 40.8192 8.59797 41.6139 7.8425C42.1919 7.30288 42.8059 6.90716 43.5645 6.76326C44.576 6.51143 45.6235 6.58338 46.6711 6.69131C46.9601 6.72728 47.2129 6.87118 47.4658 6.97911C48.0799 7.30288 48.5134 8.05835 48.405 8.66992C48.2966 9.42539 47.7186 9.96501 46.8517 10.037C46.3821 10.0729 45.9125 10.0729 45.479 10.0729C44.0341 10.0729 44.0341 10.001 43.6368 11.5479C43.3117 12.843 43.0227 14.1381 42.7337 15.3972C41.361 21.0812 39.9884 26.8012 38.6157 32.4852C38.5435 32.773 38.4712 33.0608 38.399 33.3126C38.3267 33.6724 38.3628 33.9602 38.6518 34.248C39.0131 34.6437 39.3382 35.0394 39.591 35.4711C40.5663 37.126 40.458 39.1765 39.2659 40.6515C38.0016 42.2704 36.3038 42.81 34.3171 42.3783C32.4748 41.9826 30.9577 40.1838 30.777 38.3131C30.8493 37.7735 30.8854 37.2339 30.8854 36.7662Z" fill="#805D35"/>
<path d="M32.2218 48.6379C30.4879 48.6379 28.754 48.6019 27.0201 48.6379C26.1171 48.6739 25.6836 48.0263 25.6836 47.1989C25.6836 46.1197 26.2977 45.58 27.4536 45.5441C28.6818 45.5081 29.8738 45.4721 31.102 45.5441C32.9804 45.688 34.7865 45.3282 36.5927 45.0764C37.8931 44.8965 39.2297 44.8605 40.5301 44.5368C41.9389 44.213 43.2754 43.7093 44.6481 43.2777C45.6956 42.9539 46.1291 42.0185 46.4542 41.1192C46.7432 40.3277 46.9599 39.4643 47.1406 38.6369C47.5018 36.6223 47.8269 34.5718 48.152 32.5572C48.2242 32.0895 48.1881 31.6218 48.1881 31.1901C48.1881 29.2475 48.1881 27.2689 48.2242 25.3262C48.2242 24.4628 48.5132 24.211 49.3802 24.1391C49.5608 24.1391 49.7414 24.1391 49.8859 24.1391C51.403 24.1391 51.3669 24.1391 51.3308 25.614C51.2947 26.7652 51.1863 27.9164 51.5837 29.0316C51.6559 29.2475 51.6198 29.4993 51.6198 29.7152C51.6198 32.4133 51.7282 35.1473 51.5837 37.8455C51.4753 39.6442 51.1863 41.4789 50.6083 43.2417C50.0304 45.0764 48.9106 46.2995 47.0322 46.9111C45.2622 47.4507 43.4921 47.9544 41.6499 47.9903C40.6746 48.0263 39.6993 48.1702 38.7601 48.422C37.9654 48.6379 37.1707 48.6379 36.3759 48.6379C35.0033 48.6379 33.5945 48.6379 32.2218 48.6379Z" fill="#E8C99C"/>
<path d="M4.15436 11.7997C4.00986 10.5406 4.33497 9.17355 5.0213 7.87846C5.45478 7.08701 6.03274 6.51142 6.79132 6.07972C8.66971 5.00048 10.6926 4.38891 12.7877 3.99318C13.6547 3.81331 14.1604 4.17306 14.1965 5.00048C14.2326 5.79192 14.2326 6.61934 14.1965 7.41079C14.1604 8.02236 13.9075 8.38211 13.2934 8.49003C12.86 8.59795 12.3904 8.526 11.9208 8.63393C9.71727 8.99368 8.12787 10.1449 7.26092 12.2314C7.00806 12.807 7.15255 13.6344 6.61071 13.9582C6.14111 14.282 5.41865 14.21 4.80457 14.3179C4.37109 14.3899 4.15436 14.246 4.15436 13.7783C4.11823 13.1667 4.15436 12.5912 4.15436 11.7997Z" fill="white"/>
<path d="M15.9302 5.86387C15.9302 5.46815 15.9302 5.07243 15.9302 4.6767C15.9302 4.56878 16.0024 4.46085 16.0747 4.42488C16.1469 4.3889 16.2914 4.42488 16.3998 4.49683C17.4473 5.32425 17.4835 6.97909 17.1222 7.77053C17.05 7.98638 16.8332 8.13028 16.5804 8.0943C16.3275 8.0943 16.183 7.91443 16.0385 7.73456C15.9663 7.66261 15.9302 7.51871 15.9302 7.41078C15.9663 6.90714 15.9663 6.40349 15.9302 5.86387C15.9663 5.86387 15.9663 5.86387 15.9302 5.86387Z" fill="#FEFCF9"/>
<path d="M23.805 46.9471C23.7327 47.3068 23.5883 47.6666 23.2993 47.9544C23.1548 48.0623 22.9742 48.0983 22.8658 47.9184C22.6491 47.5946 22.5046 47.2349 22.5407 46.8032C22.5768 46.5154 22.8297 46.2635 23.1187 46.2995C23.4799 46.3355 23.805 46.6233 23.805 46.9471Z" fill="#ECD0A7"/>
<path d="M4.66014 16.8722C4.55177 16.8362 4.33504 16.7642 4.15442 16.6203C4.00993 16.5124 3.93769 16.3325 4.08218 16.1886C4.22667 16.0447 4.40728 15.9008 4.5879 15.7929C4.84076 15.649 5.09362 15.5051 5.34648 15.721C5.56321 15.9368 5.52709 16.2246 5.45485 16.5124C5.31035 16.8362 5.05749 16.8362 4.66014 16.8722Z" fill="#FDF7EF"/>
<path d="M50.6805 21.7288C50.536 22.3044 50.0303 22.5202 49.4885 22.2684C49.3079 22.1605 49.3079 21.9806 49.3801 21.8367C49.633 21.405 50.1387 21.2611 50.536 21.441C50.7166 21.5129 50.7528 21.6208 50.6805 21.7288Z" fill="#EDD1A8"/>
<path d="M49.597 19.6422C49.4886 19.6063 49.3803 19.6063 49.2719 19.5703C49.2358 19.5703 49.1274 19.4983 49.1635 19.4624C49.1996 19.3544 49.2358 19.2465 49.308 19.1746C49.3803 19.1026 49.4886 19.0307 49.597 18.9947C49.9943 18.9587 50.3917 18.8148 50.7168 19.1386C50.7529 19.1746 50.7168 19.2465 50.6807 19.2825C50.3917 19.7142 49.9582 19.6063 49.597 19.6422Z" fill="#EFD4AD"/>
<path d="M17.1947 15.613C17.9533 15.613 18.6757 15.613 19.4343 15.613C19.8317 15.613 20.0845 15.7929 20.1207 16.2246C20.229 17.2319 20.3374 18.2752 20.4096 19.2825C20.4458 19.6782 20.229 19.93 19.7955 19.93C18.459 19.93 17.1586 19.93 15.822 19.93C15.3524 19.93 15.0635 19.7501 14.9551 19.2825C14.7022 18.2752 14.4855 17.2679 14.2688 16.2966C14.1604 15.8649 14.341 15.649 14.8106 15.613C15.6053 15.613 16.4 15.649 17.1947 15.613C17.1947 15.649 17.1947 15.649 17.1947 15.613Z" fill="#F4E4CA"/>
<path d="M26.6586 15.649C27.4533 15.649 28.2842 15.649 29.0789 15.649C29.404 15.649 29.5846 15.8649 29.5485 16.2246C29.4762 17.1959 29.4401 18.1673 29.3679 19.1386C29.3317 19.7861 29.1872 19.93 28.5009 19.93C27.2366 19.966 25.9723 19.966 24.708 19.93C24.13 19.93 23.9494 19.7861 23.9133 19.2465C23.8049 18.3471 23.7327 17.4118 23.6966 16.5124C23.6604 15.8649 23.8049 15.649 24.419 15.649C25.1776 15.613 25.9362 15.613 26.6586 15.649Z" fill="#F4E4CA"/>
<path d="M35.3283 19.966C34.642 19.894 33.6667 20.2898 33.0887 19.7861C32.4385 19.1745 32.9442 18.1672 32.9442 17.3398C33.0165 15.613 32.9803 15.649 34.7504 15.649C35.9785 15.649 37.1706 15.649 38.3988 15.685C38.8684 15.685 39.0128 15.9008 38.9406 16.3325C38.8684 16.7283 38.7961 17.124 38.6877 17.5197C37.8569 20.4337 38.6516 19.894 35.3283 19.966Z" fill="#F4E4CA"/>
<path d="M32.6554 23.4555C34.0281 23.4555 35.2923 23.4555 36.5566 23.4555C36.7011 23.4555 36.8818 23.5275 37.0262 23.5994C37.1346 24.0311 37.0624 24.4269 36.9179 24.8226C36.6289 25.7219 36.7011 26.7652 36.0871 27.5926C34.9311 27.8085 33.8113 27.7006 32.6554 27.6646C32.2942 27.6646 32.1858 27.3408 32.2219 27.053C32.258 25.8658 32.2942 24.7147 32.6554 23.4555Z" fill="#F6E6CC"/>
<path d="M16.147 23.5275C17.5196 23.3116 18.8923 23.4196 20.265 23.4555C20.5901 23.4555 20.7707 23.7074 20.8068 24.0311C20.8429 24.4988 20.9152 24.9305 20.8791 25.3982C20.8429 26.1177 21.457 26.9811 20.8429 27.4847C20.3011 27.9524 19.398 27.6646 18.6756 27.6646C17.0139 27.6646 17.05 27.9164 16.6527 26.1177C16.5082 25.4341 16.3637 24.7866 16.2192 24.1031C16.147 23.9232 16.147 23.7433 16.147 23.5275Z" fill="#F6E6CC"/>
<path d="M26.7673 23.4196C27.1285 23.4196 27.4536 23.4196 27.8149 23.4196C28.6818 23.4196 29.1153 23.3836 28.8624 24.5707C28.7179 25.2902 28.7541 26.0457 28.6818 26.8012C28.6096 27.4847 28.4651 27.6646 27.851 27.6646C26.7673 27.6286 25.6836 27.9524 24.6361 27.4487C24.4916 26.4414 24.3832 25.4341 24.2387 24.4268C24.2026 24.247 24.2387 24.1031 24.2387 23.9232C24.2748 23.6714 24.4193 23.4915 24.6722 23.4915C25.3946 23.4555 26.081 23.4555 26.7673 23.4196C26.7673 23.4555 26.7673 23.4196 26.7673 23.4196Z" fill="#F6E6CC"/>
<path d="M36.8096 37.8455C36.7735 38.5649 36.34 38.9966 35.5814 38.9966C34.7867 38.9966 34.2449 38.457 34.281 37.7375C34.3171 37.054 34.9673 36.5144 35.7259 36.5863C36.4484 36.6223 36.8457 37.126 36.8096 37.8455Z" fill="#EFDEC4"/>
<path d="M19.073 37.8095C19.073 38.493 18.6034 38.9967 17.881 38.9967C17.0502 39.0326 16.5444 38.565 16.5444 37.7735C16.5444 37.054 16.9779 36.5863 17.7004 36.5504C18.4589 36.5144 19.0369 37.09 19.073 37.8095Z" fill="#EEDCC2"/>
</g>
<defs>
<clipPath id="clip0">
<rect width="60" height="57.6316" fill="white"/>
</clipPath>
</defs>
</svg>
