<svg width="62" height="57" viewBox="0 0 62 57" fill="none" xmlns="http://www.w3.org/2000/svg">
<g clip-path="url(#clip0)">
<path d="M26.4128 30.1696C26.5297 29.9352 26.6466 29.8767 26.6466 29.8181C29.5099 23.8427 32.6654 18.0432 35.7041 12.1264C36.9896 9.66598 38.3921 7.26413 39.9114 4.92086C40.6711 3.74922 41.4892 2.69475 42.4241 1.75745C43.8266 0.292905 45.5797 -0.175749 47.5665 0.11716C50.1376 0.527232 52.475 1.75745 54.754 2.92908C56.9161 4.10072 58.7276 5.62384 60.4223 7.38129C61.8247 8.84583 62.3506 10.5447 61.8247 12.5951C61.4741 14.0596 60.8897 15.4656 60.1301 16.8129C57.4421 21.4995 54.4618 25.9517 51.3063 30.3453C48.0924 34.7389 44.7031 39.0154 41.0801 43.1161C39.3271 45.1079 37.8077 47.2168 36.1131 49.2086C34.4769 51.2004 32.7239 53.075 30.7955 54.7153C30.3864 55.0668 29.919 55.4183 29.4515 55.7698C27.7568 57.1757 25.8869 57.2929 23.8417 56.5899C21.8549 55.8869 20.1602 54.7739 18.5825 53.4851C15.6023 50.9661 12.8558 48.2127 10.46 45.1079C8.94063 43.1747 7.36288 41.3001 5.78512 39.4255C4.2658 37.4923 2.80491 35.5005 1.57777 33.333C0.993415 32.2199 0.525932 31.1069 0.175319 29.8767C-0.233729 28.295 0.058448 26.889 1.22716 25.7174C1.86995 25.0144 2.62961 24.4871 3.4477 23.9599C6.2526 22.1439 9.11594 20.445 12.0377 18.9219C13.0896 18.3946 14.1414 17.926 15.3101 17.5745C16.6541 17.1644 17.7644 17.5159 18.7578 18.4532C19.4006 19.039 19.9265 19.742 20.4524 20.445C22.4392 23.4327 24.426 26.4203 26.1207 29.6423C26.1207 29.7595 26.2375 29.9352 26.4128 30.1696Z" fill="#29A64F"/>
<path d="M26.296 55.184C24.8351 55.1254 23.7832 54.6567 22.7314 54.0709C21.0952 53.1336 19.6343 51.962 18.2319 50.6732C15.427 48.037 12.8558 45.1665 10.5184 42.0617C9.34969 40.48 8.00568 39.074 6.77854 37.6094C4.9086 35.3833 3.21397 32.9815 2.22057 30.1696C1.98683 29.5252 1.75309 28.8808 1.92839 28.1778C2.04527 27.592 2.45431 27.1233 2.9218 26.7132C4.61642 25.3073 6.42792 24.2528 8.29786 23.1398C10.2262 22.0267 12.1546 20.7965 14.1998 19.9178C14.6089 19.742 15.0179 19.6249 15.427 19.4491C16.4204 18.9805 17.2385 19.2734 17.9397 20.0935C18.9331 21.2652 19.7512 22.6125 20.6277 23.9013C22.2055 26.3618 23.7832 28.8222 25.0688 31.4584C25.361 32.0442 25.6532 32.5128 25.3026 33.2158C25.1273 33.3916 25.1273 33.8602 25.5363 34.036C25.8869 34.2117 26.2375 34.036 26.4713 33.5087C26.8219 32.8057 27.1725 32.1028 27.4647 31.3998C28.8671 28.2364 30.4449 25.1315 32.198 22.1439C33.542 19.9178 34.7691 17.6331 35.9378 15.3484C37.574 12.1264 39.3855 9.02157 41.2554 5.97533C41.8982 4.92086 42.6579 3.98355 43.4176 3.10482C44.4694 1.93319 45.755 1.5817 47.3327 1.87461C49.6117 2.28468 51.5401 3.33915 53.5853 4.39362C55.8059 5.56525 57.6174 7.14696 59.4289 8.84583C60.4807 9.84172 60.5976 10.9548 60.247 12.2436C59.7795 13.9424 58.9029 15.407 57.968 16.8715C55.3384 21.0308 52.6503 25.2487 49.7286 29.1737C47.6833 31.927 45.6381 34.7389 43.4176 37.3751C42.0151 39.0154 40.5542 40.6557 39.1518 42.3546C37.6324 44.2292 36.1716 46.1624 34.5938 48.037C32.607 50.4388 30.5033 52.7821 27.8737 54.5396C27.4062 54.9496 26.8219 55.2425 26.296 55.184Z" fill="#B9CF6F"/>
<path d="M50.4883 20.445C51.0726 21.3237 51.1895 22.1439 50.6636 23.0812C49.378 25.4244 47.6834 27.4748 46.1056 29.5837C44.5863 31.5755 43.1254 33.5673 41.5477 35.5005C40.7296 36.555 39.7946 37.4923 38.9181 38.5468C37.2234 40.5971 35.5872 42.6475 34.0095 44.815C33.4836 45.518 32.8992 46.2795 32.2564 46.8654C31.0293 48.0956 29.9774 49.5015 28.6334 50.6732C27.6985 51.5519 26.7051 52.3134 25.4195 52.7235C24.3676 53.0164 23.4327 52.7821 22.5561 52.2549C21.8549 51.8448 21.2121 51.259 20.7446 50.556C20.394 50.0873 19.9265 49.6187 19.5175 49.2672C18.9916 48.8571 18.7578 48.2713 18.4072 47.6855C18.1735 47.2754 18.2319 46.9239 18.641 46.6896C19.05 46.5139 19.2253 45.9866 19.6928 45.928C20.2187 45.8695 20.394 46.3967 20.7446 46.631C21.6796 47.2168 22.4977 47.8612 23.5495 48.1541C24.0755 48.3299 24.6014 48.2713 25.1273 48.0956C26.4713 47.6269 27.5816 46.8068 28.575 45.8695C30.7371 43.9363 32.7239 41.7687 34.5938 39.5426C35.8794 38.0195 37.165 36.4964 38.509 35.0904C39.7362 33.8016 40.8464 32.3957 41.9567 30.9897C42.8332 29.8767 43.7098 28.8222 44.7032 27.7677C46.1056 26.3032 47.2743 24.6629 48.443 23.0226C49.1443 22.1439 49.7871 21.3237 50.4883 20.445Z" fill="#9CC148"/>
<path d="M46.6315 4.8037C46.9821 4.92086 47.3327 5.03802 47.6833 5.15519C48.3845 5.50668 49.0273 5.85817 49.7285 6.26824C50.3129 6.61973 50.3129 6.79547 50.0792 7.43987C49.7285 8.3186 49.0858 9.02158 48.5598 9.78314C47.2158 11.8335 45.9302 13.8839 44.6447 15.9928C43.7681 17.4573 42.6579 18.6876 41.606 19.9764C40.3204 21.4995 39.0933 23.0226 37.983 24.6043C36.7559 26.4203 35.4703 28.1778 34.2431 29.9352C33.5419 30.8726 32.4901 30.9897 31.6136 30.2282C31.3214 29.9938 31.4382 29.7595 31.5551 29.5252C31.8473 28.9979 32.1979 28.4707 32.4901 28.0021C33.1329 26.9476 33.6588 25.8345 34.1847 24.6629C35.0612 22.6711 36.2884 20.8551 37.3987 18.9805C39.2686 15.8756 41.0801 12.8294 42.95 9.78314C43.885 8.3186 44.82 6.85406 45.7549 5.33093C45.9302 4.97944 46.164 4.74512 46.6315 4.8037Z" fill="#F6EC7F"/>
<path d="M14.1415 36.0863C14.1999 36.4964 14.0246 36.8479 13.674 37.0822C13.0896 37.4923 12.5053 37.9024 11.9794 38.3124C11.5703 38.6053 11.2781 38.4882 11.0444 38.1367C10.1094 36.7893 8.88228 35.6763 7.88888 34.3875C6.95391 33.1572 5.7852 32.1614 5.02554 30.7554C4.55806 29.8767 4.49962 29.7009 5.20085 28.9979C5.90207 28.295 6.6033 27.5334 7.42139 26.9476C7.77201 26.7133 7.88888 26.7718 8.18106 27.0062C8.94072 27.7677 9.52507 28.7636 10.2263 29.5838C10.986 30.5211 11.7456 31.517 12.4468 32.5714C13.0312 33.4502 13.4987 34.3875 13.9662 35.2662C14.1415 35.5005 14.1415 35.7934 14.1415 36.0863Z" fill="#F6EC7F"/>
<path d="M16.0115 40.7143C15.3687 40.89 14.7844 41.0658 14.2 41.0072C13.791 40.9486 13.6741 40.7143 13.8494 40.4214C14.0247 40.1871 14.2584 40.0113 14.4922 39.777C14.6091 39.6598 14.7259 39.6012 14.8428 39.7184C15.2518 40.0113 15.7778 40.1871 16.0115 40.7143Z" fill="#F3EB7E"/>
<path d="M52.475 17.7502C53.2347 18.4532 53.2931 18.4532 52.7087 18.9805C52.475 19.2148 52.2997 19.5077 51.8906 19.6249C51.6569 18.9219 52.475 18.5704 52.475 17.7502Z" fill="#9FC24B"/>
<path d="M17.4722 45.2837C17.1216 45.518 16.8294 45.4008 16.5957 45.4008C16.3035 45.4008 16.1866 45.1665 16.2451 44.9322C16.3035 44.6393 16.5373 44.5807 16.771 44.6393C17.0632 44.6978 17.2385 44.9907 17.4722 45.2837Z" fill="#9EC24A"/>
<path d="M26.3543 42.7061C26.5296 42.999 26.7634 43.2919 26.4128 43.5848C26.2374 43.7019 26.0037 43.8777 25.77 43.7019C25.5947 43.5262 25.77 43.3505 25.8868 43.1747C26.0037 43.0575 26.0621 42.8232 26.3543 42.7061Z" fill="#A1C34E"/>
<path d="M30.5617 33.3916C30.3864 33.333 30.2695 33.2158 30.2695 33.0401C30.2695 32.7472 30.4448 32.7472 30.6786 32.7472C30.7955 32.7472 30.9708 32.8057 30.9708 32.9229C30.9708 33.1572 30.7954 33.333 30.5617 33.3916Z" fill="#EFE87D"/>
<path d="M16.1279 42.4132C16.1279 41.9445 16.2448 41.6516 16.537 41.3001C16.5954 41.7688 16.6539 42.1202 16.1279 42.4132Z" fill="#E1E279"/>
</g>
<defs>
<clipPath id="clip0">
<rect width="62" height="57" fill="white"/>
</clipPath>
</defs>
</svg>
