<svg xmlns="http://www.w3.org/2000/svg" width="60" height="58" fill="none" viewBox="0 0 60 58">
  <g clip-path="url(#clip0)">
    <path fill="#7F5B2D" d="M29.418 0h11.111c2.54 0 4.974.106 7.513.423.847.106 1.693.318 2.434.53 1.376.423 2.434 1.27 2.963 2.75.212.636.318 1.27.635 1.8.318.529 1.164.423 1.693.74.953.424 1.693 1.164 2.01 2.117a15.49 15.49 0 011.27 5.29c.424 4.234.636 8.572.741 12.91.106 4.657.212 9.313-.105 13.97-.212 3.174-.212 6.242-.635 9.417-.106.423-.106.953-.212 1.376-.74 3.069-2.751 4.656-5.714 5.185-1.693.317-3.492.423-5.291.529-3.28.212-6.561.53-9.842.53-3.386 0-6.772.422-10.158.422a65.64 65.64 0 01-11.111-.952c-1.588-.317-3.175-.317-4.762-.74-.53-.106-1.164-.318-1.694-.53-1.481-.635-2.54-1.587-3.174-3.069l-.318-.635c-.211-.74-.634-1.163-1.375-1.375-1.27-.53-2.222-1.482-2.857-2.752a13.398 13.398 0 01-1.27-4.127c-.212-2.54-.423-4.867-.74-7.195-.318-2.328-.318-4.762-.318-7.09 0-3.28-.212-6.561-.106-9.841.106-3.387.317-6.879.846-10.265.212-1.481.741-2.963 1.376-4.233.53-.952 1.164-1.799 2.116-2.328C5.926 1.8 7.62 1.058 9.524.847 12.38.423 15.344.212 18.2.106c4.021-.212 8.148 0 11.217-.106z"/>
    <path fill="#F8E8CE" d="M30.37 1.27h10.265c2.646 0 5.291.211 7.937.529 2.222.317 3.491 1.376 4.02 3.598.424 1.799.636 3.492.847 5.29.318 3.599.423 7.197.53 10.795.105 3.492.21 6.878.105 10.37-.212 4.338-.317 8.571-.846 12.91 0 .212 0 .317-.106.529-.53 3.069-2.01 4.55-5.185 5.08-1.588.317-3.28.317-4.868.423-3.386.211-6.667.529-10.053.529-3.598 0-7.09.529-10.688.423-3.386-.106-6.667-.317-9.947-.952-1.376-.318-2.751-.424-4.233-.635a8.405 8.405 0 01-2.328-.635c-1.058-.424-1.799-1.164-2.222-2.222a14.713 14.713 0 01-1.27-4.34c-.212-2.433-.529-4.867-.846-7.407-.212-1.904-.212-3.703-.212-5.608-.106-4.338-.212-8.677 0-13.016.106-2.645.317-5.29.846-7.936.106-.53.212-1.058.424-1.588.846-3.068 3.174-4.444 6.031-5.185 1.905-.529 3.916-.529 5.926-.74 3.704-.318 7.408-.212 11.111-.212h4.762z"/>
    <path fill="#7F5B2D" d="M31.852 18.518c-.423 1.588-.635 3.175-.74 4.657-.212 2.116-.53 4.232-.847 6.243-.318 1.376-.318 2.751-.53 4.127-.105.952-.317 2.01-.634 2.963-.424 1.376-1.164 2.54-2.223 3.598-.634.529-1.27 1.058-2.116 1.164-1.693.423-3.492.635-5.185.317-2.434-.423-4.021-2.01-4.445-4.762-.317-2.01.953-4.127 3.07-5.079.951-.423 1.798-.635 2.856-.74.212 0 .424 0 .635-.107 1.164-.211 1.376-.529 1.587-1.587.635-3.174.847-6.455 1.27-9.735.318-2.857.53-5.609 1.059-8.466.105-.317.105-.74.317-1.058.423-1.164 1.164-1.482 2.222-.847 1.905 1.164 4.021 1.905 6.138 2.857.74.318 1.481.741 2.222 1.059 1.481.846 2.751 1.905 3.598 3.386.74 1.164 1.27 2.54 1.376 3.915.211 2.434-.847 4.445-2.752 5.926-.74.635-1.693.953-2.54 1.376-.423.211-.846.211-1.27.317a.582.582 0 01-.528-.317c-.106-.212.105-.423.317-.53.318-.105.53-.317.847-.422 1.375-.741 1.904-2.54 1.375-3.916-.317-.846-.74-1.587-1.481-2.116-.318-.212-.635-.53-.953-.741-1.058-.423-1.798-.952-2.645-1.482z"/>
    <path fill="#E8C99C" d="M51.429 27.725c-.106 1.481.105 3.174.211 4.868.106 1.375-.105 2.645-.211 4.02v1.588c0 2.328-.424 4.55-1.376 6.667-.423.846-1.058 1.587-2.01 1.904-1.27.424-2.54.953-3.916 1.165-1.164.211-2.328.211-3.386.423-1.587.317-3.175.317-4.762.423-1.058.106-2.117.106-3.175-.106-.74-.106-1.481-.106-2.222-.106-.952 0-2.01-.105-2.963.106h-.635c-.952-.106-1.164-.317-1.164-1.27 0-1.904-.212-1.587 1.587-1.587 1.905 0 3.704-.106 5.609-.212 1.376 0 2.751-.211 4.127-.529.212 0 .423-.105.635-.105 1.693 0 3.386-.53 4.973-.953.212-.106.53-.212.741-.212 2.01-.317 2.752-1.693 3.175-3.386.423-1.693.74-3.386 1.058-5.08.212-1.375.423-2.75.423-4.232 0-2.116.212-4.233.212-6.35 0-.528 0-.634.635-.528.529.106 1.164 0 1.693 0 .74 0 .74 0 .74.74v2.752z"/>
    <path fill="#fff" d="M14.18 6.032v1.481c0 .741-.317 1.058-1.058.953-1.8-.106-3.28.635-4.656 1.799-.953.846-1.376 2.01-1.588 3.174-.105.74-.105.847-.952.74-.423 0-.952.213-1.376.213-.529 0-.635-.106-.635-.635-.105-.635.212-1.164.212-1.8 0-.846 0-1.587.212-2.433.423-1.587 1.27-2.752 2.645-3.492.53-.318.953-.53 1.482-.847.317-.211.74-.423 1.164-.529l2.54-.635c.634-.211 1.375-.317 1.798 0 .424.318.106.953.212 1.482v.529z"/>
    <path fill="#FFFEFD" d="M16.19 4.127c.424.53.741 1.058 1.165 1.481.211.318.211.635.105.953 0 .317-.105.635-.211 1.058-.106.318-.212.53-.635.53-.423 0-.635-.107-.847-.53-.211-.423-.105-.952-.105-1.376.211-.635.317-1.27.529-2.116z"/>
    <path fill="#E9CB9E" d="M22.751 46.35c1.058.317 1.27.952.635 1.692-.317.318-.529.212-.635-.105a4.009 4.009 0 010-1.588z"/>
    <path fill="#FEFDFB" d="M4.868 16.825c-.318 0-.741.106-.741-.317 0-.317.317-.53.635-.635.212-.106.529-.317.74-.106.212.212.106.53 0 .847-.105.211-.423.106-.634.211z"/>
    <path fill="#E9CB9F" d="M50.688 21.693c-.106.318-.212.53-.424.74-.211.212-.529.212-.846 0-.212-.105-.318-.422-.106-.528.318-.212.74-.318 1.164-.318.106-.105.212 0 .212.106z"/>
    <path fill="#EBCEA4" d="M50.9 19.26c-1.059.528-1.27.528-2.011.21.635-.422 1.27-.634 2.01-.21z"/>
  </g>
  <defs>
    <clipPath id="clip0">
      <path fill="#fff" d="M0 0h60v57.778H0z"/>
    </clipPath>
  </defs>
</svg>
